<?xml version="1.0" encoding="UTF-8" standalone="no"?>
<svg
   width="128"
   height="128"
   viewBox="0 0 128 128"
   version="1.1"
   id="svg81"
   sodipodi:docname="arduino-ide-v2.svg"
   inkscape:version="1.2.1 (9c6d41e410, 2022-07-14)"
   xmlns:inkscape="http://www.inkscape.org/namespaces/inkscape"
   xmlns:sodipodi="http://sodipodi.sourceforge.net/DTD/sodipodi-0.dtd"
   xmlns:xlink="http://www.w3.org/1999/xlink"
   xmlns="http://www.w3.org/2000/svg"
   xmlns:svg="http://www.w3.org/2000/svg"
   xmlns:rdf="http://www.w3.org/1999/02/22-rdf-syntax-ns#"
   xmlns:cc="http://creativecommons.org/ns#"
   xmlns:dc="http://purl.org/dc/elements/1.1/">
  <title
     id="title260">Adwaita Icon Template</title>
  <sodipodi:namedview
     id="namedview83"
     pagecolor="#505050"
     bordercolor="#eeeeee"
     borderopacity="1"
     inkscape:showpageshadow="0"
     inkscape:pageopacity="0"
     inkscape:pagecheckerboard="0"
     inkscape:deskcolor="#505050"
     showgrid="false"
     inkscape:zoom="1.84375"
     inkscape:cx="63.728814"
     inkscape:cy="64"
     inkscape:window-width="1792"
     inkscape:window-height="1051"
     inkscape:window-x="0"
     inkscape:window-y="0"
     inkscape:window-maximized="1"
     inkscape:current-layer="svg81" />
  <defs
     id="defs55">
    <clipPath
       id="clip-0">
      <rect
         x="0"
         y="0"
         width="128"
         height="128"
         id="rect2" />
    </clipPath>
    <g
       id="source-723"
       clip-path="url(#clip-0)">
      <path
         fill-rule="nonzero"
         fill="rgb(2.352941%, 52.941179%, 54.509807%)"
         fill-opacity="1"
         d="M 106.734375 64.941406 C 106.734375 53.753906 97.292969 44.667969 85.722656 44.667969 C 84.640625 44.660156 83.5625 44.738281 82.496094 44.90625 C 73.5 46.179688 67.460938 52.660156 64.089844 57.632812 C 60.714844 52.660156 54.679688 46.179688 45.683594 44.90625 C 44.613281 44.753906 43.535156 44.675781 42.457031 44.667969 C 30.855469 44.667969 21.445312 53.753906 21.445312 64.941406 C 21.445312 76.128906 30.886719 85.210938 42.457031 85.210938 C 43.546875 85.21875 44.632812 85.140625 45.710938 84.976562 C 54.707031 83.671875 60.746094 77.191406 64.117188 72.222656 C 67.492188 77.191406 73.527344 83.671875 82.523438 84.976562 C 83.605469 85.128906 84.691406 85.207031 85.78125 85.210938 C 97.292969 85.210938 106.734375 76.128906 106.734375 64.941406 M 44.644531 77.875 C 43.910156 77.980469 43.167969 78.03125 42.425781 78.019531 C 34.792969 78.019531 28.605469 72.132812 28.605469 64.941406 C 28.605469 57.71875 34.820312 51.859375 42.457031 51.859375 C 43.199219 51.867188 43.9375 51.914062 44.675781 52.007812 C 53.167969 53.222656 58.347656 61.597656 60.125 64.941406 C 58.316406 68.3125 53.109375 76.660156 44.644531 77.875 M 68.054688 64.941406 C 69.800781 61.597656 75.007812 53.222656 83.5 52.007812 C 84.238281 51.914062 84.980469 51.867188 85.722656 51.859375 C 93.355469 51.859375 99.542969 57.75 99.542969 64.941406 C 99.542969 72.160156 93.328125 78.019531 85.722656 78.019531 C 84.980469 78.015625 84.238281 77.964844 83.5 77.875 C 75.007812 76.660156 69.800781 68.285156 68.054688 64.941406 "
         id="path5" />
    </g>
    <linearGradient
       id="linear-pattern-0"
       gradientUnits="userSpaceOnUse"
       x1="63.999947"
       y1="122.999992"
       x2="63.999947"
       y2="3">
      <stop
         offset="0"
         stop-color="rgb(0%, 43.137255%, 44.313726%)"
         stop-opacity="1"
         id="stop8" />
      <stop
         offset="1"
         stop-color="rgb(15.686275%, 65.098041%, 66.666669%)"
         stop-opacity="1"
         id="stop10" />
    </linearGradient>
    <clipPath
       id="clip-1">
      <rect
         x="0"
         y="0"
         width="128"
         height="128"
         id="rect13" />
    </clipPath>
    <g
       id="source-726"
       clip-path="url(#clip-1)">
      <path
         fill-rule="nonzero"
         fill="rgb(2.352941%, 52.941179%, 54.509807%)"
         fill-opacity="1"
         d="M 36.625 62.957031 L 49.261719 62.957031 L 49.261719 67.011719 L 36.625 67.011719 Z M 87.113281 67.042969 L 91.375 67.042969 L 91.375 62.957031 L 87.113281 62.957031 L 87.113281 58.695312 L 83.027344 58.695312 L 83.027344 62.957031 L 78.765625 62.957031 L 78.765625 67.042969 L 83.027344 67.042969 L 83.027344 71.304688 L 87.113281 71.304688 Z M 87.113281 67.042969 "
         id="path16" />
    </g>
    <clipPath
       id="clip-2">
      <rect
         x="0"
         y="0"
         width="128"
         height="128"
         id="rect19" />
    </clipPath>
    <g
       id="source-729"
       clip-path="url(#clip-2)">
      <path
         fill-rule="nonzero"
         fill="rgb(96.470588%, 96.078432%, 95.686275%)"
         fill-opacity="1"
         d="M 106.734375 62.941406 C 106.734375 51.753906 97.292969 42.667969 85.722656 42.667969 C 84.640625 42.660156 83.5625 42.738281 82.496094 42.90625 C 73.5 44.179688 67.460938 50.660156 64.089844 55.632812 C 60.714844 50.660156 54.679688 44.179688 45.683594 42.90625 C 44.613281 42.753906 43.535156 42.675781 42.457031 42.667969 C 30.855469 42.667969 21.445312 51.753906 21.445312 62.941406 C 21.445312 74.128906 30.886719 83.210938 42.457031 83.210938 C 43.546875 83.21875 44.632812 83.140625 45.710938 82.976562 C 54.707031 81.671875 60.746094 75.191406 64.117188 70.222656 C 67.492188 75.191406 73.527344 81.671875 82.523438 82.976562 C 83.605469 83.128906 84.691406 83.207031 85.78125 83.210938 C 97.292969 83.210938 106.734375 74.128906 106.734375 62.941406 M 44.644531 75.875 C 43.910156 75.980469 43.167969 76.03125 42.425781 76.019531 C 34.792969 76.019531 28.605469 70.132812 28.605469 62.941406 C 28.605469 55.71875 34.820312 49.859375 42.457031 49.859375 C 43.199219 49.867188 43.9375 49.914062 44.675781 50.007812 C 53.167969 51.222656 58.347656 59.597656 60.125 62.941406 C 58.316406 66.3125 53.109375 74.660156 44.644531 75.875 M 68.054688 62.941406 C 69.800781 59.597656 75.007812 51.222656 83.5 50.007812 C 84.238281 49.914062 84.980469 49.867188 85.722656 49.859375 C 93.355469 49.859375 99.542969 55.75 99.542969 62.941406 C 99.542969 70.160156 93.328125 76.019531 85.722656 76.019531 C 84.980469 76.015625 84.238281 75.964844 83.5 75.875 C 75.007812 74.660156 69.800781 66.285156 68.054688 62.941406 "
         id="path22" />
    </g>
    <clipPath
       id="clip-3">
      <rect
         x="0"
         y="0"
         width="128"
         height="128"
         id="rect25" />
    </clipPath>
    <g
       id="source-732"
       clip-path="url(#clip-3)">
      <path
         fill-rule="nonzero"
         fill="rgb(2.352941%, 52.941179%, 54.509807%)"
         fill-opacity="1"
         d="M 106.734375 64.941406 C 106.734375 53.753906 97.292969 44.667969 85.722656 44.667969 C 84.640625 44.660156 83.5625 44.738281 82.496094 44.90625 C 73.5 46.179688 67.460938 52.660156 64.089844 57.632812 C 60.714844 52.660156 54.679688 46.179688 45.683594 44.90625 C 44.613281 44.753906 43.535156 44.675781 42.457031 44.667969 C 30.855469 44.667969 21.445312 53.753906 21.445312 64.941406 C 21.445312 76.128906 30.886719 85.210938 42.457031 85.210938 C 43.546875 85.21875 44.632812 85.140625 45.710938 84.976562 C 54.707031 83.671875 60.746094 77.191406 64.117188 72.222656 C 67.492188 77.191406 73.527344 83.671875 82.523438 84.976562 C 83.605469 85.128906 84.691406 85.207031 85.78125 85.210938 C 97.292969 85.210938 106.734375 76.128906 106.734375 64.941406 M 44.644531 77.875 C 43.910156 77.980469 43.167969 78.03125 42.425781 78.019531 C 34.792969 78.019531 28.605469 72.132812 28.605469 64.941406 C 28.605469 57.71875 34.820312 51.859375 42.457031 51.859375 C 43.199219 51.867188 43.9375 51.914062 44.675781 52.007812 C 53.167969 53.222656 58.347656 61.597656 60.125 64.941406 C 58.316406 68.3125 53.109375 76.660156 44.644531 77.875 M 68.054688 64.941406 C 69.800781 61.597656 75.007812 53.222656 83.5 52.007812 C 84.238281 51.914062 84.980469 51.867188 85.722656 51.859375 C 93.355469 51.859375 99.542969 57.75 99.542969 64.941406 C 99.542969 72.160156 93.328125 78.019531 85.722656 78.019531 C 84.980469 78.015625 84.238281 77.964844 83.5 77.875 C 75.007812 76.660156 69.800781 68.285156 68.054688 64.941406 "
         id="path28" />
    </g>
    <clipPath
       id="clip-4">
      <rect
         x="0"
         y="0"
         width="128"
         height="128"
         id="rect31" />
    </clipPath>
    <g
       id="source-735"
       clip-path="url(#clip-4)">
      <path
         fill-rule="nonzero"
         fill="rgb(96.470588%, 96.078432%, 95.686275%)"
         fill-opacity="1"
         d="M 36.625 60.957031 L 49.261719 60.957031 L 49.261719 65.011719 L 36.625 65.011719 Z M 87.113281 65.042969 L 91.375 65.042969 L 91.375 60.957031 L 87.113281 60.957031 L 87.113281 56.695312 L 83.027344 56.695312 L 83.027344 60.957031 L 78.765625 60.957031 L 78.765625 65.042969 L 83.027344 65.042969 L 83.027344 69.304688 L 87.113281 69.304688 Z M 87.113281 65.042969 "
         id="path34" />
    </g>
    <clipPath
       id="clip-5">
      <rect
         x="0"
         y="0"
         width="128"
         height="128"
         id="rect37" />
    </clipPath>
    <g
       id="source-738"
       clip-path="url(#clip-5)">
      <path
         fill-rule="nonzero"
         fill="rgb(2.352941%, 52.941179%, 54.509807%)"
         fill-opacity="1"
         d="M 36.625 62.957031 L 49.261719 62.957031 L 49.261719 67.011719 L 36.625 67.011719 Z M 87.113281 67.042969 L 91.375 67.042969 L 91.375 62.957031 L 87.113281 62.957031 L 87.113281 58.695312 L 83.027344 58.695312 L 83.027344 62.957031 L 78.765625 62.957031 L 78.765625 67.042969 L 83.027344 67.042969 L 83.027344 71.304688 L 87.113281 71.304688 Z M 87.113281 67.042969 "
         id="path40" />
    </g>
    <clipPath
       id="clip-6">
      <rect
         x="0"
         y="0"
         width="128"
         height="128"
         id="rect43" />
    </clipPath>
    <g
       id="source-741"
       clip-path="url(#clip-6)">
      <path
         fill-rule="nonzero"
         fill="rgb(96.470588%, 96.078432%, 95.686275%)"
         fill-opacity="1"
         d="M 106.734375 62.941406 C 106.734375 51.753906 97.292969 42.667969 85.722656 42.667969 C 84.640625 42.660156 83.5625 42.738281 82.496094 42.90625 C 73.5 44.179688 67.460938 50.660156 64.089844 55.632812 C 60.714844 50.660156 54.679688 44.179688 45.683594 42.90625 C 44.613281 42.753906 43.535156 42.675781 42.457031 42.667969 C 30.855469 42.667969 21.445312 51.753906 21.445312 62.941406 C 21.445312 74.128906 30.886719 83.210938 42.457031 83.210938 C 43.546875 83.21875 44.632812 83.140625 45.710938 82.976562 C 54.707031 81.671875 60.746094 75.191406 64.117188 70.222656 C 67.492188 75.191406 73.527344 81.671875 82.523438 82.976562 C 83.605469 83.128906 84.691406 83.207031 85.78125 83.210938 C 97.292969 83.210938 106.734375 74.128906 106.734375 62.941406 M 44.644531 75.875 C 43.910156 75.980469 43.167969 76.03125 42.425781 76.019531 C 34.792969 76.019531 28.605469 70.132812 28.605469 62.941406 C 28.605469 55.71875 34.820312 49.859375 42.457031 49.859375 C 43.199219 49.867188 43.9375 49.914062 44.675781 50.007812 C 53.167969 51.222656 58.347656 59.597656 60.125 62.941406 C 58.316406 66.3125 53.109375 74.660156 44.644531 75.875 M 68.054688 62.941406 C 69.800781 59.597656 75.007812 51.222656 83.5 50.007812 C 84.238281 49.914062 84.980469 49.867188 85.722656 49.859375 C 93.355469 49.859375 99.542969 55.75 99.542969 62.941406 C 99.542969 70.160156 93.328125 76.019531 85.722656 76.019531 C 84.980469 76.015625 84.238281 75.964844 83.5 75.875 C 75.007812 74.660156 69.800781 66.285156 68.054688 62.941406 "
         id="path46" />
    </g>
    <clipPath
       id="clip-7">
      <rect
         x="0"
         y="0"
         width="128"
         height="128"
         id="rect49" />
    </clipPath>
    <g
       id="source-744"
       clip-path="url(#clip-7)">
      <path
         fill-rule="nonzero"
         fill="rgb(96.470588%, 96.078432%, 95.686275%)"
         fill-opacity="1"
         d="M 36.625 60.957031 L 49.261719 60.957031 L 49.261719 65.011719 L 36.625 65.011719 Z M 87.113281 65.042969 L 91.375 65.042969 L 91.375 60.957031 L 87.113281 60.957031 L 87.113281 56.695312 L 83.027344 56.695312 L 83.027344 60.957031 L 78.765625 60.957031 L 78.765625 65.042969 L 83.027344 65.042969 L 83.027344 69.304688 L 87.113281 69.304688 Z M 87.113281 65.042969 "
         id="path52" />
    </g>
  </defs>
  <path
     fill-rule="nonzero"
     fill="rgb(0%, 43.137255%, 44.313726%)"
     fill-opacity="1"
     d="M 124 65 C 124 98.136719 97.136719 125 64 125 C 30.863281 125 4 98.136719 4 65 C 4 31.863281 30.863281 5 64 5 C 97.136719 5 124 31.863281 124 65 Z M 124 65 "
     id="path57" />
  <path
     fill-rule="nonzero"
     fill="rgb(83.529413%, 82.745099%, 81.176472%)"
     fill-opacity="1"
     d="M 64 7 C 94.929688 7 120 32.070312 120 63 L 120 65 C 120 95.929688 94.929688 121 64 121 C 33.070312 121 8 95.929688 8 65 L 8 63 C 8 32.070312 33.070312 7 64 7 Z M 64 7 "
     id="path59" />
  <use
     xlink:href="#source-723"
     id="use61" />
  <path
     fill-rule="nonzero"
     fill="url(#linear-pattern-0)"
     d="M 124 63 C 124 96.136719 97.136719 123 64 123 C 30.863281 123 4 96.136719 4 63 C 4 29.863281 30.863281 3 64 3 C 97.136719 3 124 29.863281 124 63 Z M 124 63 "
     id="path63" />
  <use
     xlink:href="#source-726"
     id="use65" />
  <use
     xlink:href="#source-729"
     id="use67" />
  <path
     fill-rule="nonzero"
     fill="rgb(15.294118%, 65.098041%, 66.666669%)"
     fill-opacity="1"
     d="M 120 62.941406 C 120 93.820312 94.96875 118.851562 64.089844 118.851562 C 33.210938 118.851562 8.175781 93.820312 8.175781 62.941406 C 8.175781 32.0625 33.210938 7.03125 64.089844 7.03125 C 94.96875 7.03125 120 32.0625 120 62.941406 Z M 120 62.941406 "
     id="path69" />
  <use
     xlink:href="#source-732"
     id="use71" />
  <use
     xlink:href="#source-735"
     id="use73" />
  <use
     xlink:href="#source-738"
     id="use75" />
  <use
     xlink:href="#source-741"
     id="use77" />
  <use
     xlink:href="#source-744"
     id="use79" />
  <metadata
     id="metadata258">
    <rdf:RDF>
      <cc:Work
         rdf:about="">
        <dc:creator>
          <cc:Agent>
            <dc:title>mechtifs@github.com</dc:title>
          </cc:Agent>
        </dc:creator>
        <dc:title>Adwaita Icon Template</dc:title>
        <cc:license
           rdf:resource="http://creativecommons.org/licenses/by-sa/4.0/" />
      </cc:Work>
      <cc:License
         rdf:about="http://creativecommons.org/licenses/by-sa/4.0/">
        <cc:permits
           rdf:resource="http://creativecommons.org/ns#Reproduction" />
        <cc:permits
           rdf:resource="http://creativecommons.org/ns#Distribution" />
        <cc:requires
           rdf:resource="http://creativecommons.org/ns#Notice" />
        <cc:requires
           rdf:resource="http://creativecommons.org/ns#Attribution" />
        <cc:permits
           rdf:resource="http://creativecommons.org/ns#DerivativeWorks" />
        <cc:requires
           rdf:resource="http://creativecommons.org/ns#ShareAlike" />
      </cc:License>
    </rdf:RDF>
  </metadata>
</svg>
