<?xml version="1.0" encoding="UTF-8" standalone="no"?>
<svg
   width="128"
   height="128"
   viewBox="0 0 128 128"
   version="1.1"
   id="svg25"
   sodipodi:docname="com.gitee.gmg137.NeteaseCloudMusicGtk4.svg"
   inkscape:version="1.2.1 (9c6d41e410, 2022-07-14)"
   xmlns:inkscape="http://www.inkscape.org/namespaces/inkscape"
   xmlns:sodipodi="http://sodipodi.sourceforge.net/DTD/sodipodi-0.dtd"
   xmlns="http://www.w3.org/2000/svg"
   xmlns:svg="http://www.w3.org/2000/svg"
   xmlns:rdf="http://www.w3.org/1999/02/22-rdf-syntax-ns#"
   xmlns:cc="http://creativecommons.org/ns#"
   xmlns:dc="http://purl.org/dc/elements/1.1/">
  <title
     id="title204">Adwaita Icon Template</title>
  <sodipodi:namedview
     id="namedview27"
     pagecolor="#505050"
     bordercolor="#eeeeee"
     borderopacity="1"
     inkscape:showpageshadow="0"
     inkscape:pageopacity="0"
     inkscape:pagecheckerboard="0"
     inkscape:deskcolor="#505050"
     showgrid="false"
     inkscape:zoom="1.84375"
     inkscape:cx="63.728814"
     inkscape:cy="64"
     inkscape:window-width="1792"
     inkscape:window-height="1051"
     inkscape:window-x="0"
     inkscape:window-y="0"
     inkscape:window-maximized="1"
     inkscape:current-layer="svg25" />
  <defs
     id="defs15">
    <linearGradient
       id="linear-pattern-0"
       gradientUnits="userSpaceOnUse"
       x1="48"
       y1="44"
       x2="464"
       y2="44"
       gradientTransform="matrix(0.25, 0, 0, 0.25, 0, 53)">
      <stop
         offset="0"
         stop-color="rgb(75.294119%, 10.980392%, 15.686275%)"
         stop-opacity="1"
         id="stop2" />
      <stop
         offset="0.0416667"
         stop-color="rgb(92.941177%, 20%, 23.137255%)"
         stop-opacity="1"
         id="stop4" />
      <stop
         offset="0.0833333"
         stop-color="rgb(75.294119%, 10.980392%, 15.686275%)"
         stop-opacity="1"
         id="stop6" />
      <stop
         offset="0.916667"
         stop-color="rgb(75.294119%, 10.980392%, 15.686275%)"
         stop-opacity="1"
         id="stop8" />
      <stop
         offset="0.958333"
         stop-color="rgb(92.941177%, 20%, 23.137255%)"
         stop-opacity="1"
         id="stop10" />
      <stop
         offset="1"
         stop-color="rgb(75.294119%, 10.980392%, 15.686275%)"
         stop-opacity="1"
         id="stop12" />
    </linearGradient>
  </defs>
  <path
     fill-rule="nonzero"
     fill="url(#linear-pattern-0)"
     d="M 20 32 L 108 32 C 112.417969 32 116 35.582031 116 40 L 116 108 C 116 112.417969 112.417969 116 108 116 L 20 116 C 15.582031 116 12 112.417969 12 108 L 12 40 C 12 35.582031 15.582031 32 20 32 Z M 20 32 "
     id="path17" />
  <path
     fill-rule="nonzero"
     fill="rgb(87.843138%, 10.588235%, 14.117648%)"
     fill-opacity="1"
     d="M 20 12 L 108 12 C 112.417969 12 116 15.582031 116 20 L 116 104 C 116 108.417969 112.417969 112 108 112 L 20 112 C 15.582031 112 12 108.417969 12 104 L 12 20 C 12 15.582031 15.582031 12 20 12 Z M 20 12 "
     id="path19" />
  <path
     fill-rule="evenodd"
     fill="rgb(75.294119%, 10.980392%, 15.686275%)"
     fill-opacity="1"
     d="M 70.382812 66.632812 C 70.382812 69.714844 67.867188 72.222656 64.777344 72.222656 C 61.347656 72.222656 59.457031 69.109375 59.152344 66.214844 C 58.566406 60.703125 61.457031 57.699219 63.984375 56.15625 C 65.011719 55.53125 66.136719 55.042969 67.3125 54.6875 C 67.3125 54.6875 70.039062 63.332031 70.25 64.675781 C 70.484375 66.152344 70.382812 66.632812 70.382812 66.632812 M 83.773438 49.292969 C 80.761719 47.339844 77.066406 46.265625 73.265625 46.074219 L 72.414062 42.96875 L 72.441406 43 C 72.40625 42.90625 72.378906 42.816406 72.347656 42.726562 L 72.097656 41.808594 C 71.519531 39.152344 72.570312 37.886719 73.113281 37.429688 C 73.207031 37.359375 73.300781 37.289062 73.402344 37.222656 C 75.882812 35.574219 79.414062 38.214844 79.613281 38.371094 C 81.179688 39.878906 84.046875 40.253906 85.597656 38.707031 C 87.160156 37.148438 86.792969 34.234375 85.230469 32.675781 C 82.792969 30.246094 75.320312 26.351562 68.960938 30.582031 C 63.246094 34.378906 63.132812 39.726562 64.074219 42.816406 L 65.214844 46.996094 C 63.300781 47.542969 61.472656 48.328125 59.796875 49.351562 C 53.542969 53.171875 50.402344 59.625 51.1875 67.050781 C 52 74.671875 57.707031 80.207031 64.777344 80.207031 C 72.28125 80.207031 78.390625 74.117188 78.390625 66.632812 C 78.289062 64.847656 78.308594 64.867188 78.074219 63.269531 C 77.835938 61.710938 75.527344 54.386719 75.527344 54.386719 C 76.945312 54.714844 78.269531 55.246094 79.414062 55.988281 C 92.320312 64.351562 86.945312 77.667969 86.707031 78.25 C 83.15625 86.757812 75.398438 91.835938 65.441406 92.183594 C 58.949219 92.414062 52.726562 89.992188 47.925781 85.367188 C 42.859375 80.492188 39.957031 73.664062 39.957031 66.632812 C 39.957031 56.042969 46.636719 46.425781 56.578125 42.707031 C 58.648438 41.933594 60.316406 39.726562 59.171875 37.164062 C 58.273438 35.148438 55.835938 34.457031 53.761719 35.234375 C 40.714844 40.113281 31.949219 52.734375 31.949219 66.632812 C 31.949219 75.820312 35.746094 84.742188 42.363281 91.113281 C 48.46875 96.988281 56.320312 100.183594 64.589844 100.179688 C 64.964844 100.179688 65.34375 100.175781 65.71875 100.164062 C 78.753906 99.707031 89.359375 92.660156 94.082031 81.355469 C 97.035156 74.492188 98.679688 58.953125 83.773438 49.292969 "
     id="path21" />
  <path
     fill-rule="evenodd"
     fill="rgb(96.078432%, 96.078432%, 96.078432%)"
     fill-opacity="1"
     d="M 70.382812 64.714844 C 70.382812 67.800781 67.867188 70.308594 64.777344 70.308594 C 61.347656 70.308594 59.457031 67.191406 59.152344 64.300781 C 58.566406 58.785156 61.457031 55.785156 63.984375 54.238281 C 65.011719 53.617188 66.136719 53.128906 67.3125 52.769531 C 67.3125 52.769531 70.039062 61.414062 70.25 62.757812 C 70.484375 64.238281 70.382812 64.714844 70.382812 64.714844 M 83.773438 47.375 C 80.761719 45.421875 77.066406 44.351562 73.265625 44.160156 L 72.414062 41.050781 L 72.441406 41.082031 C 72.40625 40.988281 72.378906 40.898438 72.347656 40.808594 L 72.097656 39.890625 C 71.519531 37.234375 72.570312 35.96875 73.113281 35.515625 C 73.207031 35.445312 73.300781 35.371094 73.402344 35.304688 C 75.882812 33.660156 79.414062 36.300781 79.613281 36.453125 C 81.179688 37.960938 84.046875 38.335938 85.597656 36.792969 C 87.160156 35.234375 86.792969 32.316406 85.230469 30.757812 C 82.792969 28.332031 75.320312 24.4375 68.960938 28.664062 C 63.246094 32.460938 63.132812 37.808594 64.074219 40.898438 L 65.214844 45.078125 C 63.300781 45.625 61.472656 46.410156 59.796875 47.433594 C 53.542969 51.253906 50.402344 57.707031 51.1875 65.136719 C 52 72.753906 57.707031 78.292969 64.777344 78.292969 C 72.28125 78.292969 78.390625 72.199219 78.390625 64.714844 C 78.289062 62.929688 78.308594 62.949219 78.074219 61.351562 C 77.835938 59.796875 75.527344 52.472656 75.527344 52.472656 C 76.945312 52.796875 78.269531 53.332031 79.414062 54.070312 C 92.320312 62.433594 86.945312 75.753906 86.707031 76.332031 C 83.15625 84.839844 75.398438 89.917969 65.441406 90.265625 C 58.949219 90.496094 52.726562 88.078125 47.925781 83.453125 C 42.859375 78.578125 39.957031 71.75 39.957031 64.714844 C 39.957031 54.128906 46.636719 44.507812 56.578125 40.789062 C 58.648438 40.015625 60.316406 37.808594 59.171875 35.246094 C 58.273438 33.230469 55.835938 32.539062 53.761719 33.316406 C 40.714844 38.195312 31.949219 50.816406 31.949219 64.714844 C 31.949219 73.902344 35.746094 82.824219 42.363281 89.195312 C 48.46875 95.070312 56.320312 98.269531 64.589844 98.265625 C 64.964844 98.265625 65.34375 98.261719 65.71875 98.246094 C 78.753906 97.789062 89.359375 90.746094 94.082031 79.441406 C 97.035156 72.574219 98.679688 57.035156 83.773438 47.375 "
     id="path23" />
  <metadata
     id="metadata202">
    <rdf:RDF>
      <cc:Work
         rdf:about="">
        <dc:creator>
          <cc:Agent>
            <dc:title>mechtifs@github.com</dc:title>
          </cc:Agent>
        </dc:creator>
        <dc:title>Adwaita Icon Template</dc:title>
        <cc:license
           rdf:resource="http://creativecommons.org/licenses/by-sa/4.0/" />
      </cc:Work>
      <cc:License
         rdf:about="http://creativecommons.org/licenses/by-sa/4.0/">
        <cc:permits
           rdf:resource="http://creativecommons.org/ns#Reproduction" />
        <cc:permits
           rdf:resource="http://creativecommons.org/ns#Distribution" />
        <cc:requires
           rdf:resource="http://creativecommons.org/ns#Notice" />
        <cc:requires
           rdf:resource="http://creativecommons.org/ns#Attribution" />
        <cc:permits
           rdf:resource="http://creativecommons.org/ns#DerivativeWorks" />
        <cc:requires
           rdf:resource="http://creativecommons.org/ns#ShareAlike" />
      </cc:License>
    </rdf:RDF>
  </metadata>
</svg>
