<?xml version="1.0" encoding="UTF-8" standalone="no"?>
<svg
   width="128"
   height="128"
   viewBox="0 0 128 128"
   version="1.1"
   id="svg16"
   sodipodi:docname="com.obsproject.Studio.svg"
   inkscape:version="1.2.1 (9c6d41e410, 2022-07-14)"
   xmlns:inkscape="http://www.inkscape.org/namespaces/inkscape"
   xmlns:sodipodi="http://sodipodi.sourceforge.net/DTD/sodipodi-0.dtd"
   xmlns="http://www.w3.org/2000/svg"
   xmlns:svg="http://www.w3.org/2000/svg"
   xmlns:rdf="http://www.w3.org/1999/02/22-rdf-syntax-ns#"
   xmlns:cc="http://creativecommons.org/ns#"
   xmlns:dc="http://purl.org/dc/elements/1.1/">
  <title
     id="title199">Adwaita Icon Template</title>
  <defs
     id="defs20" />
  <sodipodi:namedview
     id="namedview18"
     pagecolor="#505050"
     bordercolor="#eeeeee"
     borderopacity="1"
     inkscape:showpageshadow="0"
     inkscape:pageopacity="0"
     inkscape:pagecheckerboard="0"
     inkscape:deskcolor="#505050"
     showgrid="false"
     inkscape:zoom="1.84375"
     inkscape:cx="63.728814"
     inkscape:cy="64"
     inkscape:window-width="1792"
     inkscape:window-height="1051"
     inkscape:window-x="0"
     inkscape:window-y="0"
     inkscape:window-maximized="1"
     inkscape:current-layer="svg16" />
  <path
     fill-rule="nonzero"
     fill="rgb(75.294119%, 74.901962%, 73.725492%)"
     fill-opacity="1"
     d="M 124 65 C 124 98.136719 97.136719 125 64 125 C 30.863281 125 4 98.136719 4 65 C 4 31.863281 30.863281 5 64 5 C 97.136719 5 124 31.863281 124 65 Z M 124 65 "
     id="path2" />
  <path
     fill-rule="nonzero"
     fill="rgb(83.529413%, 82.745099%, 81.176472%)"
     fill-opacity="1"
     d="M 64 7 C 94.929688 7 120 32.070312 120 63 L 120 65 C 120 95.929688 94.929688 121 64 121 C 33.070312 121 8 95.929688 8 65 L 8 63 C 8 32.070312 33.070312 7 64 7 Z M 64 7 "
     id="path4" />
  <path
     fill-rule="nonzero"
     fill="rgb(96.470588%, 96.078432%, 95.686275%)"
     fill-opacity="1"
     d="M 124 63 C 124 96.136719 97.136719 123 64 123 C 30.863281 123 4 96.136719 4 63 C 4 29.863281 30.863281 3 64 3 C 97.136719 3 124 29.863281 124 63 Z M 124 63 "
     id="path6" />
  <path
     fill-rule="nonzero"
     fill="rgb(14.117648%, 12.156863%, 19.215687%)"
     fill-opacity="1"
     d="M 118 63 C 118 92.824219 93.824219 117 64 117 C 34.175781 117 10 92.824219 10 63 C 10 33.175781 34.175781 9 64 9 C 93.824219 9 118 33.175781 118 63 Z M 118 63 "
     id="path8" />
  <path
     fill-rule="nonzero"
     fill="rgb(0%, 0%, 0%)"
     fill-opacity="1"
     d="M 84.398438 48.285156 C 77.929688 59.546875 63.550781 63.441406 52.289062 56.972656 C 52.078125 56.855469 51.875 56.726562 51.675781 56.605469 C 49.703125 55.390625 47.910156 53.878906 46.375 52.144531 C 42.3125 47.5625 40.203125 41.589844 40.484375 35.488281 C 40.519531 34.804688 40.578125 34.117188 40.660156 33.445312 C 40.746094 32.773438 40.863281 32.113281 41.015625 31.449219 C 41.167969 30.777344 41.347656 30.105469 41.546875 29.445312 C 41.746094 28.804688 41.984375 28.167969 42.242188 27.542969 C 42.515625 26.894531 42.808594 26.257812 43.128906 25.644531 C 43.472656 24.992188 43.847656 24.355469 44.25 23.730469 C 44.617188 23.164062 45.019531 22.609375 45.429688 22.066406 C 45.890625 21.476562 46.375 20.921875 46.882812 20.378906 C 47.402344 19.835938 47.933594 19.316406 48.5 18.820312 C 49.066406 18.3125 49.667969 17.851562 50.28125 17.402344 C 50.601562 17.179688 50.921875 16.953125 51.25 16.742188 C 37.308594 23.871094 31.59375 40.824219 38.382812 54.941406 C 38.441406 55.070312 38.511719 55.214844 38.585938 55.34375 C 38.621094 55.402344 38.644531 55.460938 38.679688 55.519531 C 38.691406 55.554688 38.714844 55.589844 38.738281 55.628906 C 38.773438 55.675781 38.785156 55.664062 38.84375 55.664062 C 39.152344 55.664062 39.457031 55.664062 39.753906 55.664062 C 40.320312 55.675781 40.875 55.710938 41.441406 55.757812 C 52.101562 56.761719 60.742188 64.835938 62.476562 75.398438 C 62.855469 77.75 62.878906 80.144531 62.546875 82.507812 C 61.921875 86.957031 60.035156 91.125 57.09375 94.535156 C 55.417969 96.484375 53.433594 98.148438 51.214844 99.46875 C 46.800781 102.078125 41.652344 103.175781 36.554688 102.597656 C 35.632812 102.492188 34.710938 102.339844 33.816406 102.125 C 33.226562 101.984375 32.644531 101.832031 32.078125 101.640625 C 34.652344 102.789062 37.378906 103.542969 40.164062 103.886719 C 42.773438 104.203125 45.40625 104.179688 48.003906 103.789062 C 52.644531 103.09375 57.058594 101.277344 60.835938 98.492188 C 63.609375 96.449219 65.996094 93.921875 67.882812 91.042969 C 67.964844 90.910156 68.050781 90.792969 68.132812 90.664062 C 68.167969 90.617188 68.238281 90.535156 68.226562 90.488281 C 68.191406 90.402344 68.15625 90.332031 68.097656 90.261719 C 67.941406 89.96875 67.789062 89.671875 67.648438 89.363281 C 67.351562 88.761719 67.09375 88.136719 66.855469 87.511719 C 66.371094 86.238281 66.007812 84.914062 65.757812 83.570312 C 65.214844 80.675781 65.214844 77.726562 65.757812 74.832031 C 66.21875 72.378906 67.070312 70.015625 68.285156 67.832031 C 72.394531 60.371094 80.207031 55.722656 88.71875 55.664062 C 89.296875 55.664062 89.875 55.675781 90.453125 55.710938 C 91.007812 55.746094 91.5625 55.804688 92.117188 55.875 C 92.660156 55.945312 93.203125 56.039062 93.746094 56.160156 C 94.277344 56.265625 94.796875 56.394531 95.328125 56.546875 C 95.835938 56.691406 96.34375 56.855469 96.839844 57.03125 C 97.347656 57.207031 97.84375 57.410156 98.339844 57.632812 C 98.847656 57.859375 99.332031 58.09375 99.828125 58.34375 C 100.3125 58.601562 100.785156 58.875 101.253906 59.15625 C 101.691406 59.429688 102.128906 59.710938 102.542969 60.019531 C 102.980469 60.324219 103.390625 60.65625 103.804688 60.988281 C 104.230469 61.328125 104.644531 61.695312 105.046875 62.074219 C 105.46875 62.472656 105.882812 62.886719 106.273438 63.324219 C 106.664062 63.75 107.039062 64.199219 107.40625 64.65625 C 107.808594 65.164062 108.183594 65.695312 108.550781 66.238281 C 108.917969 66.792969 109.257812 67.371094 109.578125 67.953125 C 110.027344 68.765625 110.417969 69.617188 110.769531 70.476562 C 111.148438 71.421875 111.457031 72.378906 111.714844 73.359375 C 111.03125 68.128906 108.917969 63.195312 105.613281 59.085938 C 103.179688 56.0625 100.167969 53.550781 96.757812 51.707031 C 93.253906 49.820312 89.402344 48.6875 85.4375 48.367188 C 85.070312 48.320312 84.742188 48.296875 84.398438 48.285156 Z M 84.398438 48.285156 "
     id="path10" />
  <path
     fill-rule="nonzero"
     fill="rgb(0%, 0%, 0%)"
     fill-opacity="1"
     d="M 64 9 C 34.175781 9 10 33.175781 10 63 C 10.007812 63.390625 10.023438 63.78125 10.042969 64.171875 C 10.496094 34.6875 34.511719 11.019531 64 11 C 93.355469 11.015625 117.320312 34.480469 117.957031 63.828125 C 117.972656 63.550781 117.988281 63.277344 118 63 C 118 33.175781 93.824219 9 64 9 Z M 64 9 "
     id="path12" />
  <path
     fill-rule="nonzero"
     fill="rgb(96.470588%, 96.078432%, 95.686275%)"
     fill-opacity="1"
     d="M 84.398438 46.285156 C 77.929688 57.546875 63.550781 61.441406 52.289062 54.972656 C 52.078125 54.855469 51.875 54.726562 51.675781 54.605469 C 49.703125 53.390625 47.910156 51.878906 46.375 50.144531 C 42.3125 45.5625 40.203125 39.589844 40.484375 33.488281 C 40.519531 32.804688 40.578125 32.117188 40.660156 31.445312 C 40.746094 30.773438 40.863281 30.113281 41.015625 29.449219 C 41.167969 28.777344 41.347656 28.105469 41.546875 27.445312 C 41.746094 26.804688 41.984375 26.167969 42.242188 25.542969 C 42.515625 24.894531 42.808594 24.257812 43.128906 23.644531 C 43.472656 22.992188 43.847656 22.355469 44.25 21.730469 C 44.617188 21.164062 45.019531 20.609375 45.429688 20.066406 C 45.890625 19.476562 46.375 18.921875 46.882812 18.378906 C 47.402344 17.835938 47.933594 17.316406 48.5 16.820312 C 49.066406 16.3125 49.667969 15.851562 50.28125 15.402344 C 50.601562 15.179688 50.921875 14.953125 51.25 14.742188 C 37.308594 21.871094 31.59375 38.824219 38.382812 52.941406 C 38.441406 53.070312 38.511719 53.214844 38.585938 53.34375 C 38.621094 53.402344 38.644531 53.460938 38.679688 53.519531 C 38.691406 53.554688 38.714844 53.589844 38.738281 53.628906 C 38.773438 53.675781 38.785156 53.664062 38.84375 53.664062 C 39.152344 53.664062 39.457031 53.664062 39.753906 53.664062 C 40.320312 53.675781 40.875 53.710938 41.441406 53.757812 C 52.101562 54.761719 60.742188 62.835938 62.476562 73.398438 C 62.855469 75.75 62.878906 78.144531 62.546875 80.507812 C 61.921875 84.957031 60.035156 89.125 57.09375 92.535156 C 55.417969 94.484375 53.433594 96.148438 51.214844 97.46875 C 46.800781 100.078125 41.652344 101.175781 36.554688 100.597656 C 35.632812 100.492188 34.710938 100.339844 33.816406 100.125 C 33.226562 99.984375 32.644531 99.832031 32.078125 99.640625 C 34.652344 100.789062 37.378906 101.542969 40.164062 101.886719 C 42.773438 102.203125 45.40625 102.179688 48.003906 101.789062 C 52.644531 101.09375 57.058594 99.277344 60.835938 96.492188 C 63.609375 94.449219 65.996094 91.921875 67.882812 89.042969 C 67.964844 88.910156 68.050781 88.792969 68.132812 88.664062 C 68.167969 88.617188 68.238281 88.535156 68.226562 88.488281 C 68.191406 88.402344 68.15625 88.332031 68.097656 88.261719 C 67.941406 87.96875 67.789062 87.671875 67.648438 87.363281 C 67.351562 86.761719 67.09375 86.136719 66.855469 85.511719 C 66.371094 84.238281 66.007812 82.914062 65.757812 81.570312 C 65.214844 78.675781 65.214844 75.726562 65.757812 72.832031 C 66.21875 70.378906 67.070312 68.015625 68.285156 65.832031 C 72.394531 58.371094 80.207031 53.722656 88.71875 53.664062 C 89.296875 53.664062 89.875 53.675781 90.453125 53.710938 C 91.007812 53.746094 91.5625 53.804688 92.117188 53.875 C 92.660156 53.945312 93.203125 54.039062 93.746094 54.160156 C 94.277344 54.265625 94.796875 54.394531 95.328125 54.546875 C 95.835938 54.691406 96.34375 54.855469 96.839844 55.03125 C 97.347656 55.207031 97.84375 55.410156 98.339844 55.632812 C 98.847656 55.859375 99.332031 56.09375 99.828125 56.34375 C 100.3125 56.601562 100.785156 56.875 101.253906 57.15625 C 101.691406 57.429688 102.128906 57.710938 102.542969 58.019531 C 102.980469 58.324219 103.390625 58.65625 103.804688 58.988281 C 104.230469 59.328125 104.644531 59.695312 105.046875 60.074219 C 105.46875 60.472656 105.882812 60.886719 106.273438 61.324219 C 106.664062 61.75 107.039062 62.199219 107.40625 62.65625 C 107.808594 63.164062 108.183594 63.695312 108.550781 64.238281 C 108.917969 64.792969 109.257812 65.371094 109.578125 65.953125 C 110.027344 66.765625 110.417969 67.617188 110.769531 68.476562 C 111.148438 69.421875 111.457031 70.378906 111.714844 71.359375 C 111.03125 66.128906 108.917969 61.195312 105.613281 57.085938 C 103.179688 54.0625 100.167969 51.550781 96.757812 49.707031 C 93.253906 47.820312 89.402344 46.6875 85.4375 46.367188 C 85.070312 46.320312 84.742188 46.296875 84.398438 46.285156 Z M 84.398438 46.285156 "
     id="path14" />
  <metadata
     id="metadata197">
    <rdf:RDF>
      <cc:Work
         rdf:about="">
        <dc:title>Adwaita Icon Template</dc:title>
        <dc:creator>
          <cc:Agent>
            <dc:title>mechtifs@github.com</dc:title>
          </cc:Agent>
        </dc:creator>
        <cc:license
           rdf:resource="http://creativecommons.org/licenses/by-sa/4.0/" />
      </cc:Work>
      <cc:License
         rdf:about="http://creativecommons.org/licenses/by-sa/4.0/">
        <cc:permits
           rdf:resource="http://creativecommons.org/ns#Reproduction" />
        <cc:permits
           rdf:resource="http://creativecommons.org/ns#Distribution" />
        <cc:requires
           rdf:resource="http://creativecommons.org/ns#Notice" />
        <cc:requires
           rdf:resource="http://creativecommons.org/ns#Attribution" />
        <cc:permits
           rdf:resource="http://creativecommons.org/ns#DerivativeWorks" />
        <cc:requires
           rdf:resource="http://creativecommons.org/ns#ShareAlike" />
      </cc:License>
    </rdf:RDF>
  </metadata>
</svg>
