<?xml version="1.0" encoding="UTF-8" standalone="no"?>
<svg
   width="128"
   height="128"
   viewBox="0 0 128 128"
   version="1.1"
   id="svg12"
   sodipodi:docname="genymotion.svg"
   inkscape:version="1.2.1 (9c6d41e410, 2022-07-14, custom)"
   xml:space="preserve"
   xmlns:inkscape="http://www.inkscape.org/namespaces/inkscape"
   xmlns:sodipodi="http://sodipodi.sourceforge.net/DTD/sodipodi-0.dtd"
   xmlns="http://www.w3.org/2000/svg"
   xmlns:svg="http://www.w3.org/2000/svg"
   xmlns:rdf="http://www.w3.org/1999/02/22-rdf-syntax-ns#"
   xmlns:cc="http://creativecommons.org/ns#"
   xmlns:dc="http://purl.org/dc/elements/1.1/"><title
     id="title193">Adwaita Icon Template</title><defs
     id="defs16" /><sodipodi:namedview
     id="namedview14"
     pagecolor="#505050"
     bordercolor="#eeeeee"
     borderopacity="1"
     inkscape:showpageshadow="0"
     inkscape:pageopacity="0"
     inkscape:pagecheckerboard="0"
     inkscape:deskcolor="#505050"
     showgrid="false"
     inkscape:zoom="1.84375"
     inkscape:cx="65.084746"
     inkscape:cy="1.6271186"
     inkscape:window-width="1792"
     inkscape:window-height="1051"
     inkscape:window-x="0"
     inkscape:window-y="0"
     inkscape:window-maximized="1"
     inkscape:current-layer="svg12" /><path
     fill-rule="nonzero"
     fill="rgb(75.294119%, 74.901962%, 73.725492%)"
     fill-opacity="1"
     d="M 124 65 C 124 98.136719 97.136719 125 64 125 C 30.863281 125 4 98.136719 4 65 C 4 31.863281 30.863281 5 64 5 C 97.136719 5 124 31.863281 124 65 Z M 124 65 "
     id="path2"
     style="fill:#b4124a;fill-opacity:1" /><path
     fill-rule="nonzero"
     fill="rgb(83.529413%, 82.745099%, 81.176472%)"
     fill-opacity="1"
     d="M 64 7 C 94.929688 7 120 32.070312 120 63 L 120 65 C 120 95.929688 94.929688 121 64 121 C 33.070312 121 8 95.929688 8 65 L 8 63 C 8 32.070312 33.070312 7 64 7 Z M 64 7 "
     id="path4" /><path
     fill-rule="nonzero"
     fill="rgb(96.470588%, 96.078432%, 95.686275%)"
     fill-opacity="1"
     d="M 124 63 C 124 96.136719 97.136719 123 64 123 C 30.863281 123 4 96.136719 4 63 C 4 29.863281 30.863281 3 64 3 C 97.136719 3 124 29.863281 124 63 Z M 124 63 "
     id="path6"
     style="fill:#e61a5f;fill-opacity:1" /><circle
     style="fill:none;stroke:#b4124a;stroke-width:6;stroke-dasharray:none;stroke-opacity:1"
     id="circle1664"
     cx="86.536217"
     cy="63.078491"
     r="21.824352" /><metadata
     id="metadata191"><rdf:RDF><cc:Work
         rdf:about=""><dc:creator><cc:Agent><dc:title>mechtifs@github.com</dc:title></cc:Agent></dc:creator><dc:title>Adwaita Icon Template</dc:title><cc:license
           rdf:resource="http://creativecommons.org/licenses/by-sa/4.0/" /></cc:Work><cc:License
         rdf:about="http://creativecommons.org/licenses/by-sa/4.0/"><cc:permits
           rdf:resource="http://creativecommons.org/ns#Reproduction" /><cc:permits
           rdf:resource="http://creativecommons.org/ns#Distribution" /><cc:requires
           rdf:resource="http://creativecommons.org/ns#Notice" /><cc:requires
           rdf:resource="http://creativecommons.org/ns#Attribution" /><cc:permits
           rdf:resource="http://creativecommons.org/ns#DerivativeWorks" /><cc:requires
           rdf:resource="http://creativecommons.org/ns#ShareAlike" /></cc:License></rdf:RDF></metadata><circle
     style="fill:none;stroke:#f6f5f4;stroke-width:6;stroke-dasharray:none;stroke-opacity:1"
     id="path357"
     cx="86.536217"
     cy="61.078495"
     r="21.824352" /><circle
     style="fill:none;stroke:#b4124a;stroke-width:6;stroke-dasharray:none;stroke-opacity:1"
     id="circle1666"
     cx="34.945541"
     cy="67.991211"
     r="16.937778" /><circle
     style="fill:none;stroke:#f6f5f4;stroke-width:6;stroke-dasharray:none;stroke-opacity:1"
     id="circle1069"
     cx="34.945541"
     cy="65.991211"
     r="16.937778" /></svg>
