<?xml version="1.0" encoding="UTF-8" standalone="no"?>
<svg
   width="128"
   height="128"
   viewBox="0 0 128 128"
   version="1.1"
   id="svg101"
   sodipodi:docname="gparted.svg"
   inkscape:version="1.2.1 (9c6d41e410, 2022-07-14)"
   xmlns:inkscape="http://www.inkscape.org/namespaces/inkscape"
   xmlns:sodipodi="http://sodipodi.sourceforge.net/DTD/sodipodi-0.dtd"
   xmlns="http://www.w3.org/2000/svg"
   xmlns:svg="http://www.w3.org/2000/svg"
   xmlns:rdf="http://www.w3.org/1999/02/22-rdf-syntax-ns#"
   xmlns:cc="http://creativecommons.org/ns#"
   xmlns:dc="http://purl.org/dc/elements/1.1/">
  <title
     id="title280">Adwaita Icon Template</title>
  <sodipodi:namedview
     id="namedview103"
     pagecolor="#505050"
     bordercolor="#eeeeee"
     borderopacity="1"
     inkscape:showpageshadow="0"
     inkscape:pageopacity="0"
     inkscape:pagecheckerboard="0"
     inkscape:deskcolor="#505050"
     showgrid="false"
     inkscape:zoom="1.84375"
     inkscape:cx="63.728814"
     inkscape:cy="64"
     inkscape:window-width="1792"
     inkscape:window-height="1051"
     inkscape:window-x="0"
     inkscape:window-y="0"
     inkscape:window-maximized="1"
     inkscape:current-layer="svg101" />
  <defs
     id="defs37">
    <linearGradient
       id="linear-pattern-0"
       gradientUnits="userSpaceOnUse"
       x1="12"
       y1="124"
       x2="116"
       y2="124"
       gradientTransform="matrix(0.866063, 0, 0, 1, 8.57197, 0)">
      <stop
         offset="0"
         stop-color="rgb(23.921569%, 21.960784%, 27.450982%)"
         stop-opacity="1"
         id="stop2" />
      <stop
         offset="0.0384615"
         stop-color="rgb(36.862746%, 36.078432%, 39.215687%)"
         stop-opacity="1"
         id="stop4" />
      <stop
         offset="0.0769231"
         stop-color="rgb(23.921569%, 21.960784%, 27.450982%)"
         stop-opacity="1"
         id="stop6" />
      <stop
         offset="0.921478"
         stop-color="rgb(23.921569%, 21.960784%, 27.450982%)"
         stop-opacity="1"
         id="stop8" />
      <stop
         offset="0.961538"
         stop-color="rgb(36.862746%, 36.078432%, 39.215687%)"
         stop-opacity="1"
         id="stop10" />
      <stop
         offset="1"
         stop-color="rgb(23.921569%, 21.960784%, 27.450982%)"
         stop-opacity="1"
         id="stop12" />
    </linearGradient>
    <linearGradient
       id="linear-pattern-1"
       gradientUnits="userSpaceOnUse"
       x1="12"
       y1="124"
       x2="116"
       y2="124"
       gradientTransform="matrix(1, 0, 0, 0.961538, 0, 0.461538)">
      <stop
         offset="0"
         stop-color="rgb(36.862746%, 36.078432%, 39.215687%)"
         stop-opacity="1"
         id="stop15" />
      <stop
         offset="0.0384615"
         stop-color="rgb(46.666667%, 46.27451%, 48.235294%)"
         stop-opacity="1"
         id="stop17" />
      <stop
         offset="0.0769231"
         stop-color="rgb(36.862746%, 36.078432%, 39.215687%)"
         stop-opacity="1"
         id="stop19" />
      <stop
         offset="0.921478"
         stop-color="rgb(36.862746%, 36.078432%, 39.215687%)"
         stop-opacity="1"
         id="stop21" />
      <stop
         offset="0.961538"
         stop-color="rgb(46.666667%, 46.27451%, 48.235294%)"
         stop-opacity="1"
         id="stop23" />
      <stop
         offset="1"
         stop-color="rgb(36.862746%, 36.078432%, 39.215687%)"
         stop-opacity="1"
         id="stop25" />
    </linearGradient>
    <linearGradient
       id="linear-pattern-2"
       gradientUnits="userSpaceOnUse"
       x1="18.000002"
       y1="24"
       x2="110"
       y2="24">
      <stop
         offset="0"
         stop-color="rgb(36.862746%, 36.078432%, 39.215687%)"
         stop-opacity="1"
         id="stop28" />
      <stop
         offset="0.0434163"
         stop-color="rgb(46.666667%, 46.27451%, 48.235294%)"
         stop-opacity="1"
         id="stop30" />
      <stop
         offset="0.955153"
         stop-color="rgb(46.666667%, 46.27451%, 48.235294%)"
         stop-opacity="1"
         id="stop32" />
      <stop
         offset="1"
         stop-color="rgb(36.862746%, 36.078432%, 39.215687%)"
         stop-opacity="1"
         id="stop34" />
    </linearGradient>
  </defs>
  <path
     fill-rule="nonzero"
     fill="url(#linear-pattern-0)"
     d="M 25.894531 12 L 102.105469 12 C 105.933594 12 109.035156 15.582031 109.035156 20 L 109.035156 108 C 109.035156 112.417969 105.933594 116 102.105469 116 L 25.894531 116 C 22.066406 116 18.964844 112.417969 18.964844 108 L 18.964844 20 C 18.964844 15.582031 22.066406 12 25.894531 12 Z M 25.894531 12 "
     id="path39" />
  <path
     fill-rule="nonzero"
     fill="url(#linear-pattern-1)"
     d="M 20 12 L 108 12 C 112.417969 12 116 15.445312 116 19.691406 L 116 104.308594 C 116 108.554688 112.417969 112 108 112 L 20 112 C 15.582031 112 12 108.554688 12 104.308594 L 12 19.691406 C 12 15.445312 15.582031 12 20 12 Z M 20 12 "
     id="path41" />
  <path
     fill-rule="nonzero"
     fill="url(#linear-pattern-2)"
     d="M 20 18 L 108 18 C 109.105469 18 110 18.894531 110 20 L 110 90.121094 C 110 91.226562 109.105469 92.121094 108 92.121094 L 20 92.121094 C 18.894531 92.121094 18 91.226562 18 90.121094 L 18 20 C 18 18.894531 18.894531 18 20 18 Z M 20 18 "
     id="path43" />
  <path
     fill-rule="nonzero"
     fill="rgb(46.666667%, 46.27451%, 48.235294%)"
     fill-opacity="1"
     d="M 25.300781 39.820312 L 102.699219 39.820312 C 103.667969 39.820312 104.457031 40.453125 104.457031 41.234375 L 104.457031 90.710938 C 104.457031 91.492188 103.667969 92.121094 102.699219 92.121094 L 25.300781 92.121094 C 24.332031 92.121094 23.542969 91.492188 23.542969 90.710938 L 23.542969 41.234375 C 23.542969 40.453125 24.332031 39.820312 25.300781 39.820312 Z M 25.300781 39.820312 "
     id="path45" />
  <path
     fill-rule="nonzero"
     fill="rgb(75.294119%, 74.901962%, 73.725492%)"
     fill-opacity="1"
     d="M 104.457031 58.03125 C 104.457031 76.035156 86.34375 90.628906 64 90.628906 C 41.65625 90.628906 23.542969 76.035156 23.542969 58.03125 C 23.542969 40.03125 41.65625 25.4375 64 25.4375 C 86.34375 25.4375 104.457031 40.03125 104.457031 58.03125 Z M 104.457031 58.03125 "
     id="path47" />
  <path
     fill-rule="nonzero"
     fill="rgb(75.294119%, 74.901962%, 73.725492%)"
     fill-opacity="1"
     d="M 25.71875 79.730469 L 18.652344 80.296875 L 18.652344 87.984375 L 20.363281 87.050781 C 23.777344 87.515625 27.105469 89.289062 29.089844 92.121094 L 29.089844 92.113281 L 35.136719 92.125 C 35.28125 91.53125 35.359375 90.925781 35.367188 90.320312 L 35.367188 83.714844 L 32.625 84.234375 C 31.613281 83.296875 30.378906 82.609375 29.03125 82.234375 C 29.027344 82.234375 29.027344 82.234375 29.027344 82.234375 Z M 25.71875 79.730469 "
     id="path49" />
  <path
     fill-rule="nonzero"
     fill="rgb(60.392159%, 60.000002%, 58.823532%)"
     fill-opacity="1"
     d="M 20 12 C 15.582031 12 12 15.582031 12 20 L 12 90.125 C 12 94.539062 15.582031 98.125 20 98.125 L 108 98.125 C 112.417969 98.125 116 94.539062 116 90.125 L 116 20 C 116 15.582031 112.417969 12 108 12 Z M 42.351562 18 L 85.46875 18 L 110 37.75 L 110 55.0625 C 110 75.53125 89.40625 92.125 64 92.125 L 29.089844 92.125 C 29.089844 86 24.125 82.277344 18 82.277344 L 18 37.75 Z M 42.351562 18 "
     id="path51" />
  <path
     fill-rule="nonzero"
     fill="rgb(87.058824%, 86.666667%, 85.490197%)"
     fill-opacity="1"
     d="M 64 24.464844 C 41.65625 24.464844 23.542969 39.058594 23.542969 57.0625 C 23.542969 75.0625 41.65625 89.65625 64 89.65625 C 86.34375 89.65625 104.457031 75.0625 104.457031 57.0625 C 104.457031 39.058594 86.34375 24.464844 64 24.464844 Z M 64 46.46875 C 71.261719 46.46875 77.148438 51.210938 77.148438 57.0625 C 77.148438 62.910156 71.261719 67.652344 64 67.65625 C 56.738281 67.65625 50.851562 62.910156 50.855469 57.0625 C 50.855469 51.210938 56.742188 46.46875 64 46.46875 Z M 64 46.46875 "
     id="path53" />
  <path
     fill-rule="nonzero"
     fill="rgb(75.294119%, 74.901962%, 73.725492%)"
     fill-opacity="1"
     d="M 104.457031 56.03125 C 104.457031 74.035156 86.34375 88.628906 64 88.628906 C 41.65625 88.628906 23.542969 74.035156 23.542969 56.03125 C 23.542969 38.03125 41.65625 23.4375 64 23.4375 C 86.34375 23.4375 104.457031 38.03125 104.457031 56.03125 Z M 104.457031 56.03125 "
     id="path55" />
  <path
     fill-rule="nonzero"
     fill="rgb(87.058824%, 86.666667%, 85.490197%)"
     fill-opacity="1"
     d="M 64 22.464844 C 50.140625 22.46875 37.25 28.191406 29.835938 37.628906 L 98.167969 72.488281 C 102.269531 67.277344 104.453125 61.234375 104.457031 55.0625 C 104.457031 37.058594 86.34375 22.464844 64 22.464844 Z M 64 22.464844 "
     id="path57" />
  <path
     fill-rule="nonzero"
     fill="rgb(60.392159%, 60.000002%, 58.823532%)"
     fill-opacity="1"
     d="M 77.148438 55.0625 C 77.148438 60.910156 71.261719 65.652344 64 65.652344 C 56.738281 65.652344 50.855469 60.910156 50.855469 55.0625 C 50.855469 49.210938 56.738281 44.46875 64 44.46875 C 71.261719 44.46875 77.148438 49.210938 77.148438 55.0625 Z M 77.148438 55.0625 "
     id="path59" />
  <path
     fill-rule="nonzero"
     fill="rgb(96.470588%, 96.078432%, 95.686275%)"
     fill-opacity="1"
     d="M 77.148438 57.0625 C 77.148438 62.910156 71.261719 67.652344 64 67.652344 C 56.738281 67.652344 50.855469 62.910156 50.855469 57.0625 C 50.855469 51.210938 56.738281 46.46875 64 46.46875 C 71.261719 46.46875 77.148438 51.210938 77.148438 57.0625 Z M 77.148438 57.0625 "
     id="path61" />
  <path
     fill-rule="nonzero"
     fill="rgb(87.058824%, 86.666667%, 85.490197%)"
     fill-opacity="1"
     d="M 64 22.464844 C 41.65625 22.464844 23.542969 37.058594 23.542969 55.0625 C 23.542969 73.0625 41.65625 87.65625 64 87.65625 C 86.34375 87.65625 104.457031 73.0625 104.457031 55.0625 C 104.457031 37.058594 86.34375 22.464844 64 22.464844 Z M 64 44.46875 C 71.261719 44.46875 77.148438 49.210938 77.148438 55.0625 C 77.148438 60.910156 71.261719 65.652344 64 65.65625 C 56.738281 65.65625 50.851562 60.910156 50.855469 55.0625 C 50.855469 49.210938 56.742188 44.46875 64 44.46875 Z M 64 44.46875 "
     id="path63" />
  <path
     fill-rule="nonzero"
     fill="rgb(14.901961%, 63.529414%, 41.176471%)"
     fill-opacity="1"
     d="M 64 22.464844 C 51.542969 22.488281 39.792969 27.132812 32.152344 35.058594 L 29.835938 34.621094 L 29.835938 35.75 L 30.769531 36.589844 C 30.453125 36.929688 30.140625 37.277344 29.835938 37.628906 L 52.898438 49.394531 C 55.308594 46.328125 59.496094 44.46875 64 44.46875 C 71.261719 44.46875 77.148438 49.210938 77.148438 55.0625 C 77.144531 57.066406 76.4375 59.03125 75.105469 60.722656 L 98.167969 72.488281 C 102.269531 67.277344 104.453125 61.234375 104.457031 55.0625 C 104.460938 37.058594 86.347656 22.464844 64 22.464844 Z M 64 22.464844 "
     id="path65" />
  <path
     fill-rule="nonzero"
     fill="rgb(77.64706%, 27.450982%, 0%)"
     fill-opacity="1"
     d="M 29.835938 37.628906 C 25.730469 42.84375 23.550781 48.886719 23.542969 55.0625 L 50.855469 55.0625 C 50.855469 53.054688 51.566406 51.089844 52.902344 49.394531 L 52.894531 49.390625 L 52.898438 47.519531 L 51.203125 48.53125 Z M 29.835938 37.628906 "
     id="path67" />
  <path
     fill-rule="nonzero"
     fill="rgb(87.058824%, 86.666667%, 85.490197%)"
     fill-opacity="1"
     d="M 26.625 75.300781 C 23.175781 75.308594 20.050781 77.265625 18.652344 80.296875 C 19.105469 80.316406 19.5625 80.34375 20.015625 80.402344 C 24.152344 80.851562 28.230469 83.238281 30.007812 87.109375 C 30.617188 88.332031 30.886719 89.644531 31.015625 90.984375 C 33.710938 89.476562 35.367188 86.707031 35.367188 83.714844 C 35.367188 79.066406 31.453125 75.300781 26.625 75.300781 Z M 26.625 75.300781 "
     id="path69" />
  <path
     fill-rule="nonzero"
     fill="rgb(60.392159%, 60.000002%, 58.823532%)"
     fill-opacity="1"
     d="M 76.425781 102.132812 L 101.210938 102.132812 C 103.003906 102.132812 104.457031 103.585938 104.457031 105.378906 C 104.457031 107.171875 103.003906 108.625 101.210938 108.625 L 76.425781 108.625 C 74.632812 108.625 73.175781 107.171875 73.175781 105.378906 C 73.175781 103.585938 74.632812 102.132812 76.425781 102.132812 Z M 76.425781 102.132812 "
     id="path71" />
  <path
     fill-rule="nonzero"
     fill="rgb(23.921569%, 21.960784%, 27.450982%)"
     fill-opacity="1"
     d="M 76.199219 104.65625 L 78.097656 104.65625 L 78.097656 106.101562 L 76.199219 106.101562 Z M 76.199219 104.65625 "
     id="path73" />
  <path
     fill-rule="nonzero"
     fill="rgb(23.921569%, 21.960784%, 27.450982%)"
     fill-opacity="1"
     d="M 82.746094 104.65625 L 84.640625 104.65625 L 84.640625 106.101562 L 82.746094 106.101562 Z M 82.746094 104.65625 "
     id="path75" />
  <path
     fill-rule="nonzero"
     fill="rgb(23.921569%, 21.960784%, 27.450982%)"
     fill-opacity="1"
     d="M 86.746094 104.65625 L 88.640625 104.65625 L 88.640625 106.101562 L 86.746094 106.101562 Z M 86.746094 104.65625 "
     id="path77" />
  <path
     fill-rule="nonzero"
     fill="rgb(23.921569%, 21.960784%, 27.450982%)"
     fill-opacity="1"
     d="M 90.746094 104.65625 L 92.640625 104.65625 L 92.640625 106.101562 L 90.746094 106.101562 Z M 90.746094 104.65625 "
     id="path79" />
  <path
     fill-rule="nonzero"
     fill="rgb(23.921569%, 21.960784%, 27.450982%)"
     fill-opacity="1"
     d="M 96.859375 104.65625 L 100.859375 104.65625 C 101.257812 104.65625 101.582031 104.980469 101.582031 105.378906 C 101.582031 105.777344 101.257812 106.101562 100.859375 106.101562 L 96.859375 106.101562 C 96.460938 106.101562 96.136719 105.777344 96.136719 105.378906 C 96.136719 104.980469 96.460938 104.65625 96.859375 104.65625 Z M 96.859375 104.65625 "
     id="path81" />
  <path
     fill-rule="nonzero"
     fill="rgb(20%, 81.960785%, 47.843137%)"
     fill-opacity="1"
     d="M 64 19.453125 C 50.140625 19.460938 37.246094 25.183594 29.835938 34.621094 L 52.898438 46.386719 C 55.308594 43.320312 59.496094 41.460938 64 41.457031 C 71.261719 41.460938 77.148438 46.203125 77.148438 52.050781 C 77.148438 54.058594 76.4375 56.023438 75.105469 57.71875 L 98.167969 69.484375 C 102.269531 64.269531 104.453125 58.226562 104.457031 52.050781 C 104.460938 34.050781 86.347656 19.457031 64 19.453125 Z M 64 19.453125 "
     id="path83" />
  <path
     fill-rule="nonzero"
     fill="rgb(64.705884%, 11.372549%, 17.647059%)"
     fill-opacity="1"
     d="M 75.105469 60.722656 C 72.695312 63.792969 68.507812 65.652344 64 65.65625 L 64 87.65625 C 77.863281 87.652344 90.753906 81.929688 98.167969 72.492188 L 98.167969 71.527344 L 97.484375 72.140625 Z M 75.105469 60.722656 "
     id="path85" />
  <path
     fill-rule="nonzero"
     fill="rgb(100%, 47.058824%, 0%)"
     fill-opacity="1"
     d="M 29.835938 35.75 C 25.730469 40.964844 23.550781 47.011719 23.542969 53.183594 L 50.855469 53.183594 C 50.855469 51.175781 51.566406 49.214844 52.898438 47.519531 Z M 29.835938 35.75 "
     id="path87" />
  <path
     fill-rule="nonzero"
     fill="rgb(87.843138%, 10.588235%, 14.117648%)"
     fill-opacity="1"
     d="M 75.105469 59.761719 C 72.695312 62.828125 68.503906 64.6875 64 64.6875 L 64 86.691406 C 77.863281 86.6875 90.753906 80.964844 98.167969 71.527344 Z M 75.105469 59.761719 "
     id="path89" />
  <path
     fill-rule="nonzero"
     fill="rgb(14.901961%, 63.529414%, 41.176471%)"
     fill-opacity="1"
     d="M 75.105469 57.71875 L 75.105469 59.761719 L 76.367188 60.40625 L 77.195312 58.785156 Z M 75.105469 57.71875 "
     id="path91" />
  <path
     fill-rule="nonzero"
     fill="rgb(60.392159%, 60.000002%, 58.823532%)"
     fill-opacity="1"
     d="M 71.378906 57.460938 C 71.378906 60.742188 68.074219 63.402344 64 63.402344 C 59.925781 63.402344 56.625 60.742188 56.625 57.460938 C 56.625 54.179688 59.925781 51.515625 64 51.515625 C 68.074219 51.515625 71.378906 54.179688 71.378906 57.460938 Z M 71.378906 57.460938 "
     id="path93" />
  <path
     fill-rule="nonzero"
     fill="rgb(60.392159%, 60.000002%, 58.823532%)"
     fill-opacity="1"
     d="M 68.8125 57.0625 C 68.8125 59.203125 66.660156 60.9375 64 60.9375 C 61.34375 60.9375 59.1875 59.203125 59.1875 57.0625 C 59.1875 54.917969 61.34375 53.183594 64 53.183594 C 66.660156 53.183594 68.8125 54.917969 68.8125 57.0625 Z M 68.8125 57.0625 "
     id="path95" />
  <path
     fill-rule="nonzero"
     fill="rgb(96.470588%, 96.078432%, 95.686275%)"
     fill-opacity="1"
     d="M 68.8125 57.460938 C 68.8125 59.601562 66.660156 61.339844 64 61.339844 C 61.34375 61.339844 59.1875 59.601562 59.1875 57.460938 C 59.1875 55.320312 61.34375 53.585938 64 53.585938 C 66.660156 53.585938 68.8125 55.320312 68.8125 57.460938 Z M 68.8125 57.460938 "
     id="path97" />
  <path
     fill-rule="nonzero"
     fill="rgb(87.058824%, 86.666667%, 85.490197%)"
     fill-opacity="1"
     d="M 64 51.117188 C 59.929688 51.117188 56.625 53.777344 56.625 57.0625 C 56.625 60.34375 59.929688 63.003906 64 63.003906 C 68.074219 63.003906 71.378906 60.34375 71.378906 57.0625 C 71.378906 53.777344 68.074219 51.117188 64 51.117188 Z M 64 53.183594 C 66.660156 53.183594 68.8125 54.917969 68.8125 57.0625 C 68.8125 59.203125 66.660156 60.9375 64 60.9375 C 61.34375 60.9375 59.191406 59.203125 59.1875 57.0625 C 59.191406 54.917969 61.34375 53.183594 64 53.183594 Z M 64 53.183594 "
     id="path99" />
  <metadata
     id="metadata278">
    <rdf:RDF>
      <cc:Work
         rdf:about="">
        <dc:title>Adwaita Icon Template</dc:title>
        <dc:creator>
          <cc:Agent>
            <dc:title>mechtifs@github.com</dc:title>
          </cc:Agent>
        </dc:creator>
        <cc:license
           rdf:resource="http://creativecommons.org/licenses/by-sa/4.0/" />
      </cc:Work>
      <cc:License
         rdf:about="http://creativecommons.org/licenses/by-sa/4.0/">
        <cc:permits
           rdf:resource="http://creativecommons.org/ns#Reproduction" />
        <cc:permits
           rdf:resource="http://creativecommons.org/ns#Distribution" />
        <cc:requires
           rdf:resource="http://creativecommons.org/ns#Notice" />
        <cc:requires
           rdf:resource="http://creativecommons.org/ns#Attribution" />
        <cc:permits
           rdf:resource="http://creativecommons.org/ns#DerivativeWorks" />
        <cc:requires
           rdf:resource="http://creativecommons.org/ns#ShareAlike" />
      </cc:License>
    </rdf:RDF>
  </metadata>
</svg>
