<?xml version="1.0" encoding="UTF-8" standalone="no"?>
<svg
   width="128"
   height="128"
   viewBox="0 0 128 128"
   version="1.1"
   id="svg26"
   sodipodi:docname="icalingua.svg"
   inkscape:version="1.2.1 (9c6d41e410, 2022-07-14)"
   xmlns:inkscape="http://www.inkscape.org/namespaces/inkscape"
   xmlns:sodipodi="http://sodipodi.sourceforge.net/DTD/sodipodi-0.dtd"
   xmlns="http://www.w3.org/2000/svg"
   xmlns:svg="http://www.w3.org/2000/svg"
   xmlns:rdf="http://www.w3.org/1999/02/22-rdf-syntax-ns#"
   xmlns:cc="http://creativecommons.org/ns#"
   xmlns:dc="http://purl.org/dc/elements/1.1/">
  <title
     id="title207">Adwaita Icon Template</title>
  <defs
     id="defs30" />
  <sodipodi:namedview
     id="namedview28"
     pagecolor="#505050"
     bordercolor="#eeeeee"
     borderopacity="1"
     inkscape:showpageshadow="0"
     inkscape:pageopacity="0"
     inkscape:pagecheckerboard="0"
     inkscape:deskcolor="#505050"
     showgrid="false"
     inkscape:zoom="1.84375"
     inkscape:cx="63.728814"
     inkscape:cy="64"
     inkscape:window-width="1792"
     inkscape:window-height="1051"
     inkscape:window-x="0"
     inkscape:window-y="0"
     inkscape:window-maximized="1"
     inkscape:current-layer="svg26" />
  <path
     fill-rule="nonzero"
     fill="rgb(56.470591%, 74.509805%, 80.000001%)"
     fill-opacity="1"
     d="M 62.84375 6.925781 C 55.015625 7.078125 47.109375 9.671875 41.152344 14.851562 C 34.710938 20.34375 30.679688 28.195312 28.636719 36.3125 C 27.09375 42.332031 26.613281 48.582031 26.816406 54.777344 C 22.675781 65.253906 18.027344 75.671875 16.0625 86.832031 C 15.445312 90.535156 14.984375 94.402344 15.894531 98.09375 C 16.390625 100.113281 18.074219 102.042969 20.273438 102.039062 C 22.738281 102.085938 24.671875 100.28125 26.203125 98.558594 C 26.710938 97.988281 27.191406 97.398438 27.667969 96.804688 C 29.007812 100.507812 31.023438 103.957031 33.542969 106.976562 C 31.28125 108.046875 28.933594 109.363281 27.589844 111.550781 C 26.246094 113.808594 26.449219 117.113281 28.609375 118.796875 C 30.699219 120.386719 33.4375 120.5 35.945312 120.777344 C 42.902344 121.316406 49.890625 121.078125 56.851562 120.78125 C 59.335938 120.679688 61.8125 120.433594 64.292969 120.296875 C 72.5625 121.011719 80.882812 121.257812 89.183594 120.964844 C 92.117188 120.820312 95.121094 120.660156 97.917969 119.679688 C 99.773438 118.953125 101.179688 117.164062 101.25 115.144531 C 101.492188 112.328125 99.554688 109.796875 97.203125 108.464844 C 96.328125 107.902344 95.402344 107.414062 94.460938 106.976562 C 96.976562 103.953125 98.992188 100.507812 100.332031 96.808594 C 101.761719 98.585938 103.285156 100.421875 105.328125 101.507812 C 107.175781 102.457031 109.710938 102.132812 110.964844 100.378906 C 112.605469 98.242188 112.628906 95.390625 112.585938 92.816406 C 112.367188 86.707031 110.726562 80.757812 108.898438 74.960938 C 106.664062 68.109375 103.839844 61.472656 101.183594 54.777344 C 101.527344 44.890625 100.019531 34.738281 95.453125 25.871094 C 92.191406 19.570312 87.195312 14.046875 80.835938 10.789062 C 75.324219 7.917969 69.027344 6.753906 62.84375 6.925781 Z M 62.84375 6.925781 "
     id="path2" />
  <path
     fill-rule="nonzero"
     fill="rgb(81.176472%, 96.862745%, 100%)"
     fill-opacity="1"
     d="M 62.84375 5.027344 C 55.015625 5.179688 47.109375 7.777344 41.152344 12.953125 C 34.710938 18.445312 30.679688 26.296875 28.636719 34.417969 C 27.09375 40.433594 26.613281 46.683594 26.816406 52.878906 C 22.675781 63.355469 18.027344 73.773438 16.0625 84.9375 C 15.445312 88.640625 14.984375 92.503906 15.894531 96.195312 C 16.390625 98.214844 18.074219 100.144531 20.273438 100.140625 C 22.738281 100.191406 24.671875 98.382812 26.203125 96.660156 C 26.710938 96.09375 27.191406 95.503906 27.667969 94.910156 C 29.007812 98.609375 31.023438 102.058594 33.542969 105.078125 C 31.28125 106.152344 28.933594 107.464844 27.589844 109.65625 C 26.246094 111.910156 26.449219 115.21875 28.609375 116.898438 C 30.699219 118.488281 33.4375 118.601562 35.945312 118.878906 C 42.902344 119.417969 49.890625 119.183594 56.851562 118.882812 C 59.335938 118.78125 61.8125 118.535156 64.292969 118.398438 C 72.5625 119.113281 80.882812 119.359375 89.183594 119.066406 C 92.117188 118.921875 95.121094 118.761719 97.917969 117.78125 C 99.773438 117.058594 101.179688 115.265625 101.25 113.246094 C 101.492188 110.429688 99.554688 107.898438 97.203125 106.566406 C 96.328125 106.003906 95.402344 105.515625 94.460938 105.078125 C 96.976562 102.058594 98.992188 98.609375 100.332031 94.910156 C 101.761719 96.6875 103.285156 98.523438 105.328125 99.609375 C 107.175781 100.558594 109.710938 100.234375 110.964844 98.480469 C 112.605469 96.34375 112.628906 93.492188 112.585938 90.917969 C 112.367188 84.808594 110.726562 78.863281 108.898438 73.066406 C 106.664062 66.210938 103.839844 59.574219 101.183594 52.878906 C 101.527344 42.992188 100.019531 32.839844 95.453125 23.972656 C 92.191406 17.671875 87.195312 12.152344 80.835938 8.890625 C 75.324219 6.019531 69.027344 4.855469 62.84375 5.027344 Z M 62.84375 5.027344 "
     id="path4" />
  <path
     fill-rule="nonzero"
     fill="rgb(10.588235%, 11.372549%, 14.117648%)"
     fill-opacity="1"
     d="M 64 8.808594 C 40.234375 8.808594 30.570312 29.378906 30.570312 49.851562 C 30.570312 51.066406 30.628906 53.421875 30.632812 53.5625 L 25.839844 65.535156 C 24.523438 68.957031 23.226562 72.527344 22.277344 75.582031 C 17.742188 90.171875 19.210938 96.207031 20.332031 96.34375 C 22.730469 96.632812 29.667969 85.363281 29.667969 85.363281 C 29.667969 91.890625 33.046875 100.40625 40.324219 106.554688 C 37.597656 107.394531 34.257812 108.675781 32.105469 110.265625 C 30.179688 111.6875 30.421875 113.132812 30.769531 113.71875 C 32.292969 116.289062 56.898438 115.359375 64.003906 114.558594 C 71.105469 115.359375 95.714844 116.289062 97.238281 113.71875 C 97.585938 113.132812 97.824219 111.6875 95.898438 110.265625 C 93.746094 108.675781 90.40625 107.390625 87.679688 106.554688 C 94.953125 100.402344 98.332031 91.890625 98.332031 85.363281 C 98.332031 85.363281 105.269531 96.632812 107.667969 96.34375 C 108.789062 96.207031 110.257812 90.171875 105.722656 75.582031 C 104.773438 72.527344 103.476562 68.960938 102.164062 65.535156 L 97.367188 53.5625 C 97.371094 53.421875 97.429688 51.066406 97.429688 49.851562 C 97.429688 29.378906 87.765625 8.808594 64 8.808594 Z M 64 8.808594 "
     id="path6" />
  <path
     fill-rule="nonzero"
     fill="rgb(17.254902%, 18.039216%, 22.745098%)"
     fill-opacity="1"
     d="M 64 10.707031 C 40.5 10.707031 30.804688 30.820312 30.589844 51.0625 C 30.609375 52.140625 30.632812 53.46875 30.632812 53.5625 L 30.601562 53.640625 C 30.617188 54.378906 30.632812 55.390625 30.632812 55.460938 L 25.839844 67.429688 C 24.523438 70.855469 23.226562 74.425781 22.277344 77.480469 C 20.136719 84.363281 19.359375 89.28125 19.226562 92.636719 C 19.335938 95.066406 19.851562 96.285156 20.332031 96.34375 C 22.730469 96.632812 29.671875 85.363281 29.671875 85.363281 C 29.671875 91.890625 33.046875 100.402344 40.324219 106.554688 C 39.832031 106.703125 39.3125 106.886719 38.792969 107.0625 C 39.285156 107.539062 39.789062 108.003906 40.324219 108.453125 C 37.597656 109.289062 34.257812 110.574219 32.109375 112.164062 C 31.398438 112.6875 30.984375 113.214844 30.761719 113.699219 C 30.761719 113.707031 30.765625 113.714844 30.769531 113.71875 C 32.289062 116.289062 56.898438 115.359375 64 114.558594 C 71.105469 115.359375 95.714844 116.289062 97.238281 113.71875 C 97.242188 113.714844 97.242188 113.703125 97.246094 113.699219 C 97.019531 113.214844 96.609375 112.6875 95.898438 112.164062 C 93.746094 110.570312 90.40625 109.289062 87.679688 108.453125 C 88.210938 108.003906 88.714844 107.535156 89.207031 107.0625 C 88.6875 106.886719 88.167969 106.703125 87.679688 106.554688 C 94.953125 100.402344 98.328125 91.890625 98.328125 85.363281 C 98.328125 85.363281 105.269531 96.632812 107.667969 96.34375 C 108.148438 96.285156 108.664062 95.066406 108.773438 92.636719 C 108.640625 89.28125 107.863281 84.363281 105.722656 77.480469 C 104.773438 74.425781 103.476562 70.855469 102.160156 67.429688 L 97.367188 55.460938 C 97.367188 55.390625 97.382812 54.378906 97.398438 53.640625 L 97.367188 53.5625 C 97.367188 53.46875 97.390625 52.140625 97.410156 51.0625 C 97.195312 30.820312 87.5 10.707031 64 10.707031 Z M 20.296875 98.226562 C 20.308594 98.226562 20.320312 98.238281 20.332031 98.242188 C 20.359375 98.246094 20.398438 98.226562 20.429688 98.226562 C 20.386719 98.226562 20.34375 98.226562 20.296875 98.226562 Z M 107.566406 98.226562 C 107.597656 98.226562 107.640625 98.246094 107.667969 98.242188 C 107.679688 98.238281 107.691406 98.226562 107.703125 98.226562 C 107.65625 98.226562 107.609375 98.226562 107.566406 98.226562 Z M 65.0625 116.550781 C 66.101562 116.648438 67.332031 116.742188 68.78125 116.835938 C 67.539062 116.753906 66.300781 116.65625 65.0625 116.550781 Z M 62.183594 116.617188 C 61.15625 116.699219 60.128906 116.78125 59.097656 116.84375 C 60.269531 116.773438 61.265625 116.695312 62.183594 116.617188 Z M 35.207031 116.894531 C 36.300781 117.015625 37.546875 117.105469 38.902344 117.167969 C 37.667969 117.105469 36.4375 117.011719 35.207031 116.894531 Z M 92.730469 116.90625 C 92.496094 116.929688 92.261719 116.953125 92.03125 116.976562 C 92.269531 116.953125 92.5 116.929688 92.730469 116.90625 Z M 70.765625 116.957031 C 71.554688 116.996094 72.332031 117.035156 73.175781 117.070312 C 72.371094 117.035156 71.570312 117 70.765625 116.957031 Z M 57.179688 116.957031 C 55.886719 117.027344 54.589844 117.082031 53.296875 117.128906 C 54.65625 117.078125 55.945312 117.023438 57.179688 116.957031 Z M 90.40625 117.105469 C 89.335938 117.164062 88.269531 117.207031 87.199219 117.234375 C 88.316406 117.203125 89.410156 117.167969 90.40625 117.105469 Z M 76.230469 117.183594 C 77.191406 117.214844 78.140625 117.230469 79.121094 117.25 C 78.15625 117.234375 77.191406 117.214844 76.230469 117.183594 Z M 39.304688 117.1875 C 39.976562 117.214844 40.695312 117.226562 41.410156 117.246094 C 40.707031 117.226562 40.007812 117.21875 39.304688 117.1875 Z M 51.660156 117.1875 C 50.808594 117.210938 49.960938 117.230469 49.109375 117.246094 C 49.972656 117.230469 50.808594 117.214844 51.660156 117.1875 Z M 84.417969 117.277344 C 83.292969 117.285156 82.167969 117.285156 81.042969 117.277344 C 82.199219 117.289062 83.300781 117.285156 84.417969 117.277344 Z M 46.6875 117.28125 C 46.003906 117.289062 45.320312 117.292969 44.636719 117.292969 C 45.320312 117.296875 45.992188 117.289062 46.6875 117.28125 Z M 46.6875 117.28125 "
     id="path8" />
  <path
     fill-rule="nonzero"
     fill="rgb(10.588235%, 11.372549%, 14.117648%)"
     fill-opacity="1"
     d="M 55.925781 47.058594 C 48.15625 45.644531 42.015625 47.125 39.566406 51.363281 C 37.742188 54.527344 38.261719 58.722656 40.832031 63.207031 C 41.363281 64.128906 42.746094 63.335938 42.214844 62.414062 C 39.898438 58.375 39.449219 54.753906 40.949219 52.160156 C 42.980469 48.636719 48.457031 47.316406 55.640625 48.625 C 56.699219 48.835938 56.988281 47.234375 55.925781 47.058594 Z M 44.871094 68.65625 C 48.011719 72.109375 52.09375 75.347656 56.75 78.035156 C 68.015625 84.539062 80.011719 86.277344 85.925781 82.246094 C 86.792969 81.648438 85.902344 80.34375 85.027344 80.929688 C 79.734375 84.539062 68.339844 82.886719 57.546875 76.652344 C 53.03125 74.046875 49.078125 70.910156 46.050781 67.585938 C 45.335938 66.773438 44.132812 67.871094 44.871094 68.65625 Z M 44.871094 68.65625 "
     id="path10" />
  <path
     fill-rule="nonzero"
     fill="rgb(10.588235%, 11.372549%, 14.117648%)"
     fill-opacity="1"
     d="M 84.039062 67.6875 C 89.125 61.679688 90.902344 55.636719 88.460938 51.402344 C 86.660156 48.289062 82.863281 46.648438 77.8125 46.582031 C 77.371094 46.574219 77.011719 46.925781 77.003906 47.367188 C 77 47.808594 77.351562 48.167969 77.789062 48.175781 C 82.332031 48.234375 85.605469 49.648438 87.078125 52.199219 C 89.109375 55.714844 87.523438 61.105469 82.824219 66.660156 C 82.632812 66.875 82.574219 67.175781 82.671875 67.449219 C 82.765625 67.722656 83 67.917969 83.285156 67.96875 C 83.570312 68.019531 83.859375 67.910156 84.039062 67.6875 Z M 70.96875 47.324219 C 66.367188 48.308594 61.472656 50.234375 56.773438 52.949219 C 45.140625 59.664062 37.550781 69.566406 38.605469 76.75 C 38.640625 77.039062 38.828125 77.285156 39.097656 77.394531 C 39.363281 77.503906 39.671875 77.457031 39.894531 77.273438 C 40.121094 77.09375 40.230469 76.804688 40.179688 76.519531 C 39.246094 70.140625 46.4375 60.753906 57.570312 54.328125 C 62.128906 51.695312 66.871094 49.832031 71.300781 48.878906 C 71.722656 48.78125 71.984375 48.363281 71.894531 47.9375 C 71.804688 47.515625 71.394531 47.242188 70.96875 47.324219 Z M 70.96875 47.324219 "
     id="path12" />
  <path
     fill-rule="nonzero"
     fill="rgb(10.588235%, 11.372549%, 14.117648%)"
     fill-opacity="1"
     d="M 52.121094 81.726562 C 54.78125 89.152344 59.132812 93.726562 64.023438 93.726562 C 67.59375 93.726562 70.894531 91.292969 73.46875 87.011719 C 73.625 86.765625 73.636719 86.457031 73.5 86.203125 C 73.359375 85.945312 73.09375 85.785156 72.804688 85.785156 C 72.515625 85.78125 72.246094 85.9375 72.105469 86.191406 C 69.789062 90.039062 66.949219 92.132812 64.023438 92.132812 C 59.960938 92.132812 56.082031 88.054688 53.621094 81.191406 C 53.53125 80.917969 53.296875 80.714844 53.015625 80.660156 C 52.730469 80.605469 52.441406 80.710938 52.253906 80.933594 C 52.070312 81.152344 52.019531 81.457031 52.121094 81.726562 Z M 76.414062 80.273438 C 77.792969 75.875 78.53125 70.800781 78.53125 65.511719 C 78.53125 52.316406 73.910156 40.9375 67.332031 38.015625 C 66.933594 37.847656 66.46875 38.027344 66.292969 38.425781 C 66.113281 38.824219 66.289062 39.289062 66.6875 39.472656 C 72.554688 42.078125 76.9375 52.875 76.9375 65.511719 C 76.9375 70.640625 76.222656 75.558594 74.894531 79.800781 C 74.800781 80.074219 74.863281 80.375 75.058594 80.589844 C 75.253906 80.804688 75.546875 80.898438 75.828125 80.832031 C 76.109375 80.765625 76.335938 80.554688 76.414062 80.273438 Z M 91.417969 79.496094 C 91.417969 77.390625 89.710938 75.683594 87.605469 75.683594 C 85.5 75.683594 83.792969 77.390625 83.792969 79.496094 C 83.792969 81.601562 85.5 83.308594 87.605469 83.308594 C 89.710938 83.308594 91.417969 81.601562 91.417969 79.496094 Z M 89.824219 79.496094 C 89.824219 80.71875 88.828125 81.714844 87.605469 81.714844 C 86.378906 81.714844 85.386719 80.71875 85.386719 79.496094 C 85.386719 78.269531 86.378906 77.277344 87.605469 77.277344 C 88.828125 77.277344 89.824219 78.269531 89.824219 79.496094 Z M 40.390625 83.308594 C 42.496094 83.308594 44.203125 81.601562 44.203125 79.496094 C 44.203125 77.390625 42.496094 75.683594 40.390625 75.683594 C 38.285156 75.683594 36.578125 77.390625 36.578125 79.496094 C 36.578125 81.601562 38.285156 83.308594 40.390625 83.308594 Z M 40.390625 81.714844 C 39.164062 81.714844 38.171875 80.71875 38.171875 79.496094 C 38.171875 78.269531 39.164062 77.273438 40.390625 77.273438 C 41.617188 77.273438 42.609375 78.269531 42.609375 79.496094 C 42.609375 80.71875 41.617188 81.714844 40.390625 81.714844 Z M 40.390625 81.714844 "
     id="path14" />
  <path
     fill-rule="nonzero"
     fill="rgb(10.588235%, 11.372549%, 14.117648%)"
     fill-opacity="1"
     d="M 64.023438 41.90625 C 66.128906 41.90625 67.835938 40.199219 67.835938 38.09375 C 67.835938 35.988281 66.128906 34.28125 64.023438 34.28125 C 61.917969 34.28125 60.210938 35.988281 60.210938 38.09375 C 60.210938 40.199219 61.917969 41.90625 64.023438 41.90625 Z M 64.023438 40.3125 C 62.800781 40.3125 61.804688 39.320312 61.804688 38.09375 C 61.804688 36.867188 62.800781 35.875 64.023438 35.875 C 65.25 35.875 66.246094 36.867188 66.246094 38.09375 C 66.246094 39.320312 65.25 40.3125 64.023438 40.3125 Z M 64.605469 68.207031 C 63.117188 68.53125 61.648438 67.582031 61.328125 66.09375 C 61.007812 64.605469 61.953125 63.136719 63.441406 62.816406 C 64.921875 62.519531 66.363281 63.464844 66.679688 64.9375 C 67 66.410156 66.074219 67.867188 64.605469 68.207031 Z M 64.605469 68.207031 "
     id="path16" />
  <path
     fill-rule="nonzero"
     fill="rgb(81.176472%, 96.862745%, 100%)"
     fill-opacity="1"
     d="M 55.925781 45.160156 C 48.15625 43.746094 42.015625 45.226562 39.566406 49.464844 C 37.742188 52.628906 38.261719 56.824219 40.832031 61.308594 C 41.363281 62.230469 42.746094 61.4375 42.214844 60.515625 C 39.898438 56.476562 39.449219 52.855469 40.949219 50.261719 C 42.980469 46.742188 48.457031 45.417969 55.640625 46.726562 C 56.699219 46.9375 56.988281 45.335938 55.925781 45.160156 Z M 44.871094 66.757812 C 48.011719 70.210938 52.09375 73.449219 56.75 76.136719 C 68.015625 82.640625 80.011719 84.378906 85.925781 80.347656 C 86.792969 79.75 85.902344 78.445312 85.027344 79.03125 C 79.734375 82.640625 68.339844 80.988281 57.546875 74.753906 C 53.03125 72.148438 49.078125 69.015625 46.050781 65.6875 C 45.335938 64.875 44.132812 65.972656 44.871094 66.757812 Z M 44.871094 66.757812 "
     id="path18" />
  <path
     fill-rule="nonzero"
     fill="rgb(81.176472%, 96.862745%, 100%)"
     fill-opacity="1"
     d="M 84.039062 65.789062 C 89.125 59.78125 90.902344 53.738281 88.460938 49.507812 C 86.660156 46.394531 82.863281 44.75 77.8125 44.683594 C 77.371094 44.679688 77.011719 45.03125 77.003906 45.46875 C 77 45.910156 77.351562 46.269531 77.789062 46.277344 C 82.332031 46.335938 85.605469 47.753906 87.078125 50.304688 C 89.109375 53.816406 87.523438 59.207031 82.824219 64.761719 C 82.632812 64.976562 82.574219 65.28125 82.671875 65.550781 C 82.765625 65.824219 83 66.023438 83.285156 66.070312 C 83.570312 66.121094 83.859375 66.011719 84.039062 65.789062 Z M 70.96875 45.425781 C 66.367188 46.410156 61.472656 48.335938 56.773438 51.050781 C 45.140625 57.769531 37.550781 67.671875 38.605469 74.851562 C 38.640625 75.140625 38.828125 75.386719 39.097656 75.496094 C 39.363281 75.605469 39.671875 75.558594 39.894531 75.378906 C 40.121094 75.195312 40.230469 74.90625 40.179688 74.621094 C 39.246094 68.246094 46.4375 58.855469 57.570312 52.429688 C 62.128906 49.796875 66.871094 47.933594 71.300781 46.984375 C 71.722656 46.882812 71.984375 46.464844 71.894531 46.039062 C 71.804688 45.617188 71.394531 45.34375 70.96875 45.425781 Z M 70.96875 45.425781 "
     id="path20" />
  <path
     fill-rule="nonzero"
     fill="rgb(81.176472%, 96.862745%, 100%)"
     fill-opacity="1"
     d="M 52.121094 79.828125 C 54.78125 87.253906 59.132812 91.828125 64.023438 91.828125 C 67.59375 91.828125 70.894531 89.394531 73.46875 85.113281 C 73.625 84.871094 73.636719 84.558594 73.5 84.304688 C 73.359375 84.046875 73.09375 83.886719 72.804688 83.886719 C 72.515625 83.882812 72.246094 84.039062 72.105469 84.292969 C 69.789062 88.140625 66.949219 90.234375 64.023438 90.234375 C 59.960938 90.234375 56.082031 86.15625 53.621094 79.292969 C 53.53125 79.019531 53.296875 78.816406 53.015625 78.761719 C 52.730469 78.707031 52.441406 78.8125 52.253906 79.035156 C 52.070312 79.257812 52.019531 79.558594 52.121094 79.828125 Z M 76.414062 78.375 C 77.792969 73.976562 78.53125 68.902344 78.53125 63.613281 C 78.53125 50.417969 73.910156 39.039062 67.332031 36.121094 C 66.933594 35.949219 66.46875 36.128906 66.292969 36.527344 C 66.113281 36.925781 66.289062 37.394531 66.6875 37.574219 C 72.554688 40.179688 76.9375 50.976562 76.9375 63.613281 C 76.9375 68.742188 76.222656 73.660156 74.894531 77.902344 C 74.800781 78.175781 74.863281 78.476562 75.058594 78.691406 C 75.253906 78.90625 75.546875 79 75.828125 78.933594 C 76.109375 78.867188 76.335938 78.65625 76.414062 78.375 Z M 91.417969 77.597656 C 91.417969 75.492188 89.710938 73.785156 87.605469 73.785156 C 85.5 73.785156 83.792969 75.492188 83.792969 77.597656 C 83.792969 79.703125 85.5 81.410156 87.605469 81.410156 C 89.710938 81.410156 91.417969 79.703125 91.417969 77.597656 Z M 89.824219 77.597656 C 89.824219 78.824219 88.828125 79.816406 87.605469 79.816406 C 86.378906 79.816406 85.386719 78.824219 85.386719 77.597656 C 85.386719 76.371094 86.378906 75.378906 87.605469 75.378906 C 88.828125 75.378906 89.824219 76.371094 89.824219 77.597656 Z M 40.390625 81.410156 C 42.496094 81.410156 44.203125 79.703125 44.203125 77.597656 C 44.203125 75.492188 42.496094 73.785156 40.390625 73.785156 C 38.285156 73.785156 36.578125 75.492188 36.578125 77.597656 C 36.578125 79.703125 38.285156 81.410156 40.390625 81.410156 Z M 40.390625 79.816406 C 39.164062 79.816406 38.171875 78.824219 38.171875 77.597656 C 38.171875 76.371094 39.164062 75.378906 40.390625 75.378906 C 41.617188 75.378906 42.609375 76.371094 42.609375 77.597656 C 42.609375 78.824219 41.617188 79.816406 40.390625 79.816406 Z M 40.390625 79.816406 "
     id="path22" />
  <path
     fill-rule="nonzero"
     fill="rgb(81.176472%, 96.862745%, 100%)"
     fill-opacity="1"
     d="M 64.023438 40.007812 C 66.128906 40.007812 67.835938 38.300781 67.835938 36.195312 C 67.835938 34.089844 66.128906 32.382812 64.023438 32.382812 C 61.917969 32.382812 60.210938 34.089844 60.210938 36.195312 C 60.210938 38.300781 61.917969 40.007812 64.023438 40.007812 Z M 64.023438 38.414062 C 62.800781 38.414062 61.804688 37.421875 61.804688 36.195312 C 61.804688 34.96875 62.800781 33.976562 64.023438 33.976562 C 65.25 33.976562 66.246094 34.96875 66.246094 36.195312 C 66.246094 37.421875 65.25 38.414062 64.023438 38.414062 Z M 64.605469 66.308594 C 63.117188 66.632812 61.648438 65.6875 61.328125 64.195312 C 61.007812 62.707031 61.953125 61.238281 63.441406 60.917969 C 64.921875 60.621094 66.363281 61.566406 66.679688 63.039062 C 67 64.511719 66.074219 65.96875 64.605469 66.308594 Z M 64.605469 66.308594 "
     id="path24" />
  <metadata
     id="metadata205">
    <rdf:RDF>
      <cc:Work
         rdf:about="">
        <dc:creator>
          <cc:Agent>
            <dc:title>mechtifs@github.com</dc:title>
          </cc:Agent>
        </dc:creator>
        <dc:title>Adwaita Icon Template</dc:title>
        <cc:license
           rdf:resource="http://creativecommons.org/licenses/by-sa/4.0/" />
      </cc:Work>
      <cc:License
         rdf:about="http://creativecommons.org/licenses/by-sa/4.0/">
        <cc:permits
           rdf:resource="http://creativecommons.org/ns#Reproduction" />
        <cc:permits
           rdf:resource="http://creativecommons.org/ns#Distribution" />
        <cc:requires
           rdf:resource="http://creativecommons.org/ns#Notice" />
        <cc:requires
           rdf:resource="http://creativecommons.org/ns#Attribution" />
        <cc:permits
           rdf:resource="http://creativecommons.org/ns#DerivativeWorks" />
        <cc:requires
           rdf:resource="http://creativecommons.org/ns#ShareAlike" />
      </cc:License>
    </rdf:RDF>
  </metadata>
</svg>
