<?xml version="1.0" encoding="UTF-8" standalone="no"?>
<svg
   width="128"
   height="128"
   viewBox="0 0 128 128"
   version="1.1"
   id="svg12"
   sodipodi:docname="mongodb-compass.svg"
   inkscape:version="1.2.1 (9c6d41e410, 2022-07-14)"
   xmlns:inkscape="http://www.inkscape.org/namespaces/inkscape"
   xmlns:sodipodi="http://sodipodi.sourceforge.net/DTD/sodipodi-0.dtd"
   xmlns="http://www.w3.org/2000/svg"
   xmlns:svg="http://www.w3.org/2000/svg"
   xmlns:rdf="http://www.w3.org/1999/02/22-rdf-syntax-ns#"
   xmlns:cc="http://creativecommons.org/ns#"
   xmlns:dc="http://purl.org/dc/elements/1.1/">
  <title
     id="title193">Adwaita Icon Template</title>
  <defs
     id="defs16" />
  <sodipodi:namedview
     id="namedview14"
     pagecolor="#505050"
     bordercolor="#eeeeee"
     borderopacity="1"
     inkscape:showpageshadow="0"
     inkscape:pageopacity="0"
     inkscape:pagecheckerboard="0"
     inkscape:deskcolor="#505050"
     showgrid="false"
     inkscape:zoom="1.84375"
     inkscape:cx="63.728814"
     inkscape:cy="64"
     inkscape:window-width="1792"
     inkscape:window-height="1051"
     inkscape:window-x="0"
     inkscape:window-y="0"
     inkscape:window-maximized="1"
     inkscape:current-layer="svg12" />
  <path
     fill-rule="nonzero"
     fill="rgb(75.294119%, 74.901962%, 73.725492%)"
     fill-opacity="1"
     d="M 124 65 C 124 98.136719 97.136719 125 64 125 C 30.863281 125 4 98.136719 4 65 C 4 31.863281 30.863281 5 64 5 C 97.136719 5 124 31.863281 124 65 Z M 124 65 "
     id="path2" />
  <path
     fill-rule="nonzero"
     fill="rgb(83.529413%, 82.745099%, 81.176472%)"
     fill-opacity="1"
     d="M 64 7 C 94.929688 7 120 32.070312 120 63 L 120 65 C 120 95.929688 94.929688 121 64 121 C 33.070312 121 8 95.929688 8 65 L 8 63 C 8 32.070312 33.070312 7 64 7 Z M 64 7 "
     id="path4" />
  <path
     fill-rule="nonzero"
     fill="rgb(96.470588%, 96.078432%, 95.686275%)"
     fill-opacity="1"
     d="M 124 63 C 124 96.136719 97.136719 123 64 123 C 30.863281 123 4 96.136719 4 63 C 4 29.863281 30.863281 3 64 3 C 97.136719 3 124 29.863281 124 63 Z M 124 63 "
     id="path6" />
  <path
     fill-rule="nonzero"
     fill="rgb(75.294119%, 74.901962%, 73.725492%)"
     fill-opacity="1"
     d="M 70.664062 35.261719 C 67.441406 31.460938 64.667969 27.574219 64.105469 26.777344 C 64.082031 26.742188 64.042969 26.722656 64 26.722656 C 63.957031 26.722656 63.917969 26.742188 63.894531 26.777344 C 63.332031 27.574219 60.558594 31.460938 57.335938 35.261719 C 29.734375 70.425781 61.695312 94.152344 61.695312 94.152344 L 61.953125 94.332031 C 62.195312 98.003906 62.796875 103.277344 62.796875 103.277344 L 65.203125 103.277344 C 65.203125 103.277344 65.800781 98.023438 66.046875 94.355469 L 66.304688 94.152344 C 66.304688 94.152344 98.265625 70.425781 70.664062 35.261719 Z M 64 93.636719 C 64 93.636719 62.566406 92.414062 62.179688 91.800781 L 62.175781 91.734375 L 63.910156 53.453125 C 63.914062 53.402344 63.953125 53.367188 64 53.367188 C 64.046875 53.367188 64.089844 53.402344 64.089844 53.453125 L 65.824219 91.734375 L 65.820312 91.800781 C 65.433594 92.414062 64 93.636719 64 93.636719 Z M 64 93.636719 "
     id="path8" />
  <path
     fill-rule="nonzero"
     fill="rgb(0%, 40.784314%, 29.019609%)"
     fill-opacity="1"
     d="M 70.664062 33.261719 C 67.441406 29.460938 64.667969 25.574219 64.105469 24.777344 C 64.082031 24.742188 64.042969 24.722656 64 24.722656 C 63.957031 24.722656 63.917969 24.742188 63.894531 24.777344 C 63.332031 25.574219 60.558594 29.460938 57.335938 33.261719 C 29.734375 68.425781 61.695312 92.152344 61.695312 92.152344 L 61.953125 92.332031 C 62.195312 96.003906 62.796875 101.277344 62.796875 101.277344 L 65.203125 101.277344 C 65.203125 101.277344 65.800781 96.023438 66.046875 92.355469 L 66.304688 92.152344 C 66.304688 92.152344 98.265625 68.425781 70.664062 33.261719 Z M 64 91.636719 C 64 91.636719 62.566406 90.414062 62.179688 89.800781 L 62.175781 89.734375 L 63.910156 51.453125 C 63.914062 51.402344 63.953125 51.367188 64 51.367188 C 64.046875 51.367188 64.089844 51.402344 64.089844 51.453125 L 65.824219 89.734375 L 65.820312 89.800781 C 65.433594 90.414062 64 91.636719 64 91.636719 Z M 64 91.636719 "
     id="path10" />
  <metadata
     id="metadata191">
    <rdf:RDF>
      <cc:Work
         rdf:about="">
        <dc:creator>
          <cc:Agent>
            <dc:title>mechtifs@github.com</dc:title>
          </cc:Agent>
        </dc:creator>
        <dc:title>Adwaita Icon Template</dc:title>
        <cc:license
           rdf:resource="http://creativecommons.org/licenses/by-sa/4.0/" />
      </cc:Work>
      <cc:License
         rdf:about="http://creativecommons.org/licenses/by-sa/4.0/">
        <cc:permits
           rdf:resource="http://creativecommons.org/ns#Reproduction" />
        <cc:permits
           rdf:resource="http://creativecommons.org/ns#Distribution" />
        <cc:requires
           rdf:resource="http://creativecommons.org/ns#Notice" />
        <cc:requires
           rdf:resource="http://creativecommons.org/ns#Attribution" />
        <cc:permits
           rdf:resource="http://creativecommons.org/ns#DerivativeWorks" />
        <cc:requires
           rdf:resource="http://creativecommons.org/ns#ShareAlike" />
      </cc:License>
    </rdf:RDF>
  </metadata>
</svg>
