<?xml version="1.0" encoding="UTF-8" standalone="no"?>
<svg
   width="128"
   height="128"
   viewBox="0 0 128 128"
   version="1.1"
   id="svg25"
   sodipodi:docname="org.wireshark.Wireshark.svg"
   inkscape:version="1.2.1 (9c6d41e410, 2022-07-14)"
   xmlns:inkscape="http://www.inkscape.org/namespaces/inkscape"
   xmlns:sodipodi="http://sodipodi.sourceforge.net/DTD/sodipodi-0.dtd"
   xmlns="http://www.w3.org/2000/svg"
   xmlns:svg="http://www.w3.org/2000/svg"
   xmlns:rdf="http://www.w3.org/1999/02/22-rdf-syntax-ns#"
   xmlns:cc="http://creativecommons.org/ns#"
   xmlns:dc="http://purl.org/dc/elements/1.1/">
  <title
     id="title204">Adwaita Icon Template</title>
  <sodipodi:namedview
     id="namedview27"
     pagecolor="#505050"
     bordercolor="#eeeeee"
     borderopacity="1"
     inkscape:showpageshadow="0"
     inkscape:pageopacity="0"
     inkscape:pagecheckerboard="0"
     inkscape:deskcolor="#505050"
     showgrid="false"
     inkscape:zoom="1.84375"
     inkscape:cx="63.728814"
     inkscape:cy="64"
     inkscape:window-width="1792"
     inkscape:window-height="1051"
     inkscape:window-x="0"
     inkscape:window-y="0"
     inkscape:window-maximized="1"
     inkscape:current-layer="svg25" />
  <defs
     id="defs15">
    <linearGradient
       id="linear-pattern-0"
       gradientUnits="userSpaceOnUse"
       x1="48"
       y1="44"
       x2="464"
       y2="44"
       gradientTransform="matrix(0.25, 0, 0, 0.25, 0, 53)">
      <stop
         offset="0"
         stop-color="rgb(10.196079%, 37.254903%, 70.588237%)"
         stop-opacity="1"
         id="stop2" />
      <stop
         offset="0.0416667"
         stop-color="rgb(38.431373%, 62.7451%, 91.764706%)"
         stop-opacity="1"
         id="stop4" />
      <stop
         offset="0.0833333"
         stop-color="rgb(10.196079%, 37.254903%, 70.588237%)"
         stop-opacity="1"
         id="stop6" />
      <stop
         offset="0.916667"
         stop-color="rgb(10.196079%, 37.254903%, 70.588237%)"
         stop-opacity="1"
         id="stop8" />
      <stop
         offset="0.958333"
         stop-color="rgb(38.431373%, 62.7451%, 91.764706%)"
         stop-opacity="1"
         id="stop10" />
      <stop
         offset="1"
         stop-color="rgb(10.196079%, 37.254903%, 70.588237%)"
         stop-opacity="1"
         id="stop12" />
    </linearGradient>
  </defs>
  <path
     fill-rule="nonzero"
     fill="url(#linear-pattern-0)"
     d="M 20 32 L 108 32 C 112.417969 32 116 35.582031 116 40 L 116 108 C 116 112.417969 112.417969 116 108 116 L 20 116 C 15.582031 116 12 112.417969 12 108 L 12 40 C 12 35.582031 15.582031 32 20 32 Z M 20 32 "
     id="path17" />
  <path
     fill-rule="nonzero"
     fill="rgb(20.784314%, 51.764709%, 89.411765%)"
     fill-opacity="1"
     d="M 20 12 L 108 12 C 112.417969 12 116 15.582031 116 20 L 116 104 C 116 108.417969 112.417969 112 108 112 L 20 112 C 15.582031 112 12 108.417969 12 104 L 12 20 C 12 15.582031 15.582031 12 20 12 Z M 20 12 "
     id="path19" />
  <path
     fill-rule="nonzero"
     fill="rgb(10.980392%, 44.313726%, 84.705883%)"
     fill-opacity="1"
     d="M 81.164062 39.414062 C 73.699219 39.5 66.183594 41.632812 60.085938 46.019531 C 53.503906 50.65625 48.777344 57.523438 45.753906 64.910156 C 44.152344 68.800781 42.957031 72.871094 42.3125 77.03125 C 36.613281 77.085938 30.910156 77.144531 25.207031 77.199219 C 25.191406 77.199219 25.175781 77.199219 25.160156 77.199219 C 23.136719 77.199219 21.492188 78.839844 21.492188 80.867188 C 21.492188 82.890625 23.136719 84.535156 25.160156 84.535156 L 25.160156 84.539062 C 32.03125 84.476562 38.902344 84.429688 45.765625 84.328125 C 46.644531 84.246094 47.457031 83.835938 48.070312 83.222656 C 48.769531 82.496094 49.058594 81.53125 49.132812 80.546875 C 50.101562 73.8125 52.226562 67.1875 55.734375 61.335938 C 58.976562 55.917969 63.828125 51.355469 69.75 49.039062 C 71.449219 48.363281 73.230469 47.839844 75.007812 47.5 C 71.847656 56.046875 72.234375 65.53125 74.523438 74.238281 C 75.28125 77.066406 76.1875 79.875 77.441406 82.519531 C 77.855469 83.285156 78.550781 83.808594 79.316406 84.171875 C 81.003906 84.59375 82.757812 84.335938 84.480469 84.429688 C 90.597656 84.480469 96.71875 84.53125 102.835938 84.585938 C 104.863281 84.585938 106.507812 82.941406 106.503906 80.914062 C 106.507812 78.886719 104.863281 77.246094 102.835938 77.246094 C 96.269531 77.1875 89.703125 77.128906 83.132812 77.070312 C 80.5 69.957031 79.25 62.148438 80.605469 54.621094 C 81.238281 51.101562 82.601562 47.730469 84.5 44.703125 C 85.574219 42.734375 84.324219 40.015625 82.136719 39.535156 C 81.828125 39.441406 81.488281 39.417969 81.164062 39.414062 Z M 81.164062 39.414062 "
     id="path21" />
  <path
     fill-rule="nonzero"
     fill="rgb(96.470588%, 96.078432%, 95.686275%)"
     fill-opacity="1"
     d="M 81.164062 37.414062 C 73.699219 37.5 66.183594 39.632812 60.085938 44.019531 C 53.503906 48.65625 48.777344 55.523438 45.753906 62.910156 C 44.152344 66.800781 42.957031 70.871094 42.3125 75.03125 C 36.613281 75.085938 30.910156 75.144531 25.207031 75.199219 C 25.191406 75.199219 25.175781 75.199219 25.160156 75.199219 C 23.136719 75.199219 21.492188 76.839844 21.492188 78.867188 C 21.492188 80.890625 23.136719 82.535156 25.160156 82.535156 L 25.160156 82.539062 C 32.03125 82.476562 38.902344 82.429688 45.765625 82.328125 C 46.644531 82.246094 47.457031 81.835938 48.070312 81.222656 C 48.769531 80.496094 49.058594 79.53125 49.132812 78.546875 C 50.101562 71.8125 52.226562 65.1875 55.734375 59.335938 C 58.976562 53.917969 63.828125 49.355469 69.75 47.039062 C 71.449219 46.363281 73.230469 45.839844 75.007812 45.5 C 71.847656 54.046875 72.234375 63.53125 74.523438 72.238281 C 75.28125 75.066406 76.1875 77.875 77.441406 80.519531 C 77.855469 81.285156 78.550781 81.808594 79.316406 82.171875 C 81.003906 82.59375 82.757812 82.335938 84.480469 82.429688 C 90.597656 82.480469 96.71875 82.53125 102.835938 82.585938 C 104.863281 82.585938 106.507812 80.941406 106.503906 78.914062 C 106.507812 76.886719 104.863281 75.246094 102.835938 75.246094 C 96.269531 75.1875 89.703125 75.128906 83.132812 75.070312 C 80.5 67.957031 79.25 60.148438 80.605469 52.621094 C 81.238281 49.101562 82.601562 45.730469 84.5 42.703125 C 85.574219 40.734375 84.324219 38.015625 82.136719 37.535156 C 81.828125 37.441406 81.488281 37.417969 81.164062 37.414062 Z M 81.164062 37.414062 "
     id="path23" />
  <metadata
     id="metadata202">
    <rdf:RDF>
      <cc:Work
         rdf:about="">
        <dc:creator>
          <cc:Agent>
            <dc:title>mechtifs@github.com</dc:title>
          </cc:Agent>
        </dc:creator>
        <dc:title>Adwaita Icon Template</dc:title>
        <cc:license
           rdf:resource="http://creativecommons.org/licenses/by-sa/4.0/" />
      </cc:Work>
      <cc:License
         rdf:about="http://creativecommons.org/licenses/by-sa/4.0/">
        <cc:permits
           rdf:resource="http://creativecommons.org/ns#Reproduction" />
        <cc:permits
           rdf:resource="http://creativecommons.org/ns#Distribution" />
        <cc:requires
           rdf:resource="http://creativecommons.org/ns#Notice" />
        <cc:requires
           rdf:resource="http://creativecommons.org/ns#Attribution" />
        <cc:permits
           rdf:resource="http://creativecommons.org/ns#DerivativeWorks" />
        <cc:requires
           rdf:resource="http://creativecommons.org/ns#ShareAlike" />
      </cc:License>
    </rdf:RDF>
  </metadata>
</svg>
