<?xml version="1.0" encoding="UTF-8" standalone="no"?>
<svg
   width="128"
   height="128"
   viewBox="0 0 128 128"
   version="1.1"
   id="svg18"
   sodipodi:docname="org.inkscape.Inkscape.svg"
   inkscape:version="1.2.1 (9c6d41e410, 2022-07-14)"
   xmlns:inkscape="http://www.inkscape.org/namespaces/inkscape"
   xmlns:sodipodi="http://sodipodi.sourceforge.net/DTD/sodipodi-0.dtd"
   xmlns="http://www.w3.org/2000/svg"
   xmlns:svg="http://www.w3.org/2000/svg"
   xmlns:rdf="http://www.w3.org/1999/02/22-rdf-syntax-ns#"
   xmlns:cc="http://creativecommons.org/ns#"
   xmlns:dc="http://purl.org/dc/elements/1.1/">
  <title
     id="title199">Adwaita Icon Template</title>
  <defs
     id="defs22" />
  <sodipodi:namedview
     id="namedview20"
     pagecolor="#505050"
     bordercolor="#eeeeee"
     borderopacity="1"
     inkscape:showpageshadow="0"
     inkscape:pageopacity="0"
     inkscape:pagecheckerboard="0"
     inkscape:deskcolor="#505050"
     showgrid="false"
     inkscape:zoom="1.84375"
     inkscape:cx="63.728814"
     inkscape:cy="64"
     inkscape:window-width="1792"
     inkscape:window-height="1051"
     inkscape:window-x="0"
     inkscape:window-y="0"
     inkscape:window-maximized="1"
     inkscape:current-layer="svg18" />
  <path
     fill-rule="nonzero"
     fill="rgb(75.294119%, 74.901962%, 73.725492%)"
     fill-opacity="1"
     d="M 63.421875 6.863281 C 59.207031 6.863281 54.957031 8.417969 51.847656 11.644531 L 11.832031 53.28125 L 11.863281 53.25 C 2.964844 62.289062 5.171875 68.730469 12.597656 72.1875 C 16.246094 73.882812 21.210938 74.96875 25.328125 76.199219 C 26.171875 76.453125 26.582031 76.742188 27.308594 77 C 24.277344 78.449219 20.296875 80.285156 19.527344 83.484375 C 19.078125 85.351562 19.738281 86.902344 20.886719 88.074219 C 23.496094 90.769531 30.617188 93.015625 36.652344 94.996094 C 29.925781 96.242188 24.09375 102.367188 30.515625 107.90625 C 33.769531 110.753906 37.574219 110.234375 40.808594 108.296875 C 41.074219 108.777344 41.367188 109.257812 41.820312 109.738281 C 43.050781 111.050781 44.503906 111.742188 45.824219 112.167969 C 51.636719 114.042969 53.234375 112.449219 53.929688 116.414062 C 55.75 126.835938 73.441406 122.5625 80.84375 116.335938 L 80.863281 116.320312 L 80.878906 116.304688 C 85.625 112.210938 81.792969 109.003906 79.609375 107.667969 C 84.367188 103.875 89.316406 103.761719 93.222656 101.648438 C 93.101562 106.914062 99.425781 111.167969 105.46875 107.214844 L 105.492188 107.199219 L 105.511719 107.183594 C 106.890625 106.25 107.359375 104.894531 107.449219 103.746094 C 107.566406 102.269531 106.964844 100.867188 106.066406 99.574219 C 109.726562 99.863281 113.523438 99.570312 115.460938 98.734375 C 117.210938 97.984375 119.375 96.027344 118.722656 93.0625 C 117.613281 87.703125 112.378906 85.628906 107.863281 85.792969 C 104.25 85.925781 100.246094 87.671875 98.125 91.03125 C 96.675781 88.234375 93.203125 86.378906 90.851562 85.09375 C 92.09375 84.53125 93.535156 83.957031 95.226562 83.335938 C 105.652344 79.503906 123.414062 75.140625 121.839844 63.660156 C 121.425781 60.621094 119.605469 57.648438 116.730469 54.730469 L 75.238281 11.589844 L 75.1875 11.542969 C 71.921875 8.414062 67.632812 6.863281 63.421875 6.863281 Z M 118.722656 93.0625 C 118.726562 93.082031 118.742188 93.09375 118.746094 93.113281 L 118.722656 93.003906 C 118.726562 93.027344 118.71875 93.042969 118.722656 93.0625 Z M 41.820312 109.738281 C 41.816406 109.730469 41.8125 109.730469 41.804688 109.726562 L 41.839844 109.761719 C 41.832031 109.753906 41.832031 109.746094 41.820312 109.738281 Z M 30.515625 107.90625 C 30.511719 107.902344 30.507812 107.902344 30.503906 107.898438 L 30.53125 107.925781 C 30.527344 107.921875 30.523438 107.914062 30.515625 107.90625 Z M 20.886719 88.074219 C 20.882812 88.066406 20.867188 88.0625 20.859375 88.054688 L 20.894531 88.089844 C 20.894531 88.085938 20.890625 88.078125 20.890625 88.074219 Z M 20.886719 88.074219 "
     id="path2" />
  <path
     fill-rule="nonzero"
     fill="rgb(96.470588%, 96.078432%, 95.686275%)"
     fill-opacity="1"
     d="M 63.421875 5.277344 C 59.207031 5.277344 54.957031 6.835938 51.847656 10.058594 L 11.832031 51.695312 L 11.863281 51.664062 C 2.964844 60.703125 5.171875 67.144531 12.597656 70.601562 C 16.246094 72.300781 21.207031 73.386719 25.324219 74.617188 C 26.167969 74.867188 26.582031 75.160156 27.308594 75.414062 C 24.277344 76.867188 20.296875 78.699219 19.527344 81.898438 C 19.078125 83.765625 19.738281 85.316406 20.886719 86.492188 C 23.496094 89.183594 30.617188 91.433594 36.652344 93.410156 C 29.925781 94.65625 24.09375 100.785156 30.515625 106.324219 C 33.773438 109.171875 37.574219 108.648438 40.8125 106.710938 C 41.078125 107.191406 41.367188 107.671875 41.820312 108.152344 C 43.050781 109.464844 44.503906 110.15625 45.820312 110.582031 C 51.632812 112.457031 53.234375 110.867188 53.929688 114.832031 C 55.75 125.253906 73.441406 120.976562 80.84375 114.75 L 80.863281 114.734375 L 80.878906 114.71875 C 85.621094 110.625 81.792969 107.417969 79.609375 106.082031 C 84.371094 102.289062 89.316406 102.175781 93.222656 100.0625 C 93.101562 105.328125 99.425781 109.585938 105.46875 105.628906 L 105.492188 105.613281 L 105.511719 105.597656 C 106.890625 104.664062 107.359375 103.308594 107.449219 102.160156 C 107.566406 100.683594 106.964844 99.28125 106.066406 97.988281 C 109.726562 98.277344 113.519531 97.984375 115.460938 97.152344 C 117.210938 96.398438 119.375 94.445312 118.722656 91.480469 C 117.617188 86.121094 112.378906 84.042969 107.863281 84.207031 C 104.25 84.339844 100.246094 86.085938 98.125 89.445312 C 96.675781 86.648438 93.203125 84.796875 90.851562 83.511719 C 92.09375 82.945312 93.535156 82.375 95.226562 81.753906 C 105.652344 77.921875 123.414062 73.554688 121.839844 62.074219 C 121.425781 59.035156 119.605469 56.066406 116.730469 53.144531 L 75.238281 10.007812 L 75.1875 9.957031 C 71.921875 6.828125 67.632812 5.277344 63.421875 5.277344 Z M 118.722656 91.480469 C 118.726562 91.5 118.742188 91.511719 118.746094 91.53125 L 118.722656 91.421875 C 118.726562 91.441406 118.71875 91.457031 118.722656 91.480469 Z M 41.820312 108.152344 C 41.816406 108.144531 41.8125 108.144531 41.804688 108.140625 L 41.839844 108.175781 C 41.832031 108.167969 41.832031 108.160156 41.820312 108.152344 Z M 30.515625 106.324219 C 30.511719 106.320312 30.507812 106.320312 30.503906 106.316406 L 30.53125 106.34375 C 30.527344 106.335938 30.523438 106.328125 30.515625 106.324219 Z M 20.886719 86.492188 C 20.882812 86.484375 20.867188 86.476562 20.859375 86.472656 L 20.894531 86.503906 C 20.894531 86.5 20.890625 86.496094 20.890625 86.492188 Z M 20.886719 86.492188 "
     id="path4" />
  <path
     fill-rule="nonzero"
     fill="rgb(0%, 0%, 0%)"
     fill-opacity="1"
     d="M 54.390625 12.503906 L 14.375 54.136719 C -0.777344 69.527344 24.183594 68.246094 33.21875 74.066406 C 37.394531 76.828125 19.816406 80.382812 23.410156 84.03125 C 26.90625 87.683594 44.484375 91.039062 47.980469 94.589844 C 51.476562 98.238281 40.890625 102.085938 44.386719 105.738281 C 47.785156 109.386719 55.945312 105.933594 57.402344 114.222656 C 58.46875 120.339844 72.359375 117.28125 78.574219 112.050781 C 82.460938 108.699219 71.875 108.699219 75.371094 105.046875 C 84.113281 96.070312 91.882812 101 95.085938 92.714844 C 96.835938 88.273438 81.878906 85.117188 85.859375 82.257812 C 95.378906 75.449219 130.34375 71.996094 114.21875 55.617188 L 72.746094 12.503906 C 67.601562 7.570312 59.148438 7.570312 54.390625 12.503906 Z M 100.332031 92.714844 C 100.332031 94.785156 116.164062 95.96875 115.289062 92.222656 C 114.027344 85.90625 102.078125 86.398438 100.332031 92.714844 Z M 32.828125 103.664062 C 36.421875 106.824219 41.863281 102.976562 43.609375 98.535156 C 40.113281 93.898438 27.195312 98.832031 32.828125 103.664062 Z M 98.386719 97.054688 C 93.921875 101.199219 99.164062 105.539062 103.535156 102.679688 C 104.703125 101.890625 103.4375 98.042969 98.386719 97.054688 Z M 98.386719 97.054688 "
     id="path6" />
  <path
     fill-rule="nonzero"
     fill="rgb(14.117648%, 12.156863%, 19.215687%)"
     fill-opacity="1"
     d="M 63.425781 10.40625 C 60.074219 10.40625 56.773438 11.644531 54.394531 14.109375 L 14.378906 55.738281 C 11.429688 58.734375 10 61.09375 9.675781 63.003906 C 10.84375 69.332031 26.476562 69.71875 33.222656 74.066406 C 34.066406 74.621094 34 75.214844 33.425781 75.832031 C 36.144531 78.097656 25.109375 80.878906 23.222656 83.800781 C 23.28125 83.875 23.335938 83.957031 23.410156 84.035156 C 26.90625 87.683594 44.476562 91.03125 47.972656 94.582031 C 48.742188 95.382812 48.8125 96.199219 48.519531 97.019531 C 49.601562 99.613281 44.785156 102.289062 43.847656 104.910156 C 43.964844 105.1875 44.132812 105.460938 44.394531 105.738281 C 47.792969 109.386719 55.9375 105.933594 57.394531 114.222656 C 58.464844 120.339844 72.351562 117.28125 78.566406 112.050781 C 78.789062 111.859375 78.949219 111.6875 79.082031 111.519531 C 77.8125 110.144531 73.570312 109.40625 74.941406 107.207031 C 74.503906 106.640625 74.492188 105.964844 75.363281 105.050781 C 84.078125 96.101562 91.828125 100.96875 95.050781 92.800781 C 93.621094 89.273438 83.234375 86.589844 85.582031 84.144531 C 85.050781 83.492188 85.011719 82.867188 85.863281 82.253906 C 93.449219 76.828125 117.148438 73.523438 118.335938 64.128906 C 118.046875 62.109375 116.792969 59.828125 114.226562 57.222656 L 72.753906 14.109375 C 70.179688 11.644531 66.777344 10.40625 63.425781 10.40625 Z M 107.992188 89.332031 C 105.023438 89.441406 102.007812 90.785156 100.742188 93.269531 C 102.882812 94.792969 113.441406 95.460938 115.070312 93.144531 C 114.121094 90.46875 111.09375 89.21875 107.992188 89.332031 Z M 38.425781 98.300781 C 35.414062 98.480469 32.292969 100.003906 31.597656 101.972656 C 31.792969 102.523438 32.175781 103.097656 32.832031 103.660156 C 36.128906 106.554688 40.953125 103.554688 43.082031 99.613281 C 41.9375 98.582031 40.21875 98.191406 38.425781 98.300781 Z M 98.394531 98.660156 C 97.515625 99.476562 97.027344 100.292969 96.816406 101.066406 C 97.429688 103.316406 100.660156 104.558594 103.539062 102.675781 C 103.628906 102.613281 103.695312 102.523438 103.757812 102.425781 C 103.234375 101.015625 101.566406 99.277344 98.394531 98.660156 Z M 98.394531 98.660156 "
     id="path8" />
  <path
     fill-rule="nonzero"
     fill="rgb(0%, 0%, 0%)"
     fill-opacity="1"
     d="M 70.320312 17.066406 L 86.152344 33.441406 C 87.609375 34.921875 87.609375 37.980469 86.734375 38.871094 L 78.867188 32.359375 L 77.3125 41.929688 L 70.804688 38.375 L 60.21875 45.183594 L 56.722656 30.878906 L 51.089844 43.308594 L 37.007812 43.210938 C 34.285156 43.210938 34.675781 40.347656 37.492188 37.488281 C 43.027344 31.273438 53.808594 20.714844 57.207031 17.066406 C 60.703125 13.414062 66.824219 13.511719 70.320312 17.066406 Z M 70.320312 17.066406 "
     id="path10" />
  <path
     fill-rule="nonzero"
     fill="rgb(96.470588%, 96.078432%, 95.686275%)"
     fill-opacity="1"
     d="M 70.320312 15.460938 L 86.152344 31.839844 C 87.609375 33.320312 87.609375 36.378906 86.734375 37.265625 L 78.867188 30.753906 L 77.3125 40.324219 L 70.804688 36.773438 L 60.21875 43.582031 L 56.722656 29.273438 L 51.089844 41.707031 L 37.007812 41.609375 C 34.285156 41.609375 34.675781 38.746094 37.492188 35.886719 C 43.027344 29.667969 53.808594 19.113281 57.207031 15.460938 C 60.703125 11.8125 66.824219 11.910156 70.320312 15.460938 Z M 70.320312 15.460938 "
     id="path12" />
  <path
     fill-rule="nonzero"
     fill="rgb(0%, 0%, 0%)"
     fill-opacity="0.984314"
     d="M 44.777344 77.933594 C 45.648438 77.933594 74.691406 81.878906 63.519531 84.9375 C 59.246094 86.121094 39.628906 77.933594 44.777344 77.933594 Z M 44.777344 77.933594 "
     id="path14" />
  <path
     fill-rule="nonzero"
     fill="rgb(96.470588%, 96.078432%, 95.686275%)"
     fill-opacity="0.984314"
     d="M 44.777344 76.335938 C 45.648438 76.335938 74.691406 80.28125 63.519531 83.339844 C 59.246094 84.527344 39.628906 76.335938 44.777344 76.335938 Z M 44.777344 76.335938 "
     id="path16" />
  <metadata
     id="metadata197">
    <rdf:RDF>
      <cc:Work
         rdf:about="">
        <dc:title>Adwaita Icon Template</dc:title>
        <dc:creator>
          <cc:Agent>
            <dc:title>mechtifs@github.com</dc:title>
          </cc:Agent>
        </dc:creator>
        <cc:license
           rdf:resource="http://creativecommons.org/licenses/by-sa/4.0/" />
      </cc:Work>
      <cc:License
         rdf:about="http://creativecommons.org/licenses/by-sa/4.0/">
        <cc:permits
           rdf:resource="http://creativecommons.org/ns#Reproduction" />
        <cc:permits
           rdf:resource="http://creativecommons.org/ns#Distribution" />
        <cc:requires
           rdf:resource="http://creativecommons.org/ns#Notice" />
        <cc:requires
           rdf:resource="http://creativecommons.org/ns#Attribution" />
        <cc:permits
           rdf:resource="http://creativecommons.org/ns#DerivativeWorks" />
        <cc:requires
           rdf:resource="http://creativecommons.org/ns#ShareAlike" />
      </cc:License>
    </rdf:RDF>
  </metadata>
</svg>
