<?xml version="1.0" encoding="UTF-8" standalone="no"?>
<svg
   width="128"
   height="128"
   viewBox="0 0 128 128"
   version="1.1"
   id="svg25"
   sodipodi:docname="quartusii.svg"
   inkscape:version="1.2.1 (9c6d41e410, 2022-07-14)"
   xml:space="preserve"
   xmlns:inkscape="http://www.inkscape.org/namespaces/inkscape"
   xmlns:sodipodi="http://sodipodi.sourceforge.net/DTD/sodipodi-0.dtd"
   xmlns="http://www.w3.org/2000/svg"
   xmlns:svg="http://www.w3.org/2000/svg"
   xmlns:rdf="http://www.w3.org/1999/02/22-rdf-syntax-ns#"
   xmlns:cc="http://creativecommons.org/ns#"
   xmlns:dc="http://purl.org/dc/elements/1.1/"><title
     id="title204">Adwaita Icon Template</title><sodipodi:namedview
     id="namedview27"
     pagecolor="#505050"
     bordercolor="#eeeeee"
     borderopacity="1"
     inkscape:showpageshadow="0"
     inkscape:pageopacity="0"
     inkscape:pagecheckerboard="0"
     inkscape:deskcolor="#505050"
     showgrid="false"
     inkscape:zoom="2.6074563"
     inkscape:cx="54.459207"
     inkscape:cy="36.817492"
     inkscape:window-width="1792"
     inkscape:window-height="1051"
     inkscape:window-x="0"
     inkscape:window-y="0"
     inkscape:window-maximized="1"
     inkscape:current-layer="svg25" /><defs
     id="defs15"><linearGradient
       id="linear-pattern-0"
       gradientUnits="userSpaceOnUse"
       x1="48"
       y1="44"
       x2="464"
       y2="44"
       gradientTransform="matrix(0.25, 0, 0, 0.25, 0, 53)"><stop
         offset="0"
         stop-color="rgb(10.196079%, 37.254903%, 70.588237%)"
         stop-opacity="1"
         id="stop2" /><stop
         offset="0.0416667"
         stop-color="rgb(38.431373%, 62.7451%, 91.764706%)"
         stop-opacity="1"
         id="stop4" /><stop
         offset="0.0833333"
         stop-color="rgb(10.196079%, 37.254903%, 70.588237%)"
         stop-opacity="1"
         id="stop6" /><stop
         offset="0.916667"
         stop-color="rgb(10.196079%, 37.254903%, 70.588237%)"
         stop-opacity="1"
         id="stop8" /><stop
         offset="0.958333"
         stop-color="rgb(38.431373%, 62.7451%, 91.764706%)"
         stop-opacity="1"
         id="stop10" /><stop
         offset="1"
         stop-color="rgb(10.196079%, 37.254903%, 70.588237%)"
         stop-opacity="1"
         id="stop12" /></linearGradient></defs><metadata
     id="metadata202"><rdf:RDF><cc:Work
         rdf:about=""><dc:title>Adwaita Icon Template</dc:title><dc:creator><cc:Agent><dc:title>mechtifs@github.com</dc:title></cc:Agent></dc:creator><cc:license
           rdf:resource="http://creativecommons.org/licenses/by-sa/4.0/" /></cc:Work><cc:License
         rdf:about="http://creativecommons.org/licenses/by-sa/4.0/"><cc:permits
           rdf:resource="http://creativecommons.org/ns#Reproduction" /><cc:permits
           rdf:resource="http://creativecommons.org/ns#Distribution" /><cc:requires
           rdf:resource="http://creativecommons.org/ns#Notice" /><cc:requires
           rdf:resource="http://creativecommons.org/ns#Attribution" /><cc:permits
           rdf:resource="http://creativecommons.org/ns#DerivativeWorks" /><cc:requires
           rdf:resource="http://creativecommons.org/ns#ShareAlike" /></cc:License></rdf:RDF></metadata><g
     id="g2032"
     transform="translate(-7.1721903,-1.9594002)"><circle
       style="fill:#134481;fill-opacity:1;stroke-width:0.287357"
       id="circle2017"
       cx="65.64122"
       cy="67.359207"
       r="53.10532" /><path
       id="path365"
       style="fill:#f5f5f5;fill-opacity:1;stroke-width:0.283502"
       d="m 43.177583,12.487505 a 52.082866,31.192428 38.259179 0 0 -20.20977,8.24576 52.082866,31.192428 38.259179 0 0 -3.84401,18.492809 53.105321,53.105321 0 0 1 32.44441,-25.814473 52.082866,31.192428 38.259179 0 0 -8.39063,-0.924096 z" /><circle
       style="fill:#1a5fb4;fill-opacity:1;stroke-width:0.287357"
       id="path988"
       cx="65.64122"
       cy="64.559593"
       r="53.10532" /><circle
       style="fill:#134481;fill-opacity:1;stroke-width:0.247857"
       id="circle2021"
       cx="65.64122"
       cy="66.379456"
       r="45.805244" /><circle
       style="fill:#62a0ea;fill-opacity:1;stroke-width:0.247857"
       id="circle990"
       cx="65.64122"
       cy="64.559593"
       r="45.805244" /><rect
       style="fill:#134481;fill-opacity:1;stroke-width:0.280427"
       id="rect2019"
       width="45.660561"
       height="45.660549"
       x="94.182747"
       y="45.60878"
       ry="9.3700123"
       transform="rotate(8.8695671)" /><path
       id="path1808"
       style="fill:#134481;fill-opacity:1;stroke-width:0.283502"
       d="m 25.250703,20.23126 a 52.082866,31.192428 38.259179 0 0 -2.28289,2.321169 52.082866,31.192428 38.259179 0 0 21.57949,56.744284 52.082866,31.192428 38.259179 0 0 60.213727,7.756374 52.082866,31.192428 38.259179 0 0 3.78114,-19.313014 50.321222,26.086565 26.201115 0 1 -48.443847,-6.21713 50.321222,26.086565 26.201115 0 1 -34.84762,-41.291683 z" /><path
       id="ellipse985"
       style="fill:#f5f5f5;fill-opacity:1;stroke-width:0.283502"
       d="m 25.250703,18.412095 a 52.082866,31.192428 38.259179 0 0 -2.28289,2.32117 52.082866,31.192428 38.259179 0 0 21.57949,56.744283 52.082866,31.192428 38.259179 0 0 60.213727,7.756375 52.082866,31.192428 38.259179 0 0 3.78114,-19.313015 50.321222,26.086565 26.201115 0 1 -48.443847,-6.217131 50.321222,26.086565 26.201115 0 1 -34.84762,-41.291682 z" /><rect
       style="fill:#1a5fb4;fill-opacity:1;stroke-width:0.280427"
       id="rect1599"
       width="45.660561"
       height="45.660549"
       x="93.902153"
       y="43.811066"
       ry="9.3700123"
       transform="rotate(8.8695671)" /></g></svg>
