<?xml version="1.0" encoding="UTF-8" standalone="no"?>
<svg
   width="128"
   height="128"
   viewBox="0 0 128 128"
   version="1.1"
   id="svg29"
   sodipodi:docname="steam.svg"
   inkscape:version="1.2.1 (9c6d41e410, 2022-07-14)"
   xmlns:inkscape="http://www.inkscape.org/namespaces/inkscape"
   xmlns:sodipodi="http://sodipodi.sourceforge.net/DTD/sodipodi-0.dtd"
   xmlns="http://www.w3.org/2000/svg"
   xmlns:svg="http://www.w3.org/2000/svg"
   xmlns:rdf="http://www.w3.org/1999/02/22-rdf-syntax-ns#"
   xmlns:cc="http://creativecommons.org/ns#"
   xmlns:dc="http://purl.org/dc/elements/1.1/">
  <title
     id="title208">Adwaita Icon Template</title>
  <sodipodi:namedview
     id="namedview31"
     pagecolor="#505050"
     bordercolor="#eeeeee"
     borderopacity="1"
     inkscape:showpageshadow="0"
     inkscape:pageopacity="0"
     inkscape:pagecheckerboard="0"
     inkscape:deskcolor="#505050"
     showgrid="false"
     inkscape:zoom="1.84375"
     inkscape:cx="63.728814"
     inkscape:cy="64"
     inkscape:window-width="1792"
     inkscape:window-height="1051"
     inkscape:window-x="0"
     inkscape:window-y="0"
     inkscape:window-maximized="1"
     inkscape:current-layer="svg29" />
  <defs
     id="defs17">
    <linearGradient
       id="linear-pattern-0"
       gradientUnits="userSpaceOnUse"
       x1="64"
       y1="7"
       x2="63.999947"
       y2="125">
      <stop
         offset="0"
         stop-color="rgb(0%, 0%, 0%)"
         stop-opacity="1"
         id="stop2" />
      <stop
         offset="1"
         stop-color="rgb(7.058824%, 23.921569%, 46.27451%)"
         stop-opacity="1"
         id="stop4" />
    </linearGradient>
    <linearGradient
       id="linear-pattern-1"
       gradientUnits="userSpaceOnUse"
       x1="63.999935"
       y1="3"
       x2="63.999947"
       y2="122.999992">
      <stop
         offset="0"
         stop-color="rgb(0%, 0%, 0%)"
         stop-opacity="1"
         id="stop7" />
      <stop
         offset="1"
         stop-color="rgb(10.196079%, 37.254903%, 70.588237%)"
         stop-opacity="1"
         id="stop9" />
    </linearGradient>
    <linearGradient
       id="linear-pattern-2"
       gradientUnits="userSpaceOnUse"
       x1="99.574944"
       y1="43"
       x2="99.574944"
       y2="194.001816"
       gradientTransform="matrix(0.51464, 0, 0, 0.51464, 4.005486, 5.772649)">
      <stop
         offset="0"
         stop-color="rgb(1.176471%, 4.313726%, 7.843138%)"
         stop-opacity="1"
         id="stop12" />
      <stop
         offset="1"
         stop-color="rgb(7.058824%, 25.098041%, 47.450981%)"
         stop-opacity="1"
         id="stop14" />
    </linearGradient>
  </defs>
  <path
     fill-rule="nonzero"
     fill="url(#linear-pattern-0)"
     d="M 124 65 C 124 98.136719 97.136719 125 64 125 C 30.863281 125 4 98.136719 4 65 C 4 31.863281 30.863281 5 64 5 C 97.136719 5 124 31.863281 124 65 Z M 124 65 "
     id="path19" />
  <path
     fill-rule="nonzero"
     fill="rgb(83.529413%, 82.745099%, 81.176472%)"
     fill-opacity="1"
     d="M 64 7 C 94.929688 7 120 32.070312 120 63 L 120 65 C 120 95.929688 94.929688 121 64 121 C 33.070312 121 8 95.929688 8 65 L 8 63 C 8 32.070312 33.070312 7 64 7 Z M 64 7 "
     id="path21" />
  <path
     fill-rule="nonzero"
     fill="url(#linear-pattern-1)"
     d="M 124 63 C 124 96.136719 97.136719 123 64 123 C 30.863281 123 4 96.136719 4 63 C 4 29.863281 30.863281 3 64 3 C 97.136719 3 124 29.863281 124 63 Z M 124 63 "
     id="path23" />
  <path
     fill-rule="nonzero"
     fill="url(#linear-pattern-2)"
     d="M 83.644531 27.902344 C 71.089844 27.902344 60.875 38.136719 60.875 50.714844 C 60.875 50.8125 60.875 50.914062 60.878906 51.007812 L 46.207031 72.320312 C 43.832031 72.210938 41.445312 72.628906 39.183594 73.5625 C 38.1875 73.96875 37.253906 74.464844 36.375 75.042969 L 4.226562 61.808594 C 4.175781 62.394531 4.136719 62.980469 4.101562 63.566406 C 4.082031 64.332031 4.078125 65.148438 4.09375 66.332031 C 4.230469 72.121094 5.199219 77.863281 6.976562 83.375 L 29.296875 92.582031 C 30.441406 97.691406 33.945312 102.175781 39.121094 104.332031 C 47.582031 107.867188 57.335938 103.835938 60.859375 95.371094 C 61.773438 93.15625 62.199219 90.835938 62.140625 88.519531 L 83.128906 73.519531 C 83.300781 73.523438 83.476562 73.53125 83.644531 73.53125 C 96.207031 73.53125 106.417969 63.289062 106.417969 50.714844 C 106.417969 38.136719 96.207031 27.902344 83.644531 27.902344 Z M 83.644531 35.515625 C 92.015625 35.515625 98.824219 42.335938 98.824219 50.714844 C 98.824219 59.09375 92.015625 65.914062 83.644531 65.914062 C 75.285156 65.914062 68.472656 59.09375 68.472656 50.714844 C 68.472656 42.335938 75.285156 35.515625 83.644531 35.515625 Z M 83.671875 39.265625 C 77.382812 39.265625 72.277344 44.382812 72.277344 50.6875 C 72.277344 56.996094 77.382812 62.105469 83.671875 62.105469 C 89.964844 62.105469 95.070312 56.996094 95.070312 50.6875 C 95.070312 44.382812 89.964844 39.265625 83.671875 39.265625 Z M 45.652344 76.121094 C 47.253906 76.132812 48.875 76.449219 50.449219 77.101562 C 53.613281 78.417969 56.070312 80.898438 57.375 84.070312 C 58.675781 87.242188 58.671875 90.742188 57.355469 93.902344 C 54.628906 100.441406 47.113281 103.542969 40.578125 100.824219 C 37.5625 99.566406 35.289062 97.265625 33.972656 94.519531 L 41.390625 97.59375 C 46.207031 99.601562 51.734375 97.316406 53.738281 92.5 C 55.746094 87.679688 53.46875 82.140625 48.652344 80.132812 L 40.988281 76.957031 C 42.46875 76.394531 44.046875 76.105469 45.652344 76.121094 Z M 45.652344 76.121094 "
     id="path25" />
  <path
     fill-rule="nonzero"
     fill="rgb(96.470588%, 96.078432%, 95.686275%)"
     fill-opacity="1"
     d="M 60.875 47.984375 C 60.875 48.085938 60.875 48.1875 60.878906 48.28125 L 46.207031 69.59375 C 43.832031 69.484375 41.445312 69.902344 39.183594 70.832031 C 38.1875 71.238281 37.253906 71.738281 36.375 72.316406 L 4.160156 59.050781 C 4.160156 59.050781 3.414062 71.316406 6.523438 80.457031 L 29.296875 89.855469 C 30.441406 94.964844 33.945312 99.445312 39.117188 101.601562 C 47.582031 105.140625 57.335938 101.109375 60.859375 92.644531 C 61.773438 90.429688 62.199219 88.109375 62.140625 85.792969 L 83.132812 70.792969 C 83.300781 70.796875 83.476562 70.800781 83.644531 70.800781 C 96.207031 70.800781 106.417969 60.5625 106.417969 47.984375 C 106.417969 35.40625 96.207031 25.175781 83.644531 25.175781 C 71.089844 25.175781 60.875 35.40625 60.875 47.984375 Z M 57.351562 91.171875 C 54.628906 97.710938 47.113281 100.816406 40.578125 98.09375 C 37.5625 96.835938 35.289062 94.539062 33.976562 91.792969 L 41.386719 94.867188 C 46.207031 96.875 51.734375 94.589844 53.738281 89.773438 C 55.746094 84.949219 53.46875 79.410156 48.652344 77.40625 L 40.988281 74.230469 C 43.945312 73.109375 47.308594 73.066406 50.449219 74.375 C 53.613281 75.691406 56.070312 78.171875 57.375 81.339844 C 58.675781 84.511719 58.671875 88.011719 57.351562 91.171875 M 83.644531 63.183594 C 75.28125 63.183594 68.472656 56.367188 68.472656 47.984375 C 68.472656 39.609375 75.28125 32.785156 83.644531 32.785156 C 92.015625 32.785156 98.824219 39.609375 98.824219 47.984375 C 98.824219 56.367188 92.015625 63.183594 83.644531 63.183594 M 72.277344 47.960938 C 72.277344 41.65625 77.382812 36.539062 83.671875 36.539062 C 89.964844 36.539062 95.070312 41.65625 95.070312 47.960938 C 95.070312 54.265625 89.964844 59.375 83.671875 59.375 C 77.382812 59.375 72.277344 54.265625 72.277344 47.960938 Z M 72.277344 47.960938 "
     id="path27" />
  <metadata
     id="metadata206">
    <rdf:RDF>
      <cc:Work
         rdf:about="">
        <dc:title>Adwaita Icon Template</dc:title>
        <dc:creator>
          <cc:Agent>
            <dc:title>mechtifs@github.com</dc:title>
          </cc:Agent>
        </dc:creator>
        <cc:license
           rdf:resource="http://creativecommons.org/licenses/by-sa/4.0/" />
      </cc:Work>
      <cc:License
         rdf:about="http://creativecommons.org/licenses/by-sa/4.0/">
        <cc:permits
           rdf:resource="http://creativecommons.org/ns#Reproduction" />
        <cc:permits
           rdf:resource="http://creativecommons.org/ns#Distribution" />
        <cc:requires
           rdf:resource="http://creativecommons.org/ns#Notice" />
        <cc:requires
           rdf:resource="http://creativecommons.org/ns#Attribution" />
        <cc:permits
           rdf:resource="http://creativecommons.org/ns#DerivativeWorks" />
        <cc:requires
           rdf:resource="http://creativecommons.org/ns#ShareAlike" />
      </cc:License>
    </rdf:RDF>
  </metadata>
</svg>
