<?xml version="1.0" encoding="UTF-8" standalone="no"?>
<svg
   width="64"
   height="64"
   viewBox="0 0 64 64"
   version="1.1"
   id="svg14"
   sodipodi:docname="sublime-text.svg"
   inkscape:version="1.2.1 (9c6d41e410, 2022-07-14)"
   xmlns:inkscape="http://www.inkscape.org/namespaces/inkscape"
   xmlns:sodipodi="http://sodipodi.sourceforge.net/DTD/sodipodi-0.dtd"
   xmlns="http://www.w3.org/2000/svg"
   xmlns:svg="http://www.w3.org/2000/svg"
   xmlns:rdf="http://www.w3.org/1999/02/22-rdf-syntax-ns#"
   xmlns:cc="http://creativecommons.org/ns#"
   xmlns:dc="http://purl.org/dc/elements/1.1/">
  <title
     id="title195">Adwaita Icon Template</title>
  <defs
     id="defs18" />
  <sodipodi:namedview
     id="namedview16"
     pagecolor="#505050"
     bordercolor="#eeeeee"
     borderopacity="1"
     inkscape:showpageshadow="0"
     inkscape:pageopacity="0"
     inkscape:pagecheckerboard="0"
     inkscape:deskcolor="#505050"
     showgrid="false"
     inkscape:zoom="3.6875"
     inkscape:cx="31.864407"
     inkscape:cy="32"
     inkscape:window-width="1792"
     inkscape:window-height="1051"
     inkscape:window-x="0"
     inkscape:window-y="0"
     inkscape:window-maximized="1"
     inkscape:current-layer="svg14" />
  <path
     fill-rule="evenodd"
     fill="rgb(90.196079%, 38.039216%, 0%)"
     fill-opacity="1"
     d="M 52.996094 34.160156 C 52.996094 33.523438 52.523438 33.152344 51.945312 33.335938 L 12.054688 45.984375 C 11.472656 46.167969 11.003906 46.839844 11.003906 47.476562 L 11.003906 60.402344 C 11.003906 61.042969 11.472656 61.414062 12.054688 61.230469 L 51.945312 48.582031 C 52.523438 48.398438 52.996094 47.726562 52.996094 47.089844 Z M 52.996094 34.160156 "
     id="path2" />
  <path
     fill-rule="evenodd"
     fill="rgb(100%, 47.058824%, 0%)"
     fill-opacity="1"
     d="M 52.996094 32.160156 C 52.996094 31.523438 52.523438 31.152344 51.945312 31.335938 L 12.054688 43.984375 C 11.472656 44.167969 11.003906 44.839844 11.003906 45.476562 L 11.003906 58.402344 C 11.003906 59.042969 11.472656 59.414062 12.054688 59.230469 L 51.945312 46.582031 C 52.523438 46.398438 52.996094 45.726562 52.996094 45.089844 Z M 52.996094 32.160156 "
     id="path4" />
  <path
     fill-rule="evenodd"
     fill="rgb(90.196079%, 38.039216%, 0%)"
     fill-opacity="1"
     d="M 11.003906 33.75 C 11.003906 34.386719 11.472656 35.058594 12.054688 35.242188 L 51.949219 47.890625 C 52.53125 48.074219 53.003906 47.707031 53.003906 47.066406 L 53.003906 34.140625 C 53.003906 33.5 52.53125 32.832031 51.949219 32.648438 L 12.054688 19.996094 C 11.472656 19.8125 11.003906 20.183594 11.003906 20.820312 Z M 11.003906 33.75 "
     id="path6" />
  <path
     fill-rule="evenodd"
     fill="rgb(90.196079%, 38.039216%, 0%)"
     fill-opacity="1"
     d="M 52.996094 7.597656 C 52.996094 6.957031 52.523438 6.585938 51.945312 6.769531 L 12.054688 19.417969 C 11.472656 19.601562 11.003906 20.273438 11.003906 20.910156 L 11.003906 33.839844 C 11.003906 34.476562 11.472656 34.847656 12.054688 34.664062 L 51.945312 22.015625 C 52.523438 21.832031 52.996094 21.160156 52.996094 20.523438 Z M 52.996094 7.597656 "
     id="path8" />
  <path
     fill-rule="evenodd"
     fill="rgb(100%, 47.058824%, 0%)"
     fill-opacity="1"
     d="M 11.003906 31.75 C 11.003906 32.386719 11.472656 33.058594 12.054688 33.242188 L 51.949219 45.890625 C 52.53125 46.074219 53.003906 45.707031 53.003906 45.066406 L 53.003906 32.140625 C 53.003906 31.5 52.53125 30.832031 51.949219 30.648438 L 12.054688 17.996094 C 11.472656 17.8125 11.003906 18.183594 11.003906 18.820312 Z M 11.003906 31.75 "
     id="path10" />
  <path
     fill-rule="evenodd"
     fill="rgb(100%, 47.058824%, 0%)"
     fill-opacity="1"
     d="M 52.996094 5.597656 C 52.996094 4.957031 52.523438 4.585938 51.945312 4.769531 L 12.054688 17.417969 C 11.472656 17.601562 11.003906 18.273438 11.003906 18.910156 L 11.003906 31.839844 C 11.003906 32.476562 11.472656 32.847656 12.054688 32.664062 L 51.945312 20.015625 C 52.523438 19.832031 52.996094 19.160156 52.996094 18.523438 Z M 52.996094 5.597656 "
     id="path12" />
  <metadata
     id="metadata193">
    <rdf:RDF>
      <cc:Work
         rdf:about="">
        <dc:title>Adwaita Icon Template</dc:title>
        <dc:creator>
          <cc:Agent>
            <dc:title>mechtifs@github.com</dc:title>
          </cc:Agent>
        </dc:creator>
        <cc:license
           rdf:resource="http://creativecommons.org/licenses/by-sa/4.0/" />
      </cc:Work>
      <cc:License
         rdf:about="http://creativecommons.org/licenses/by-sa/4.0/">
        <cc:permits
           rdf:resource="http://creativecommons.org/ns#Reproduction" />
        <cc:permits
           rdf:resource="http://creativecommons.org/ns#Distribution" />
        <cc:requires
           rdf:resource="http://creativecommons.org/ns#Notice" />
        <cc:requires
           rdf:resource="http://creativecommons.org/ns#Attribution" />
        <cc:permits
           rdf:resource="http://creativecommons.org/ns#DerivativeWorks" />
        <cc:requires
           rdf:resource="http://creativecommons.org/ns#ShareAlike" />
      </cc:License>
    </rdf:RDF>
  </metadata>
</svg>
