<?xml version="1.0" encoding="UTF-8" standalone="no"?>
<svg
   width="128"
   height="128"
   viewBox="0 0 128 128"
   version="1.1"
   id="svg12"
   sodipodi:docname="v2raya.svg"
   inkscape:version="1.2.1 (9c6d41e410, 2022-07-14)"
   xmlns:inkscape="http://www.inkscape.org/namespaces/inkscape"
   xmlns:sodipodi="http://sodipodi.sourceforge.net/DTD/sodipodi-0.dtd"
   xmlns="http://www.w3.org/2000/svg"
   xmlns:svg="http://www.w3.org/2000/svg"
   xmlns:rdf="http://www.w3.org/1999/02/22-rdf-syntax-ns#"
   xmlns:cc="http://creativecommons.org/ns#"
   xmlns:dc="http://purl.org/dc/elements/1.1/">
  <title
     id="title193">Adwaita Icon Template</title>
  <defs
     id="defs16" />
  <sodipodi:namedview
     id="namedview14"
     pagecolor="#505050"
     bordercolor="#eeeeee"
     borderopacity="1"
     inkscape:showpageshadow="0"
     inkscape:pageopacity="0"
     inkscape:pagecheckerboard="0"
     inkscape:deskcolor="#505050"
     showgrid="false"
     inkscape:zoom="1.84375"
     inkscape:cx="63.728814"
     inkscape:cy="64"
     inkscape:window-width="1792"
     inkscape:window-height="1051"
     inkscape:window-x="0"
     inkscape:window-y="0"
     inkscape:window-maximized="1"
     inkscape:current-layer="svg12" />
  <path
     fill-rule="nonzero"
     fill="rgb(6.27451%, 16.862746%, 29.411766%)"
     fill-opacity="1"
     d="M 124 65 C 124 98.136719 97.136719 125 64 125 C 30.863281 125 4 98.136719 4 65 C 4 31.863281 30.863281 5 64 5 C 97.136719 5 124 31.863281 124 65 Z M 124 65 "
     id="path2" />
  <path
     fill-rule="nonzero"
     fill="rgb(83.529413%, 82.745099%, 81.176472%)"
     fill-opacity="1"
     d="M 64 7 C 94.929688 7 120 32.070312 120 63 L 120 65 C 120 95.929688 94.929688 121 64 121 C 33.070312 121 8 95.929688 8 65 L 8 63 C 8 32.070312 33.070312 7 64 7 Z M 64 7 "
     id="path4" />
  <path
     fill-rule="nonzero"
     fill="rgb(10.588235%, 27.450982%, 48.235294%)"
     fill-opacity="1"
     d="M 124 63 C 124 96.136719 97.136719 123 64 123 C 30.863281 123 4 96.136719 4 63 C 4 29.863281 30.863281 3 64 3 C 97.136719 3 124 29.863281 124 63 Z M 124 63 "
     id="path6" />
  <path
     fill-rule="nonzero"
     fill="rgb(6.27451%, 16.862746%, 29.411766%)"
     fill-opacity="1"
     d="M 86.589844 27.796875 C 86.441406 27.789062 86.371094 27.917969 86.472656 28.183594 C 86.585938 28.476562 86.433594 28.582031 85.902344 28.582031 C 85.179688 28.582031 85.179688 28.589844 85.175781 30.511719 C 85.175781 32.152344 85.042969 32.71875 84.285156 34.304688 C 83.792969 35.328125 83.351562 36.671875 83.304688 37.292969 C 83.257812 37.910156 83.03125 38.683594 82.800781 39.015625 C 82.273438 39.769531 82.265625 40.339844 82.792969 39.640625 C 83.007812 39.359375 83.183594 39.265625 83.183594 39.4375 C 83.183594 39.605469 82.882812 39.941406 82.515625 40.183594 C 82.152344 40.421875 81.851562 40.859375 81.851562 41.152344 C 81.851562 41.445312 81.332031 42.539062 80.695312 43.582031 C 80.058594 44.625 77.945312 48.414062 76 52 C 74.054688 55.585938 71.414062 60.4375 70.132812 62.777344 C 67.808594 67.027344 60.296875 82.074219 60.296875 82.480469 C 60.296875 82.878906 58.617188 86.339844 58.488281 86.210938 C 58.417969 86.140625 58.316406 85.660156 58.257812 85.148438 C 58.105469 83.75 55.75 77.28125 55.398438 77.28125 C 55.328125 77.28125 55.34375 77.722656 55.429688 78.257812 C 55.566406 79.09375 55.523438 79.210938 55.148438 79.066406 C 54.832031 78.945312 54.707031 79.039062 54.707031 79.410156 C 54.707031 79.71875 54.570312 79.875 54.371094 79.796875 C 54.011719 79.660156 52.84375 76.667969 52.84375 75.886719 C 52.84375 75.628906 52.722656 75.417969 52.578125 75.417969 C 52.429688 75.417969 52.3125 75.191406 52.3125 74.910156 C 52.3125 74.628906 52.175781 74.355469 52.011719 74.300781 C 51.847656 74.246094 51.652344 73.578125 51.578125 72.8125 C 51.503906 72.050781 51.339844 71.425781 51.214844 71.425781 C 51.085938 71.425781 50.980469 71.121094 50.980469 70.75 C 50.980469 70.375 50.816406 69.746094 50.617188 69.351562 C 50.417969 68.957031 50.046875 67.765625 49.792969 66.703125 C 49.535156 65.640625 49.21875 64.703125 49.089844 64.625 C 48.957031 64.542969 48.851562 64.128906 48.851562 63.703125 C 48.851562 63.277344 48.683594 62.535156 48.476562 62.054688 C 48.269531 61.574219 47.886719 60.253906 47.625 59.121094 C 47.363281 57.984375 47.066406 57.058594 46.960938 57.058594 C 46.859375 57.058594 46.734375 56.511719 46.679688 55.84375 C 46.585938 54.644531 46.589844 54.636719 47.050781 55.207031 C 47.3125 55.523438 47.523438 55.949219 47.523438 56.152344 C 47.523438 56.695312 51.003906 67.238281 51.136719 67.101562 C 51.199219 67.039062 50.847656 65.621094 50.351562 63.953125 C 49.722656 61.828125 49.488281 60.582031 49.578125 59.808594 C 49.644531 59.199219 49.574219 58.480469 49.417969 58.210938 C 49.148438 57.746094 49.132812 57.75 49.117188 58.253906 C 49.101562 58.648438 48.976562 58.546875 48.632812 57.855469 C 47.992188 56.574219 47.042969 54.148438 46.835938 53.265625 C 46.613281 52.316406 47.058594 52.316406 47.464844 53.265625 C 47.761719 53.960938 47.769531 53.964844 47.660156 53.332031 C 47.339844 51.5 46.472656 48.246094 45.957031 46.945312 C 45.269531 45.214844 44.605469 40.945312 44.597656 38.21875 C 44.59375 35.988281 44.191406 34.839844 42.835938 33.1875 C 41.652344 31.742188 40.652344 31.238281 37.195312 30.332031 C 34.933594 29.742188 33.84375 29.613281 30.941406 29.589844 C 27.851562 29.566406 27.261719 29.636719 26.050781 30.160156 C 24.875 30.671875 24.570312 30.964844 23.960938 32.167969 C 23.453125 33.171875 23.304688 33.757812 23.449219 34.207031 C 23.625 34.761719 25.972656 39.558594 27.925781 43.351562 C 28.804688 45.054688 29.621094 47.757812 29.941406 50.035156 C 30.082031 51.015625 30.382812 52.007812 30.613281 52.238281 C 30.996094 52.621094 31.019531 52.574219 30.894531 51.730469 L 30.757812 50.804688 L 31.046875 51.726562 C 31.25 52.386719 31.25 52.679688 31.046875 52.746094 C 30.75 52.84375 31.136719 53.84375 31.585938 54.140625 C 31.703125 54.21875 32.226562 56.125 32.746094 58.371094 C 33.269531 60.621094 33.855469 62.59375 34.050781 62.753906 C 34.246094 62.914062 34.5625 63.621094 34.75 64.328125 C 34.949219 65.070312 35.171875 65.476562 35.285156 65.296875 C 35.390625 65.125 35.542969 65.089844 35.625 65.21875 C 35.96875 65.773438 36.875 69.878906 36.875 70.875 C 36.875 71.472656 36.976562 71.960938 37.101562 71.960938 C 37.339844 71.960938 38.5625 75.710938 38.621094 76.632812 C 38.644531 76.933594 38.851562 77.472656 39.085938 77.832031 C 39.570312 78.570312 40.3125 81.261719 40.367188 82.472656 C 40.417969 83.601562 41.847656 88.277344 42.753906 90.28125 C 43.328125 91.550781 43.453125 92.09375 43.257812 92.460938 C 43.113281 92.730469 42.996094 93.195312 42.996094 93.5 C 42.996094 93.800781 42.878906 94.046875 42.730469 94.046875 C 42.585938 94.046875 42.464844 94.351562 42.464844 94.71875 C 42.464844 95.535156 41.460938 97.132812 40.742188 97.453125 C 40.226562 97.683594 40.226562 97.695312 40.800781 98.003906 C 41.296875 98.269531 41.363281 98.253906 41.234375 97.914062 C 41.042969 97.414062 41.789062 97.359375 42.183594 97.839844 C 42.335938 98.023438 43.089844 98.941406 43.859375 99.882812 C 45.539062 101.9375 46.453125 102.914062 46.996094 103.246094 C 47.21875 103.382812 47.867188 104.453125 48.4375 105.625 C 49.878906 108.574219 51.585938 110.1875 55.054688 111.875 C 56.546875 112.601562 58.023438 113.199219 58.332031 113.203125 C 59.316406 113.214844 61.417969 112.144531 61.253906 111.71875 C 61.136719 111.414062 61.210938 111.390625 61.613281 111.605469 C 62.535156 112.101562 63.164062 111.898438 64.003906 110.832031 C 64.496094 110.214844 65.152344 109.71875 65.617188 109.617188 C 66.589844 109.402344 69.316406 107.195312 69.628906 106.367188 C 69.785156 105.964844 70.082031 105.757812 70.507812 105.757812 C 71.066406 105.757812 71.199219 105.570312 71.480469 104.359375 C 71.664062 103.59375 71.996094 102.605469 72.226562 102.164062 C 72.457031 101.726562 72.726562 100.707031 72.828125 99.902344 C 72.925781 99.097656 73.371094 97.480469 73.808594 96.308594 C 75.03125 93.054688 75.578125 91.132812 75.515625 90.308594 C 75.484375 89.894531 75.578125 89.484375 75.726562 89.394531 C 76.125 89.148438 76.054688 88.726562 75.613281 88.726562 C 75.042969 88.726562 74.398438 89.792969 74.398438 90.738281 C 74.398438 91.234375 74.183594 91.765625 73.867188 92.050781 C 73.304688 92.5625 73.109375 92.25 73.65625 91.707031 C 73.902344 91.457031 73.902344 91.386719 73.65625 91.386719 C 73.152344 91.386719 73.28125 90.183594 73.902344 89.074219 L 74.472656 88.058594 L 73.503906 89.039062 C 72.4375 90.125 71.871094 91.273438 72.28125 91.527344 C 72.679688 91.773438 72.582031 92.183594 72.128906 92.183594 C 71.90625 92.183594 71.652344 92.363281 71.570312 92.585938 C 71.398438 93.027344 70.675781 93.136719 70.675781 92.71875 C 70.675781 92.570312 70.792969 92.453125 70.941406 92.453125 C 71.085938 92.453125 71.207031 92.324219 71.207031 92.167969 C 71.207031 92.015625 71.085938 91.960938 70.941406 92.050781 C 70.195312 92.515625 70.988281 90.019531 71.929688 88.941406 C 72.144531 88.695312 72.25 88.375 72.160156 88.230469 C 72.074219 88.089844 72.179688 87.789062 72.402344 87.570312 C 72.621094 87.347656 72.800781 86.949219 72.800781 86.683594 C 72.796875 86.28125 72.753906 86.265625 72.546875 86.589844 C 72.410156 86.804688 72.21875 86.902344 72.125 86.804688 C 72.027344 86.707031 72.207031 86.261719 72.527344 85.8125 C 72.84375 85.367188 72.992188 85 72.851562 85 C 72.347656 85 72.253906 84.15625 72.746094 84.027344 C 73.277344 83.886719 74.332031 82.328125 75.453125 80.011719 C 75.867188 79.160156 76.398438 78.300781 76.632812 78.105469 C 76.867188 77.910156 77.0625 77.410156 77.0625 77 C 77.0625 76.117188 77.9375 74.539062 78.980469 73.542969 C 79.390625 73.152344 79.722656 72.761719 79.722656 72.671875 C 79.722656 72.582031 80.023438 71.851562 80.386719 71.054688 C 80.753906 70.253906 81.054688 69.421875 81.054688 69.207031 C 81.054688 68.988281 81.148438 68.769531 81.261719 68.722656 C 81.378906 68.671875 81.886719 68.105469 82.394531 67.464844 C 83 66.691406 83.203125 66.253906 82.984375 66.179688 C 82.417969 65.980469 83.125 65.039062 83.839844 65.039062 C 84.195312 65.039062 84.546875 64.933594 84.628906 64.804688 C 84.820312 64.492188 84.125 63.925781 83.855469 64.179688 C 83.742188 64.285156 83.832031 64.007812 84.0625 63.558594 C 84.289062 63.109375 84.664062 62.585938 84.894531 62.394531 C 85.125 62.203125 85.3125 61.90625 85.3125 61.730469 C 85.3125 61.558594 85.683594 61.0625 86.140625 60.632812 C 86.597656 60.203125 87.140625 59.460938 87.34375 58.988281 C 87.546875 58.511719 87.820312 58.121094 87.949219 58.121094 C 88.335938 58.121094 89.363281 56.195312 89.070312 56.015625 C 88.707031 55.789062 91.195312 52.5625 91.746094 52.546875 C 92.222656 52.53125 92.855469 51.996094 93.269531 51.257812 C 93.726562 50.4375 93.867188 51.125 93.445312 52.132812 C 93.21875 52.675781 93.101562 53.234375 93.1875 53.371094 C 93.347656 53.632812 87.730469 65.371094 87.363281 65.53125 C 87.171875 65.617188 85.578125 68.933594 85.578125 69.253906 C 85.578125 69.332031 85.9375 69.054688 86.375 68.632812 C 86.816406 68.210938 87.175781 67.695312 87.175781 67.484375 C 87.175781 67.269531 87.488281 66.804688 87.875 66.445312 C 88.308594 66.046875 88.515625 65.960938 88.417969 66.21875 C 88.324219 66.460938 88.394531 66.636719 88.585938 66.636719 C 88.769531 66.636719 89.082031 66.089844 89.28125 65.417969 C 89.480469 64.746094 89.878906 63.972656 90.171875 63.703125 C 90.554688 63.34375 90.652344 63.023438 90.527344 62.523438 C 90.40625 62.035156 90.472656 61.789062 90.761719 61.679688 C 90.984375 61.59375 91.164062 61.246094 91.164062 60.90625 C 91.164062 60.566406 91.351562 60.105469 91.574219 59.878906 C 91.800781 59.652344 92.300781 58.777344 92.683594 57.929688 C 93.066406 57.085938 93.542969 56.296875 93.738281 56.175781 C 93.945312 56.054688 94.046875 55.6875 93.980469 55.316406 C 93.917969 54.960938 93.96875 54.605469 94.101562 54.523438 C 94.230469 54.445312 94.269531 54.203125 94.1875 53.988281 C 94.09375 53.742188 94.199219 53.597656 94.46875 53.597656 C 94.710938 53.597656 95.023438 53.292969 95.164062 52.917969 C 95.304688 52.542969 95.546875 52.3125 95.695312 52.402344 C 95.847656 52.496094 96.285156 51.867188 96.695312 50.964844 C 97.09375 50.082031 97.539062 49.351562 97.6875 49.34375 C 97.832031 49.335938 98.652344 48.257812 99.511719 46.949219 C 100.367188 45.640625 101.652344 43.898438 102.367188 43.082031 C 104.328125 40.84375 104.90625 39.40625 104.460938 37.863281 C 103.933594 36.023438 99.9375 32.050781 98.441406 31.882812 C 98.128906 31.847656 96.992188 31.4375 95.914062 30.972656 C 90.78125 28.75 89.507812 28.320312 88.519531 28.476562 C 87.8125 28.589844 87.453125 28.515625 87.195312 28.207031 C 86.972656 27.9375 86.742188 27.800781 86.589844 27.796875 Z M 95.132812 54.140625 C 95.078125 54.078125 94.9375 54.316406 94.648438 54.929688 C 94.347656 55.554688 94.355469 55.5625 94.742188 55.078125 C 94.972656 54.792969 95.15625 54.445312 95.15625 54.300781 C 95.15625 54.214844 95.148438 54.164062 95.132812 54.140625 Z M 86.582031 54.417969 C 86.613281 54.414062 86.632812 54.433594 86.632812 54.480469 C 86.636719 54.601562 86.332031 55.230469 85.949219 55.878906 C 85.210938 57.144531 85.046875 57.285156 85.046875 56.65625 C 85.046875 56.4375 85.164062 56.257812 85.3125 56.257812 C 85.457031 56.257812 85.578125 56.09375 85.578125 55.890625 C 85.578125 55.546875 86.375 54.441406 86.582031 54.417969 Z M 46.847656 57.710938 C 46.863281 57.71875 46.882812 57.742188 46.898438 57.789062 C 46.972656 57.972656 46.972656 58.269531 46.898438 58.453125 C 46.824219 58.636719 46.765625 58.488281 46.765625 58.121094 C 46.765625 57.847656 46.800781 57.695312 46.847656 57.710938 Z M 84.4375 58.195312 C 84.480469 58.179688 84.472656 58.261719 84.417969 58.4375 C 84.339844 58.683594 84.417969 58.933594 84.59375 58.992188 C 85.050781 59.144531 83.863281 61.578125 82.878906 62.503906 C 82.449219 62.910156 81.929688 63.644531 81.722656 64.140625 C 81.515625 64.636719 81.21875 65.039062 81.066406 65.039062 C 80.914062 65.039062 80.785156 65.25 80.78125 65.507812 C 80.777344 65.917969 78.375 70.511719 76.019531 74.601562 C 75.507812 75.488281 75.292969 76.113281 75.460938 76.214844 C 75.621094 76.316406 75.363281 76.816406 74.835938 77.433594 C 73.800781 78.644531 71.738281 82.609375 71.738281 83.390625 C 71.738281 84.09375 70.964844 86.074219 70.457031 86.664062 C 70.238281 86.917969 69.949219 87.128906 69.816406 87.128906 C 69.683594 87.128906 69.628906 86.917969 69.699219 86.664062 C 69.769531 86.40625 69.90625 85.839844 70.003906 85.398438 C 70.097656 84.960938 70.632812 83.523438 71.191406 82.207031 C 71.75 80.886719 72.355469 79.304688 72.542969 78.6875 C 72.730469 78.070312 72.984375 77.628906 73.109375 77.707031 C 73.234375 77.785156 73.335938 77.652344 73.335938 77.417969 C 73.335938 77.183594 73.628906 76.71875 73.992188 76.382812 C 74.351562 76.050781 74.886719 75.21875 75.175781 74.539062 C 75.539062 73.695312 75.828125 73.34375 76.085938 73.445312 C 76.328125 73.539062 76.523438 73.355469 76.628906 72.933594 C 76.71875 72.570312 76.875 72.066406 76.972656 71.808594 C 77.09375 71.488281 77.054688 71.402344 76.839844 71.53125 C 76.652344 71.648438 76.527344 71.558594 76.527344 71.3125 C 76.527344 71.082031 76.703125 70.894531 76.914062 70.894531 C 77.125 70.894531 77.453125 70.601562 77.644531 70.242188 C 77.835938 69.886719 78.789062 68.058594 79.765625 66.183594 C 82.265625 61.371094 82.742188 60.589844 83.089844 60.707031 C 83.257812 60.761719 83.648438 60.453125 83.957031 60.019531 C 84.4375 59.34375 84.457031 59.214844 84.105469 59.140625 C 83.730469 59.0625 83.730469 59 84.121094 58.519531 C 84.289062 58.3125 84.390625 58.207031 84.4375 58.195312 Z M 34.507812 61.855469 C 34.527344 61.851562 34.601562 61.964844 34.746094 62.1875 C 34.910156 62.449219 34.996094 62.925781 34.933594 63.253906 C 34.820312 63.84375 34.820312 63.84375 34.785156 63.265625 C 34.765625 62.949219 34.679688 62.46875 34.59375 62.203125 C 34.523438 61.972656 34.488281 61.855469 34.507812 61.855469 Z M 86.191406 64.671875 C 86.070312 64.742188 85.683594 65.175781 84.917969 66.039062 C 84.367188 66.660156 84 67.167969 84.101562 67.167969 C 84.652344 67.167969 85.375 66.488281 85.871094 65.496094 C 86.171875 64.898438 86.316406 64.601562 86.191406 64.671875 Z M 48.519531 64.875 C 48.6875 64.875 48.851562 65.078125 48.851562 65.484375 C 48.851562 65.839844 48.691406 66.105469 48.480469 66.105469 C 48.257812 66.105469 48.125 65.855469 48.148438 65.484375 C 48.171875 65.078125 48.347656 64.875 48.519531 64.875 Z M 84.144531 67.703125 C 83.765625 67.703125 83.449219 68.5 83.464844 69.433594 C 83.46875 69.832031 83.597656 69.730469 83.980469 69.03125 C 84.597656 67.90625 84.621094 67.703125 84.144531 67.703125 Z M 84.960938 70.328125 C 84.65625 70.382812 83.996094 71.585938 81.773438 75.773438 C 80.054688 79.019531 77.964844 83.050781 77.132812 84.734375 C 76.300781 86.417969 75.574219 87.882812 75.519531 87.992188 C 75.464844 88.105469 75.589844 88.195312 75.800781 88.195312 C 76.007812 88.195312 76.339844 87.703125 76.539062 87.101562 C 76.738281 86.5 77.039062 85.953125 77.210938 85.890625 C 77.382812 85.824219 77.75 85.296875 78.023438 84.722656 C 78.300781 84.148438 78.613281 83.675781 78.726562 83.671875 C 78.835938 83.671875 78.925781 83.3125 78.925781 82.875 C 78.925781 82.367188 79.117188 81.957031 79.457031 81.746094 C 80.058594 81.371094 80.152344 80.851562 79.65625 80.652344 C 79.460938 80.574219 79.519531 80.507812 79.800781 80.496094 C 80.894531 80.449219 83.441406 77.015625 82.378906 77.015625 C 82.121094 77.015625 82.121094 76.933594 82.382812 76.621094 C 82.5625 76.402344 82.640625 76.050781 82.558594 75.835938 C 82.46875 75.601562 82.742188 75.167969 83.238281 74.746094 C 84.375 73.792969 85.207031 72.226562 84.738281 71.9375 C 84.480469 71.773438 84.53125 71.667969 84.941406 71.507812 C 85.421875 71.324219 85.453125 71.203125 85.199219 70.585938 C 85.128906 70.417969 85.0625 70.308594 84.960938 70.328125 Z M 52.121094 70.464844 C 52.09375 70.492188 52.074219 70.585938 52.066406 70.742188 C 52.054688 71.019531 52.117188 71.179688 52.207031 71.089844 C 52.292969 71 52.304688 70.773438 52.226562 70.578125 C 52.183594 70.472656 52.148438 70.4375 52.121094 70.464844 Z M 82.144531 71.402344 C 82.023438 71.40625 81.828125 71.769531 80.964844 73.367188 C 80.429688 74.359375 79.988281 75.347656 79.988281 75.5625 C 79.988281 75.777344 80.046875 75.953125 80.117188 75.953125 C 80.347656 75.953125 82.421875 71.644531 82.265625 71.488281 C 82.21875 71.441406 82.1875 71.402344 82.144531 71.402344 Z M 38.804688 73.933594 C 38.878906 73.863281 39 74.046875 39.078125 74.34375 C 39.15625 74.644531 39.167969 74.886719 39.105469 74.886719 C 38.917969 74.886719 38.660156 74.078125 38.804688 73.933594 Z M 77.117188 74.621094 C 77.503906 74.621094 77.332031 75.332031 76.839844 75.777344 C 76.089844 76.457031 75.917969 76.300781 76.4375 75.417969 C 76.699219 74.980469 77.003906 74.621094 77.117188 74.621094 Z M 53.898438 76.765625 C 53.761719 76.796875 53.632812 76.925781 53.546875 77.148438 C 53.375 77.59375 53.417969 77.617188 54.019531 77.386719 C 54.25 77.300781 54.371094 77.121094 54.289062 76.988281 C 54.179688 76.808594 54.035156 76.738281 53.898438 76.765625 Z M 55.160156 80.4375 C 55.375 80.359375 55.476562 80.535156 55.683594 81.09375 C 55.855469 81.558594 56.007812 82.128906 56.015625 82.359375 C 56.027344 82.59375 55.859375 82.78125 55.636719 82.78125 C 55.417969 82.78125 55.238281 82.5625 55.238281 82.292969 C 55.238281 82.027344 55.132812 81.804688 55 81.804688 C 54.511719 81.804688 54.4375 80.933594 54.902344 80.59375 C 55.003906 80.519531 55.089844 80.464844 55.160156 80.4375 Z M 55.960938 84.382812 C 56.09375 84.300781 56.328125 84.574219 56.484375 84.988281 C 56.648438 85.425781 56.671875 85.894531 56.539062 86.105469 C 56.378906 86.359375 56.3125 86.265625 56.308594 85.785156 C 56.304688 85.414062 56.171875 84.976562 56.015625 84.816406 C 55.855469 84.65625 55.832031 84.460938 55.960938 84.382812 Z M 69.320312 85.265625 C 69.453125 85.265625 69.496094 85.503906 69.421875 85.796875 C 69.34375 86.089844 69.234375 86.332031 69.179688 86.332031 C 69.125 86.332031 69.078125 86.089844 69.078125 85.796875 C 69.078125 85.503906 69.1875 85.265625 69.320312 85.265625 Z M 69.625 87.925781 C 69.796875 87.925781 69.859375 88.113281 69.773438 88.347656 C 69.683594 88.578125 69.609375 88.871094 69.609375 88.996094 C 69.609375 89.117188 69.4375 89.394531 69.226562 89.605469 C 69.011719 89.816406 68.664062 90.394531 68.449219 90.886719 C 68.164062 91.539062 68.050781 91.636719 68.039062 91.253906 C 68.011719 90.519531 69.25 87.925781 69.625 87.925781 Z M 69.625 87.925781 "
     id="path8" />
  <path
     fill-rule="nonzero"
     fill="rgb(96.470588%, 96.078432%, 95.686275%)"
     fill-opacity="1"
     d="M 86.589844 24.964844 C 86.441406 24.957031 86.371094 25.085938 86.472656 25.351562 C 86.585938 25.644531 86.433594 25.75 85.902344 25.75 C 85.179688 25.75 85.179688 25.757812 85.175781 27.679688 C 85.175781 29.320312 85.042969 29.886719 84.285156 31.472656 C 83.792969 32.496094 83.351562 33.839844 83.304688 34.457031 C 83.257812 35.078125 83.03125 35.851562 82.800781 36.179688 C 82.273438 36.9375 82.265625 37.507812 82.792969 36.808594 C 83.007812 36.523438 83.183594 36.433594 83.183594 36.605469 C 83.183594 36.773438 82.882812 37.109375 82.515625 37.351562 C 82.152344 37.589844 81.851562 38.027344 81.851562 38.316406 C 81.851562 38.609375 81.332031 39.703125 80.695312 40.75 C 80.058594 41.792969 77.945312 45.582031 76 49.167969 C 74.054688 52.753906 71.414062 57.605469 70.132812 59.945312 C 67.808594 64.195312 60.296875 79.242188 60.296875 79.648438 C 60.296875 80.046875 58.617188 83.507812 58.488281 83.378906 C 58.417969 83.308594 58.316406 82.828125 58.257812 82.316406 C 58.105469 80.917969 55.75 74.449219 55.398438 74.449219 C 55.328125 74.449219 55.34375 74.890625 55.429688 75.425781 C 55.566406 76.261719 55.523438 76.378906 55.148438 76.234375 C 54.832031 76.109375 54.707031 76.207031 54.707031 76.578125 C 54.707031 76.886719 54.570312 77.042969 54.371094 76.964844 C 54.011719 76.828125 52.84375 73.835938 52.84375 73.054688 C 52.84375 72.796875 52.722656 72.585938 52.578125 72.585938 C 52.429688 72.585938 52.3125 72.359375 52.3125 72.078125 C 52.3125 71.796875 52.175781 71.523438 52.011719 71.46875 C 51.847656 71.410156 51.652344 70.742188 51.578125 69.980469 C 51.503906 69.21875 51.339844 68.59375 51.214844 68.59375 C 51.085938 68.59375 50.980469 68.289062 50.980469 67.917969 C 50.980469 67.542969 50.816406 66.914062 50.617188 66.519531 C 50.417969 66.125 50.046875 64.933594 49.792969 63.871094 C 49.535156 62.808594 49.21875 61.871094 49.089844 61.792969 C 48.957031 61.710938 48.851562 61.296875 48.851562 60.871094 C 48.851562 60.445312 48.683594 59.703125 48.476562 59.222656 C 48.269531 58.742188 47.886719 57.421875 47.625 56.285156 C 47.363281 55.152344 47.066406 54.222656 46.960938 54.222656 C 46.859375 54.222656 46.734375 53.679688 46.679688 53.007812 C 46.585938 51.8125 46.589844 51.804688 47.050781 52.375 C 47.3125 52.691406 47.523438 53.117188 47.523438 53.320312 C 47.523438 53.863281 51.003906 64.40625 51.136719 64.269531 C 51.199219 64.207031 50.847656 62.789062 50.351562 61.121094 C 49.722656 58.996094 49.488281 57.75 49.578125 56.976562 C 49.644531 56.367188 49.574219 55.648438 49.417969 55.378906 C 49.148438 54.914062 49.132812 54.917969 49.117188 55.421875 C 49.101562 55.816406 48.976562 55.714844 48.632812 55.023438 C 47.992188 53.742188 47.042969 51.316406 46.835938 50.433594 C 46.613281 49.484375 47.058594 49.484375 47.464844 50.433594 C 47.761719 51.128906 47.769531 51.132812 47.660156 50.5 C 47.339844 48.664062 46.472656 45.414062 45.957031 44.113281 C 45.269531 42.382812 44.605469 38.113281 44.597656 35.386719 C 44.59375 33.15625 44.191406 32.007812 42.835938 30.355469 C 41.652344 28.910156 40.652344 28.402344 37.195312 27.5 C 34.933594 26.910156 33.84375 26.777344 30.941406 26.757812 C 27.851562 26.734375 27.261719 26.804688 26.050781 27.328125 C 24.875 27.839844 24.570312 28.132812 23.960938 29.335938 C 23.453125 30.339844 23.304688 30.925781 23.449219 31.375 C 23.625 31.929688 25.972656 36.726562 27.925781 40.519531 C 28.804688 42.21875 29.621094 44.925781 29.941406 47.203125 C 30.082031 48.183594 30.382812 49.175781 30.613281 49.40625 C 30.996094 49.789062 31.019531 49.742188 30.894531 48.898438 L 30.757812 47.96875 L 31.046875 48.894531 C 31.25 49.554688 31.25 49.84375 31.046875 49.914062 C 30.75 50.011719 31.136719 51.011719 31.585938 51.308594 C 31.703125 51.386719 32.226562 53.289062 32.746094 55.539062 C 33.269531 57.789062 33.855469 59.761719 34.050781 59.921875 C 34.246094 60.082031 34.5625 60.789062 34.75 61.496094 C 34.949219 62.238281 35.171875 62.644531 35.285156 62.464844 C 35.390625 62.292969 35.542969 62.257812 35.625 62.386719 C 35.96875 62.941406 36.875 67.046875 36.875 68.042969 C 36.875 68.640625 36.976562 69.128906 37.101562 69.128906 C 37.339844 69.128906 38.5625 72.878906 38.621094 73.800781 C 38.644531 74.101562 38.851562 74.640625 39.085938 75 C 39.570312 75.738281 40.3125 78.429688 40.367188 79.640625 C 40.417969 80.769531 41.847656 85.445312 42.753906 87.449219 C 43.328125 88.71875 43.453125 89.261719 43.257812 89.628906 C 43.113281 89.898438 42.996094 90.363281 42.996094 90.667969 C 42.996094 90.96875 42.878906 91.214844 42.730469 91.214844 C 42.585938 91.214844 42.464844 91.515625 42.464844 91.886719 C 42.464844 92.703125 41.460938 94.300781 40.742188 94.621094 C 40.226562 94.851562 40.226562 94.863281 40.800781 95.171875 C 41.296875 95.4375 41.363281 95.421875 41.234375 95.082031 C 41.042969 94.582031 41.789062 94.527344 42.183594 95.007812 C 42.335938 95.191406 43.089844 96.109375 43.859375 97.050781 C 45.539062 99.105469 46.453125 100.082031 46.996094 100.414062 C 47.21875 100.550781 47.867188 101.621094 48.4375 102.792969 C 49.878906 105.742188 51.585938 107.355469 55.054688 109.042969 C 56.546875 109.769531 58.023438 110.367188 58.332031 110.371094 C 59.316406 110.382812 61.417969 109.3125 61.253906 108.886719 C 61.136719 108.582031 61.210938 108.558594 61.613281 108.773438 C 62.535156 109.269531 63.164062 109.066406 64.003906 108 C 64.496094 107.382812 65.152344 106.886719 65.617188 106.785156 C 66.589844 106.570312 69.316406 104.363281 69.628906 103.535156 C 69.785156 103.132812 70.082031 102.925781 70.507812 102.925781 C 71.066406 102.925781 71.199219 102.738281 71.480469 101.527344 C 71.664062 100.761719 71.996094 99.773438 72.226562 99.332031 C 72.457031 98.894531 72.726562 97.875 72.828125 97.070312 C 72.925781 96.265625 73.371094 94.648438 73.808594 93.476562 C 75.03125 90.222656 75.578125 88.300781 75.515625 87.476562 C 75.484375 87.0625 75.578125 86.652344 75.726562 86.5625 C 76.125 86.3125 76.054688 85.894531 75.613281 85.894531 C 75.042969 85.894531 74.398438 86.960938 74.398438 87.90625 C 74.398438 88.402344 74.183594 88.933594 73.867188 89.21875 C 73.304688 89.730469 73.109375 89.417969 73.65625 88.875 C 73.902344 88.625 73.902344 88.554688 73.65625 88.554688 C 73.152344 88.554688 73.28125 87.351562 73.902344 86.242188 L 74.472656 85.226562 L 73.503906 86.207031 C 72.4375 87.292969 71.871094 88.441406 72.28125 88.695312 C 72.679688 88.941406 72.582031 89.351562 72.128906 89.351562 C 71.90625 89.351562 71.652344 89.53125 71.570312 89.753906 C 71.398438 90.195312 70.675781 90.304688 70.675781 89.886719 C 70.675781 89.738281 70.792969 89.617188 70.941406 89.617188 C 71.085938 89.617188 71.207031 89.492188 71.207031 89.335938 C 71.207031 89.183594 71.085938 89.128906 70.941406 89.21875 C 70.195312 89.679688 70.988281 87.183594 71.929688 86.109375 C 72.144531 85.863281 72.25 85.542969 72.160156 85.398438 C 72.074219 85.253906 72.179688 84.957031 72.402344 84.738281 C 72.621094 84.515625 72.800781 84.117188 72.800781 83.851562 C 72.796875 83.449219 72.753906 83.433594 72.546875 83.757812 C 72.410156 83.972656 72.21875 84.070312 72.125 83.972656 C 72.027344 83.875 72.207031 83.429688 72.527344 82.980469 C 72.84375 82.535156 72.992188 82.167969 72.851562 82.167969 C 72.347656 82.167969 72.253906 81.324219 72.746094 81.195312 C 73.277344 81.054688 74.332031 79.496094 75.453125 77.179688 C 75.867188 76.328125 76.398438 75.46875 76.632812 75.273438 C 76.867188 75.078125 77.0625 74.578125 77.0625 74.167969 C 77.0625 73.285156 77.9375 71.707031 78.980469 70.710938 C 79.390625 70.320312 79.722656 69.929688 79.722656 69.839844 C 79.722656 69.75 80.023438 69.019531 80.386719 68.222656 C 80.753906 67.421875 81.054688 66.589844 81.054688 66.371094 C 81.054688 66.15625 81.148438 65.9375 81.261719 65.890625 C 81.378906 65.839844 81.886719 65.273438 82.394531 64.632812 C 83 63.859375 83.203125 63.421875 82.984375 63.34375 C 82.417969 63.148438 83.125 62.207031 83.839844 62.207031 C 84.195312 62.207031 84.546875 62.101562 84.628906 61.972656 C 84.820312 61.660156 84.125 61.09375 83.855469 61.347656 C 83.742188 61.453125 83.832031 61.175781 84.0625 60.726562 C 84.289062 60.277344 84.664062 59.753906 84.894531 59.5625 C 85.125 59.371094 85.3125 59.074219 85.3125 58.898438 C 85.3125 58.726562 85.683594 58.230469 86.140625 57.800781 C 86.597656 57.371094 87.140625 56.628906 87.34375 56.152344 C 87.546875 55.679688 87.820312 55.289062 87.949219 55.289062 C 88.335938 55.289062 89.363281 53.363281 89.070312 53.183594 C 88.707031 52.957031 91.195312 49.730469 91.746094 49.714844 C 92.222656 49.699219 92.855469 49.164062 93.269531 48.425781 C 93.726562 47.605469 93.867188 48.292969 93.445312 49.300781 C 93.21875 49.84375 93.101562 50.402344 93.1875 50.539062 C 93.347656 50.800781 87.730469 62.539062 87.363281 62.699219 C 87.171875 62.785156 85.578125 66.101562 85.578125 66.421875 C 85.578125 66.5 85.9375 66.222656 86.375 65.800781 C 86.816406 65.378906 87.175781 64.863281 87.175781 64.652344 C 87.175781 64.4375 87.488281 63.972656 87.875 63.613281 C 88.308594 63.214844 88.515625 63.125 88.417969 63.386719 C 88.324219 63.628906 88.394531 63.804688 88.585938 63.804688 C 88.769531 63.804688 89.082031 63.253906 89.28125 62.585938 C 89.480469 61.914062 89.878906 61.140625 90.171875 60.871094 C 90.554688 60.511719 90.652344 60.1875 90.527344 59.691406 C 90.40625 59.203125 90.472656 58.957031 90.761719 58.847656 C 90.984375 58.761719 91.164062 58.414062 91.164062 58.074219 C 91.164062 57.734375 91.351562 57.273438 91.574219 57.046875 C 91.800781 56.820312 92.300781 55.945312 92.683594 55.097656 C 93.066406 54.25 93.542969 53.460938 93.738281 53.34375 C 93.945312 53.222656 94.046875 52.855469 93.980469 52.484375 C 93.917969 52.128906 93.96875 51.773438 94.101562 51.691406 C 94.230469 51.613281 94.269531 51.371094 94.1875 51.15625 C 94.09375 50.910156 94.199219 50.765625 94.46875 50.765625 C 94.710938 50.765625 95.023438 50.457031 95.164062 50.082031 C 95.304688 49.710938 95.546875 49.476562 95.695312 49.570312 C 95.847656 49.664062 96.285156 49.035156 96.695312 48.132812 C 97.09375 47.25 97.539062 46.519531 97.6875 46.511719 C 97.832031 46.503906 98.652344 45.425781 99.511719 44.117188 C 100.367188 42.808594 101.652344 41.066406 102.367188 40.25 C 104.328125 38.007812 104.90625 36.574219 104.460938 35.03125 C 103.933594 33.191406 99.9375 29.21875 98.441406 29.050781 C 98.128906 29.015625 96.992188 28.605469 95.914062 28.136719 C 90.78125 25.917969 89.507812 25.488281 88.519531 25.644531 C 87.8125 25.757812 87.453125 25.683594 87.195312 25.375 C 86.972656 25.105469 86.742188 24.96875 86.589844 24.964844 Z M 95.132812 51.308594 C 95.078125 51.246094 94.9375 51.484375 94.648438 52.09375 C 94.347656 52.722656 94.355469 52.730469 94.742188 52.246094 C 94.972656 51.960938 95.15625 51.609375 95.15625 51.46875 C 95.15625 51.382812 95.148438 51.328125 95.132812 51.308594 Z M 86.582031 51.585938 C 86.613281 51.582031 86.632812 51.601562 86.632812 51.648438 C 86.636719 51.769531 86.332031 52.398438 85.949219 53.046875 C 85.210938 54.308594 85.046875 54.453125 85.046875 53.824219 C 85.046875 53.605469 85.164062 53.425781 85.3125 53.425781 C 85.457031 53.425781 85.578125 53.261719 85.578125 53.054688 C 85.578125 52.714844 86.375 51.609375 86.582031 51.585938 Z M 46.847656 54.878906 C 46.863281 54.886719 46.882812 54.910156 46.898438 54.957031 C 46.972656 55.140625 46.972656 55.4375 46.898438 55.621094 C 46.824219 55.804688 46.765625 55.65625 46.765625 55.289062 C 46.765625 55.015625 46.800781 54.863281 46.847656 54.878906 Z M 84.4375 55.359375 C 84.480469 55.347656 84.472656 55.429688 84.417969 55.605469 C 84.339844 55.851562 84.417969 56.101562 84.59375 56.160156 C 85.050781 56.3125 83.863281 58.746094 82.878906 59.671875 C 82.449219 60.078125 81.929688 60.8125 81.722656 61.308594 C 81.515625 61.804688 81.21875 62.207031 81.066406 62.207031 C 80.914062 62.207031 80.785156 62.417969 80.78125 62.675781 C 80.777344 63.085938 78.375 67.679688 76.019531 71.769531 C 75.507812 72.65625 75.292969 73.28125 75.460938 73.382812 C 75.621094 73.484375 75.363281 73.984375 74.835938 74.601562 C 73.800781 75.8125 71.738281 79.777344 71.738281 80.558594 C 71.738281 81.261719 70.964844 83.242188 70.457031 83.832031 C 70.238281 84.085938 69.949219 84.296875 69.816406 84.296875 C 69.683594 84.296875 69.628906 84.085938 69.699219 83.832031 C 69.769531 83.574219 69.90625 83.007812 70.003906 82.566406 C 70.097656 82.128906 70.632812 80.691406 71.191406 79.375 C 71.75 78.054688 72.355469 76.472656 72.542969 75.855469 C 72.730469 75.238281 72.984375 74.796875 73.109375 74.875 C 73.234375 74.949219 73.335938 74.820312 73.335938 74.585938 C 73.335938 74.351562 73.628906 73.886719 73.992188 73.550781 C 74.351562 73.21875 74.886719 72.386719 75.175781 71.703125 C 75.539062 70.863281 75.828125 70.511719 76.085938 70.613281 C 76.328125 70.703125 76.523438 70.523438 76.628906 70.101562 C 76.71875 69.738281 76.875 69.234375 76.972656 68.976562 C 77.09375 68.65625 77.054688 68.570312 76.839844 68.699219 C 76.652344 68.816406 76.527344 68.726562 76.527344 68.476562 C 76.527344 68.25 76.703125 68.0625 76.914062 68.0625 C 77.125 68.0625 77.453125 67.769531 77.644531 67.410156 C 77.835938 67.050781 78.789062 65.226562 79.765625 63.351562 C 82.265625 58.539062 82.742188 57.757812 83.089844 57.875 C 83.257812 57.929688 83.648438 57.621094 83.957031 57.183594 C 84.4375 56.511719 84.457031 56.382812 84.105469 56.308594 C 83.730469 56.230469 83.730469 56.164062 84.121094 55.6875 C 84.289062 55.480469 84.390625 55.375 84.4375 55.359375 Z M 34.507812 59.019531 C 34.527344 59.019531 34.601562 59.132812 34.746094 59.355469 C 34.910156 59.617188 34.996094 60.09375 34.933594 60.417969 C 34.820312 61.011719 34.820312 61.011719 34.785156 60.433594 C 34.765625 60.117188 34.679688 59.636719 34.59375 59.371094 C 34.523438 59.136719 34.488281 59.023438 34.507812 59.023438 Z M 86.191406 61.839844 C 86.070312 61.90625 85.683594 62.34375 84.917969 63.207031 C 84.367188 63.828125 84 64.335938 84.101562 64.335938 C 84.652344 64.335938 85.375 63.652344 85.871094 62.664062 C 86.171875 62.0625 86.316406 61.769531 86.191406 61.839844 Z M 48.519531 62.042969 C 48.6875 62.042969 48.851562 62.246094 48.851562 62.652344 C 48.851562 63.003906 48.691406 63.273438 48.480469 63.273438 C 48.257812 63.273438 48.125 63.023438 48.148438 62.652344 C 48.171875 62.246094 48.347656 62.042969 48.519531 62.042969 Z M 84.144531 64.871094 C 83.765625 64.871094 83.449219 65.667969 83.464844 66.597656 C 83.46875 67 83.597656 66.898438 83.980469 66.199219 C 84.597656 65.074219 84.621094 64.871094 84.144531 64.871094 Z M 84.960938 67.492188 C 84.65625 67.550781 83.996094 68.75 81.773438 72.941406 C 80.054688 76.1875 77.964844 80.21875 77.132812 81.902344 C 76.300781 83.585938 75.574219 85.050781 75.519531 85.160156 C 75.464844 85.269531 75.589844 85.359375 75.800781 85.359375 C 76.007812 85.359375 76.339844 84.871094 76.539062 84.269531 C 76.738281 83.667969 77.039062 83.121094 77.210938 83.054688 C 77.382812 82.992188 77.75 82.464844 78.023438 81.890625 C 78.300781 81.3125 78.613281 80.839844 78.726562 80.839844 C 78.835938 80.839844 78.925781 80.480469 78.925781 80.042969 C 78.925781 79.535156 79.117188 79.125 79.457031 78.914062 C 80.058594 78.535156 80.152344 78.019531 79.65625 77.820312 C 79.460938 77.742188 79.519531 77.675781 79.800781 77.664062 C 80.894531 77.617188 83.441406 74.183594 82.378906 74.183594 C 82.121094 74.183594 82.121094 74.101562 82.382812 73.789062 C 82.5625 73.570312 82.640625 73.21875 82.558594 73.003906 C 82.46875 72.769531 82.742188 72.332031 83.238281 71.914062 C 84.375 70.960938 85.207031 69.394531 84.738281 69.105469 C 84.480469 68.941406 84.53125 68.835938 84.941406 68.675781 C 85.421875 68.488281 85.453125 68.371094 85.199219 67.753906 C 85.128906 67.585938 85.0625 67.476562 84.960938 67.492188 Z M 52.121094 67.632812 C 52.09375 67.660156 52.074219 67.753906 52.066406 67.90625 C 52.054688 68.1875 52.117188 68.347656 52.207031 68.257812 C 52.292969 68.167969 52.304688 67.9375 52.226562 67.746094 C 52.183594 67.640625 52.148438 67.605469 52.121094 67.632812 Z M 82.144531 68.570312 C 82.023438 68.574219 81.828125 68.9375 80.964844 70.535156 C 80.429688 71.527344 79.988281 72.515625 79.988281 72.730469 C 79.988281 72.945312 80.046875 73.121094 80.117188 73.121094 C 80.347656 73.121094 82.421875 68.8125 82.265625 68.65625 C 82.21875 68.609375 82.1875 68.570312 82.144531 68.570312 Z M 38.804688 71.101562 C 38.878906 71.027344 39 71.214844 39.078125 71.511719 C 39.15625 71.8125 39.167969 72.054688 39.105469 72.054688 C 38.917969 72.054688 38.660156 71.246094 38.804688 71.101562 Z M 77.117188 71.789062 C 77.503906 71.789062 77.332031 72.5 76.839844 72.945312 C 76.089844 73.625 75.917969 73.46875 76.4375 72.585938 C 76.699219 72.148438 77.003906 71.789062 77.117188 71.789062 Z M 53.898438 73.933594 C 53.761719 73.964844 53.632812 74.09375 53.546875 74.316406 C 53.375 74.761719 53.417969 74.785156 54.019531 74.554688 C 54.25 74.46875 54.371094 74.289062 54.289062 74.15625 C 54.179688 73.976562 54.035156 73.902344 53.898438 73.933594 Z M 55.160156 77.605469 C 55.375 77.527344 55.476562 77.699219 55.683594 78.261719 C 55.855469 78.726562 56.007812 79.296875 56.015625 79.527344 C 56.027344 79.761719 55.859375 79.949219 55.636719 79.949219 C 55.417969 79.949219 55.238281 79.730469 55.238281 79.460938 C 55.238281 79.195312 55.132812 78.972656 55 78.972656 C 54.511719 78.972656 54.4375 78.101562 54.902344 77.761719 C 55.003906 77.683594 55.089844 77.632812 55.160156 77.605469 Z M 55.960938 81.550781 C 56.09375 81.46875 56.328125 81.742188 56.484375 82.15625 C 56.648438 82.59375 56.671875 83.0625 56.539062 83.269531 C 56.378906 83.527344 56.3125 83.433594 56.308594 82.953125 C 56.304688 82.578125 56.171875 82.144531 56.015625 81.984375 C 55.855469 81.824219 55.832031 81.628906 55.960938 81.550781 Z M 69.320312 82.433594 C 69.453125 82.433594 69.496094 82.671875 69.421875 82.964844 C 69.34375 83.257812 69.234375 83.5 69.179688 83.5 C 69.125 83.5 69.078125 83.257812 69.078125 82.964844 C 69.078125 82.671875 69.1875 82.433594 69.320312 82.433594 Z M 69.625 85.09375 C 69.796875 85.09375 69.859375 85.28125 69.773438 85.515625 C 69.683594 85.746094 69.609375 86.039062 69.609375 86.164062 C 69.609375 86.285156 69.4375 86.5625 69.226562 86.773438 C 69.011719 86.984375 68.664062 87.5625 68.449219 88.054688 C 68.164062 88.703125 68.050781 88.804688 68.039062 88.421875 C 68.011719 87.6875 69.25 85.09375 69.625 85.09375 Z M 69.625 85.09375 "
     id="path10" />
  <metadata
     id="metadata191">
    <rdf:RDF>
      <cc:Work
         rdf:about="">
        <dc:creator>
          <cc:Agent>
            <dc:title>mechtifs@github.com</dc:title>
          </cc:Agent>
        </dc:creator>
        <dc:title>Adwaita Icon Template</dc:title>
        <cc:license
           rdf:resource="http://creativecommons.org/licenses/by-sa/4.0/" />
      </cc:Work>
      <cc:License
         rdf:about="http://creativecommons.org/licenses/by-sa/4.0/">
        <cc:permits
           rdf:resource="http://creativecommons.org/ns#Reproduction" />
        <cc:permits
           rdf:resource="http://creativecommons.org/ns#Distribution" />
        <cc:requires
           rdf:resource="http://creativecommons.org/ns#Notice" />
        <cc:requires
           rdf:resource="http://creativecommons.org/ns#Attribution" />
        <cc:permits
           rdf:resource="http://creativecommons.org/ns#DerivativeWorks" />
        <cc:requires
           rdf:resource="http://creativecommons.org/ns#ShareAlike" />
      </cc:License>
    </rdf:RDF>
  </metadata>
</svg>
