<?xml version="1.0" encoding="UTF-8" standalone="no"?>
<svg
   width="128"
   height="128"
   viewBox="0 0 128 128"
   version="1.1"
   id="svg41"
   sodipodi:docname="ventoy.svg"
   inkscape:version="1.2.1 (9c6d41e410, 2022-07-14)"
   xmlns:inkscape="http://www.inkscape.org/namespaces/inkscape"
   xmlns:sodipodi="http://sodipodi.sourceforge.net/DTD/sodipodi-0.dtd"
   xmlns="http://www.w3.org/2000/svg"
   xmlns:svg="http://www.w3.org/2000/svg"
   xmlns:rdf="http://www.w3.org/1999/02/22-rdf-syntax-ns#"
   xmlns:cc="http://creativecommons.org/ns#"
   xmlns:dc="http://purl.org/dc/elements/1.1/">
  <title
     id="title220">Adwaita Icon Template</title>
  <sodipodi:namedview
     id="namedview43"
     pagecolor="#505050"
     bordercolor="#eeeeee"
     borderopacity="1"
     inkscape:showpageshadow="0"
     inkscape:pageopacity="0"
     inkscape:pagecheckerboard="0"
     inkscape:deskcolor="#505050"
     showgrid="false"
     inkscape:zoom="1.84375"
     inkscape:cx="63.728814"
     inkscape:cy="64"
     inkscape:window-width="1792"
     inkscape:window-height="1051"
     inkscape:window-x="0"
     inkscape:window-y="0"
     inkscape:window-maximized="1"
     inkscape:current-layer="svg41" />
  <defs
     id="defs21">
    <linearGradient
       id="linear-pattern-0"
       gradientUnits="userSpaceOnUse"
       x1="-244.4673"
       y1="110.584038"
       x2="-182.792648"
       y2="172.258698"
       gradientTransform="matrix(0.707107, -0.707107, 0.707107, 0.707107, 109.745078, -178.091667)">
      <stop
         offset="0"
         stop-color="rgb(10.196079%, 37.254903%, 70.588237%)"
         stop-opacity="1"
         id="stop2" />
      <stop
         offset="0.0132097"
         stop-color="rgb(38.431373%, 62.7451%, 91.764706%)"
         stop-opacity="1"
         id="stop4" />
      <stop
         offset="0.0381381"
         stop-color="rgb(10.196079%, 37.254903%, 70.588237%)"
         stop-opacity="1"
         id="stop6" />
      <stop
         offset="0.228493"
         stop-color="rgb(10.196079%, 37.254903%, 70.588237%)"
         stop-opacity="1"
         id="stop8" />
      <stop
         offset="0.325041"
         stop-color="rgb(20.784314%, 51.764709%, 89.411765%)"
         stop-opacity="1"
         id="stop10" />
      <stop
         offset="0.415533"
         stop-color="rgb(10.196079%, 37.254903%, 70.588237%)"
         stop-opacity="1"
         id="stop12" />
      <stop
         offset="0.936274"
         stop-color="rgb(10.196079%, 37.254903%, 70.588237%)"
         stop-opacity="1"
         id="stop14" />
      <stop
         offset="0.98"
         stop-color="rgb(38.431373%, 62.7451%, 91.764706%)"
         stop-opacity="1"
         id="stop16" />
      <stop
         offset="1"
         stop-color="rgb(10.196079%, 37.254903%, 70.588237%)"
         stop-opacity="1"
         id="stop18" />
    </linearGradient>
  </defs>
  <path
     fill-rule="nonzero"
     fill="rgb(75.294119%, 74.901962%, 73.725492%)"
     fill-opacity="1"
     d="M 96.910156 19.421875 L 74.25 42.082031 L 90.265625 58.09375 L 112.925781 35.4375 L 112.925781 27.4375 L 108.925781 31.4375 Z M 96.910156 19.421875 "
     id="path23" />
  <path
     fill-rule="nonzero"
     fill="url(#linear-pattern-0)"
     d="M 73.574219 29.359375 C 71.527344 29.359375 69.480469 30.140625 67.914062 31.707031 L 18.421875 81.203125 L 15.074219 77.855469 L 15.074219 87.847656 C 15.074219 89.894531 15.855469 91.941406 17.425781 93.511719 L 38.144531 114.230469 C 41.277344 117.363281 46.320312 117.363281 49.457031 114.230469 L 99.945312 63.738281 C 101.527344 62.15625 102.308594 60.085938 102.292969 58.019531 L 102.296875 58.023438 L 102.296875 48.082031 L 98.949219 51.429688 L 79.230469 31.707031 C 77.664062 30.140625 75.617188 29.359375 73.574219 29.359375 Z M 73.574219 29.359375 "
     id="path25" />
  <path
     fill-rule="nonzero"
     fill="rgb(96.470588%, 96.078432%, 95.686275%)"
     fill-opacity="1"
     d="M 74.25 34.082031 L 96.910156 11.421875 L 112.925781 27.4375 L 90.265625 50.09375 Z M 74.25 34.082031 "
     id="path27" />
  <path
     fill-rule="nonzero"
     fill="rgb(20.784314%, 51.764709%, 89.411765%)"
     fill-opacity="1"
     d="M 17.425781 72.195312 L 67.914062 21.707031 C 71.039062 18.582031 76.105469 18.582031 79.230469 21.707031 L 99.945312 42.425781 C 103.070312 45.546875 103.070312 50.613281 99.945312 53.738281 L 49.457031 104.226562 C 46.332031 107.351562 41.265625 107.351562 38.144531 104.226562 L 17.425781 83.511719 C 14.300781 80.386719 14.300781 75.320312 17.425781 72.195312 Z M 17.425781 72.195312 "
     id="path29" />
  <path
     fill-rule="nonzero"
     fill="rgb(14.117648%, 12.156863%, 19.215687%)"
     fill-opacity="1"
     d="M 98.042969 30.902344 L 101.214844 27.726562 L 103.816406 30.328125 L 100.644531 33.503906 Z M 98.042969 30.902344 "
     id="path31" />
  <path
     fill-rule="nonzero"
     fill="rgb(14.117648%, 12.156863%, 19.215687%)"
     fill-opacity="1"
     d="M 90.84375 23.699219 L 94.015625 20.527344 L 96.617188 23.128906 L 93.445312 26.300781 Z M 90.84375 23.699219 "
     id="path33" />
  <path
     fill="none"
     stroke-width="0.212706"
     stroke-linecap="butt"
     stroke-linejoin="miter"
     stroke="rgb(60.392159%, 60.000002%, 58.823532%)"
     stroke-opacity="1"
     stroke-miterlimit="4"
     d="M -4.123909 192.98111 L -18.120003 206.973297 "
     transform="matrix(1, 0, 0, 1, 109.037971, -173.547516)"
     id="path35" />
  <path
     fill-rule="nonzero"
     fill="rgb(10.196079%, 37.254903%, 70.588237%)"
     fill-opacity="1"
     d="M 68.148438 49.09375 L 77.011719 46.640625 L 74.683594 55.546875 L 72.289062 53.183594 L 58.542969 66.863281 C 58.84375 66.949219 59.152344 67.046875 59.46875 67.148438 C 61.527344 67.800781 64.117188 68.625 68.078125 64.792969 L 66.410156 63.125 L 71.210938 58.328125 L 76.011719 63.125 L 71.210938 67.925781 L 69.726562 66.441406 C 64.765625 71.269531 61.417969 70.207031 58.765625 69.363281 C 57.808594 69.058594 56.984375 68.792969 56.292969 69.109375 L 49.105469 76.257812 C 50.003906 77.832031 49.734375 79.808594 48.453125 81.085938 C 46.890625 82.652344 44.355469 82.65625 42.789062 81.097656 L 42.777344 81.085938 C 41.207031 79.523438 41.203125 76.984375 42.761719 75.417969 L 42.773438 75.40625 C 43.957031 74.21875 45.757812 73.894531 47.285156 74.589844 L 51.75 70.148438 C 51.503906 69.269531 51.179688 68.519531 50.882812 67.832031 C 49.574219 64.789062 48.683594 62.722656 53.726562 57.621094 C 52.863281 56.066406 53.140625 54.125 54.398438 52.871094 C 55.953125 51.320312 58.484375 51.320312 60.035156 52.871094 C 61.585938 54.425781 61.585938 56.957031 60.035156 58.511719 C 58.769531 59.777344 56.890625 60.011719 55.398438 59.242188 C 51.433594 63.25 52.070312 64.730469 53.015625 66.914062 C 53.203125 67.351562 53.402344 67.8125 53.589844 68.316406 L 70.539062 51.453125 Z M 68.148438 49.09375 "
     id="path37" />
  <path
     fill-rule="nonzero"
     fill="rgb(96.470588%, 96.078432%, 95.686275%)"
     fill-opacity="1"
     d="M 68.148438 47.09375 L 77.011719 44.640625 L 74.683594 53.546875 L 72.289062 51.183594 L 58.542969 64.863281 C 58.84375 64.949219 59.152344 65.046875 59.46875 65.148438 C 61.527344 65.800781 64.117188 66.625 68.078125 62.792969 L 66.410156 61.125 L 71.210938 56.328125 L 76.011719 61.125 L 71.210938 65.925781 L 69.726562 64.441406 C 64.765625 69.269531 61.417969 68.207031 58.765625 67.363281 C 57.808594 67.058594 56.984375 66.792969 56.292969 67.109375 L 49.105469 74.257812 C 50.003906 75.832031 49.734375 77.808594 48.453125 79.085938 C 46.890625 80.652344 44.355469 80.65625 42.789062 79.097656 L 42.777344 79.085938 C 41.207031 77.523438 41.203125 74.984375 42.761719 73.417969 L 42.773438 73.40625 C 43.957031 72.21875 45.757812 71.894531 47.285156 72.589844 L 51.75 68.148438 C 51.503906 67.269531 51.179688 66.519531 50.882812 65.832031 C 49.574219 62.789062 48.683594 60.722656 53.726562 55.621094 C 52.863281 54.066406 53.140625 52.125 54.398438 50.871094 C 55.953125 49.320312 58.484375 49.320312 60.035156 50.871094 C 61.585938 52.425781 61.585938 54.957031 60.035156 56.511719 C 58.769531 57.777344 56.890625 58.011719 55.398438 57.242188 C 51.433594 61.25 52.070312 62.730469 53.015625 64.914062 C 53.203125 65.351562 53.402344 65.8125 53.589844 66.316406 L 70.539062 49.453125 Z M 68.148438 47.09375 "
     id="path39" />
  <metadata
     id="metadata218">
    <rdf:RDF>
      <cc:Work
         rdf:about="">
        <dc:title>Adwaita Icon Template</dc:title>
        <dc:creator>
          <cc:Agent>
            <dc:title>mechtifs@github.com</dc:title>
          </cc:Agent>
        </dc:creator>
        <cc:license
           rdf:resource="http://creativecommons.org/licenses/by-sa/4.0/" />
      </cc:Work>
      <cc:License
         rdf:about="http://creativecommons.org/licenses/by-sa/4.0/">
        <cc:permits
           rdf:resource="http://creativecommons.org/ns#Reproduction" />
        <cc:permits
           rdf:resource="http://creativecommons.org/ns#Distribution" />
        <cc:requires
           rdf:resource="http://creativecommons.org/ns#Notice" />
        <cc:requires
           rdf:resource="http://creativecommons.org/ns#Attribution" />
        <cc:permits
           rdf:resource="http://creativecommons.org/ns#DerivativeWorks" />
        <cc:requires
           rdf:resource="http://creativecommons.org/ns#ShareAlike" />
      </cc:License>
    </rdf:RDF>
  </metadata>
</svg>
