<?xml version="1.0" encoding="UTF-8" standalone="no"?>
<svg
   width="128"
   height="128"
   viewBox="0 0 128 128"
   version="1.1"
   id="svg27"
   sodipodi:docname="virtualbox.svg"
   inkscape:version="1.2.1 (9c6d41e410, 2022-07-14)"
   xmlns:inkscape="http://www.inkscape.org/namespaces/inkscape"
   xmlns:sodipodi="http://sodipodi.sourceforge.net/DTD/sodipodi-0.dtd"
   xmlns="http://www.w3.org/2000/svg"
   xmlns:svg="http://www.w3.org/2000/svg"
   xmlns:rdf="http://www.w3.org/1999/02/22-rdf-syntax-ns#"
   xmlns:cc="http://creativecommons.org/ns#"
   xmlns:dc="http://purl.org/dc/elements/1.1/">
  <title
     id="title206">Adwaita Icon Template</title>
  <sodipodi:namedview
     id="namedview29"
     pagecolor="#505050"
     bordercolor="#eeeeee"
     borderopacity="1"
     inkscape:showpageshadow="0"
     inkscape:pageopacity="0"
     inkscape:pagecheckerboard="0"
     inkscape:deskcolor="#505050"
     showgrid="false"
     inkscape:zoom="1.84375"
     inkscape:cx="63.728814"
     inkscape:cy="64"
     inkscape:window-width="1792"
     inkscape:window-height="1051"
     inkscape:window-x="0"
     inkscape:window-y="0"
     inkscape:window-maximized="1"
     inkscape:current-layer="svg27" />
  <defs
     id="defs15">
    <linearGradient
       id="linear-pattern-0"
       gradientUnits="userSpaceOnUse"
       x1="48"
       y1="44"
       x2="464"
       y2="44"
       gradientTransform="matrix(0.25, 0, 0, 0.25, 0, 53)">
      <stop
         offset="0"
         stop-color="rgb(75.294119%, 74.901962%, 73.725492%)"
         stop-opacity="1"
         id="stop2" />
      <stop
         offset="0.0416667"
         stop-color="rgb(100%, 100%, 100%)"
         stop-opacity="1"
         id="stop4" />
      <stop
         offset="0.0833333"
         stop-color="rgb(75.294119%, 74.901962%, 73.725492%)"
         stop-opacity="1"
         id="stop6" />
      <stop
         offset="0.916667"
         stop-color="rgb(75.294119%, 74.901962%, 73.725492%)"
         stop-opacity="1"
         id="stop8" />
      <stop
         offset="0.958333"
         stop-color="rgb(100%, 100%, 100%)"
         stop-opacity="1"
         id="stop10" />
      <stop
         offset="1"
         stop-color="rgb(75.294119%, 74.901962%, 73.725492%)"
         stop-opacity="1"
         id="stop12" />
    </linearGradient>
  </defs>
  <path
     fill-rule="nonzero"
     fill="url(#linear-pattern-0)"
     d="M 20 32 L 108 32 C 112.417969 32 116 35.582031 116 40 L 116 108 C 116 112.417969 112.417969 116 108 116 L 20 116 C 15.582031 116 12 112.417969 12 108 L 12 40 C 12 35.582031 15.582031 32 20 32 Z M 20 32 "
     id="path17" />
  <path
     fill-rule="nonzero"
     fill="rgb(10.980392%, 44.313726%, 84.705883%)"
     fill-opacity="1"
     d="M 22.304688 18.816406 L 105.699219 18.816406 C 107.503906 18.816406 108.964844 20.28125 108.964844 22.085938 L 108.964844 101.914062 C 108.964844 103.722656 107.503906 105.183594 105.699219 105.183594 L 22.304688 105.183594 C 20.5 105.183594 19.035156 103.722656 19.035156 101.914062 L 19.035156 22.085938 C 19.035156 20.28125 20.5 18.816406 22.304688 18.816406 Z M 22.304688 18.816406 "
     id="path19" />
  <path
     fill-rule="nonzero"
     fill="rgb(20.784314%, 51.764709%, 89.411765%)"
     fill-opacity="1"
     d="M 22.152344 22.816406 L 105.847656 22.816406 C 107.570312 22.816406 108.964844 24.210938 108.964844 25.933594 L 108.964844 102.066406 C 108.964844 103.789062 107.570312 105.183594 105.847656 105.183594 L 22.152344 105.183594 C 20.433594 105.183594 19.035156 103.789062 19.035156 102.066406 L 19.035156 25.933594 C 19.035156 24.210938 20.433594 22.816406 22.152344 22.816406 Z M 22.152344 22.816406 "
     id="path21" />
  <path
     fill-rule="nonzero"
     fill="rgb(10.980392%, 44.313726%, 84.705883%)"
     fill-opacity="1"
     d="M 81.347656 25.34375 L 71.175781 60.191406 L 63.984375 35.640625 L 61.003906 25.375 L 44.042969 81.332031 L 34.917969 53.007812 L 19.058594 53.007812 L 19.0625 61.636719 L 29.75 61.636719 L 43.546875 105.183594 L 44.460938 105.183594 L 61.0625 50.820312 L 63.984375 60.25 L 71.234375 83.484375 L 81.316406 50.792969 L 91.550781 83.425781 L 108.941406 83.425781 L 108.941406 74.792969 L 97.140625 74.792969 Z M 81.347656 25.34375 "
     id="path23" />
  <path
     fill-rule="nonzero"
     fill="rgb(96.470588%, 96.078432%, 95.686275%)"
     fill-opacity="1"
     d="M 20 12 C 15.566406 12 12 15.566406 12 20 L 12 104 C 12 108.433594 15.566406 112 20 112 L 108 112 C 112.433594 112 116 108.433594 116 104 L 116 20 C 116 15.566406 112.433594 12 108 12 Z M 22.304688 18.816406 L 105.699219 18.816406 C 107.507812 18.816406 108.96875 20.273438 108.96875 22.082031 L 108.96875 70.792969 L 97.160156 70.792969 L 81.359375 21.347656 L 71.179688 56.191406 L 63.984375 31.640625 L 61.003906 21.375 L 44.03125 77.332031 L 34.902344 49.011719 L 19.035156 49.011719 L 19.035156 22.082031 C 19.035156 20.273438 20.492188 18.816406 22.304688 18.816406 Z M 81.328125 46.792969 L 91.566406 79.425781 L 108.96875 79.425781 L 108.96875 101.917969 C 108.96875 103.726562 107.507812 105.183594 105.699219 105.183594 L 22.304688 105.183594 C 20.492188 105.183594 19.035156 103.726562 19.035156 101.917969 L 19.035156 57.636719 L 29.734375 57.636719 L 44 102.652344 L 61.0625 46.824219 L 63.984375 56.253906 L 71.238281 79.484375 Z M 81.328125 46.792969 "
     id="path25" />
  <metadata
     id="metadata204">
    <rdf:RDF>
      <cc:Work
         rdf:about="">
        <dc:creator>
          <cc:Agent>
            <dc:title>mechtifs@github.com</dc:title>
          </cc:Agent>
        </dc:creator>
        <dc:title>Adwaita Icon Template</dc:title>
        <cc:license
           rdf:resource="http://creativecommons.org/licenses/by-sa/4.0/" />
      </cc:Work>
      <cc:License
         rdf:about="http://creativecommons.org/licenses/by-sa/4.0/">
        <cc:permits
           rdf:resource="http://creativecommons.org/ns#Reproduction" />
        <cc:permits
           rdf:resource="http://creativecommons.org/ns#Distribution" />
        <cc:requires
           rdf:resource="http://creativecommons.org/ns#Notice" />
        <cc:requires
           rdf:resource="http://creativecommons.org/ns#Attribution" />
        <cc:permits
           rdf:resource="http://creativecommons.org/ns#DerivativeWorks" />
        <cc:requires
           rdf:resource="http://creativecommons.org/ns#ShareAlike" />
      </cc:License>
    </rdf:RDF>
  </metadata>
</svg>
