<?xml version="1.0" encoding="UTF-8" standalone="no"?>
<svg
   width="128"
   height="128"
   viewBox="0 0 128 128"
   version="1.1"
   id="svg16"
   sodipodi:docname="visual-studio-code.svg"
   inkscape:version="1.2.1 (9c6d41e410, 2022-07-14)"
   xmlns:inkscape="http://www.inkscape.org/namespaces/inkscape"
   xmlns:sodipodi="http://sodipodi.sourceforge.net/DTD/sodipodi-0.dtd"
   xmlns="http://www.w3.org/2000/svg"
   xmlns:svg="http://www.w3.org/2000/svg"
   xmlns:rdf="http://www.w3.org/1999/02/22-rdf-syntax-ns#"
   xmlns:cc="http://creativecommons.org/ns#"
   xmlns:dc="http://purl.org/dc/elements/1.1/">
  <title
     id="title197">Adwaita Icon Template</title>
  <defs
     id="defs20" />
  <sodipodi:namedview
     id="namedview18"
     pagecolor="#505050"
     bordercolor="#eeeeee"
     borderopacity="1"
     inkscape:showpageshadow="0"
     inkscape:pageopacity="0"
     inkscape:pagecheckerboard="0"
     inkscape:deskcolor="#505050"
     showgrid="false"
     inkscape:zoom="1.84375"
     inkscape:cx="63.728814"
     inkscape:cy="64"
     inkscape:window-width="1792"
     inkscape:window-height="1051"
     inkscape:window-x="0"
     inkscape:window-y="0"
     inkscape:window-maximized="1"
     inkscape:current-layer="svg16" />
  <path
     fill-rule="nonzero"
     fill="rgb(10.196079%, 37.254903%, 70.588237%)"
     fill-opacity="1"
     d="M 116.988281 21.457031 L 93.503906 10.152344 C 90.785156 8.84375 87.539062 9.394531 85.402344 11.527344 L 8.527344 81.621094 C 6.460938 83.507812 6.460938 86.761719 8.535156 88.644531 L 14.8125 94.351562 C 16.507812 95.890625 19.054688 96.003906 20.878906 94.621094 L 113.453125 24.390625 C 116.558594 22.035156 121.019531 24.25 121.019531 28.148438 L 121.019531 27.875 C 121.019531 25.140625 119.453125 22.644531 116.988281 21.457031 Z M 116.988281 21.457031 "
     id="path2" />
  <path
     fill-rule="nonzero"
     fill="rgb(10.196079%, 37.254903%, 70.588237%)"
     fill-opacity="1"
     d="M 17.796875 36.699219 C 16.71875 36.746094 15.660156 37.15625 14.8125 37.925781 L 8.53125 43.636719 C 6.460938 45.519531 6.460938 48.773438 8.527344 50.660156 L 85.402344 120.753906 C 87.539062 122.886719 90.785156 123.4375 93.503906 122.128906 L 116.988281 110.820312 C 119.453125 109.636719 121.019531 107.140625 121.019531 104.40625 L 121.019531 104.128906 C 121.019531 108.027344 116.558594 110.246094 113.453125 107.886719 L 20.875 37.65625 C 19.964844 36.964844 18.871094 36.648438 17.796875 36.699219 Z M 17.796875 36.699219 "
     id="path4" />
  <path
     fill-rule="nonzero"
     fill="rgb(10.196079%, 37.254903%, 70.588237%)"
     fill-opacity="1"
     d="M 90.308594 9.449219 C 88.730469 9.476562 87.183594 10.046875 85.925781 11.082031 C 88.585938 9.144531 92.527344 10.996094 92.527344 14.476562 L 92.527344 117.800781 C 92.527344 121.28125 88.585938 123.136719 85.925781 121.199219 C 88.046875 122.941406 90.996094 123.335938 93.503906 122.128906 L 116.984375 110.839844 C 119.453125 109.652344 121.019531 107.15625 121.019531 104.421875 L 121.019531 27.859375 C 121.019531 25.121094 119.453125 22.628906 116.984375 21.441406 L 93.503906 10.148438 C 92.484375 9.660156 91.390625 9.429688 90.308594 9.449219 Z M 85.925781 121.199219 C 85.75 121.054688 85.570312 120.917969 85.402344 120.753906 C 85.570312 120.921875 85.746094 121.066406 85.925781 121.199219 Z M 85.925781 11.082031 C 85.746094 11.210938 85.570312 11.359375 85.402344 11.527344 C 85.570312 11.363281 85.75 11.226562 85.925781 11.082031 Z M 85.925781 11.082031 "
     id="path6" />
  <path
     fill-rule="nonzero"
     fill="rgb(10.980392%, 44.313726%, 84.705883%)"
     fill-opacity="1"
     d="M 116.988281 19.179688 L 93.503906 7.871094 C 90.785156 6.5625 87.539062 7.117188 85.402344 9.25 L 8.527344 79.339844 C 6.460938 81.226562 6.460938 84.480469 8.535156 86.363281 L 14.8125 92.074219 C 16.507812 93.613281 19.054688 93.726562 20.878906 92.34375 L 113.453125 22.113281 C 116.558594 19.757812 121.019531 21.972656 121.019531 25.871094 L 121.019531 25.597656 C 121.019531 22.859375 119.453125 20.367188 116.988281 19.179688 Z M 116.988281 19.179688 "
     id="path8" />
  <path
     fill-rule="nonzero"
     fill="rgb(10.196079%, 37.254903%, 70.588237%)"
     fill-opacity="1"
     d="M 17.796875 36.699219 C 16.71875 36.746094 15.660156 37.15625 14.8125 37.925781 L 8.53125 43.636719 C 6.460938 45.519531 6.460938 48.773438 8.527344 50.660156 L 85.402344 120.753906 C 87.539062 122.886719 90.785156 123.4375 93.503906 122.128906 L 116.988281 110.820312 C 119.453125 109.636719 121.019531 107.140625 121.019531 104.40625 L 121.019531 104.128906 C 121.019531 108.027344 116.558594 110.246094 113.453125 107.886719 L 20.875 37.65625 C 19.964844 36.964844 18.871094 36.648438 17.796875 36.699219 Z M 17.796875 36.699219 "
     id="path10" />
  <path
     fill-rule="nonzero"
     fill="rgb(20.784314%, 51.764709%, 89.411765%)"
     fill-opacity="1"
     d="M 17.796875 34.417969 C 16.71875 34.464844 15.660156 34.878906 14.8125 35.648438 L 8.53125 41.355469 C 6.460938 43.238281 6.460938 46.496094 8.527344 48.378906 L 85.402344 118.472656 C 87.539062 120.605469 90.785156 121.15625 93.503906 119.847656 L 116.988281 108.542969 C 119.453125 107.355469 121.019531 104.863281 121.019531 102.125 L 121.019531 101.851562 C 121.019531 105.75 116.558594 107.964844 113.453125 105.609375 L 20.875 35.378906 C 19.964844 34.6875 18.871094 34.371094 17.796875 34.417969 Z M 17.796875 34.417969 "
     id="path12" />
  <path
     fill-rule="nonzero"
     fill="rgb(38.431373%, 62.7451%, 91.764706%)"
     fill-opacity="1"
     d="M 90.308594 7.167969 C 88.730469 7.195312 87.183594 7.765625 85.925781 8.800781 C 88.585938 6.867188 92.527344 8.71875 92.527344 12.199219 L 92.527344 115.519531 C 92.527344 119 88.585938 120.855469 85.925781 118.921875 C 88.046875 120.664062 90.996094 121.058594 93.503906 119.851562 L 116.984375 108.558594 C 119.453125 107.375 121.019531 104.878906 121.019531 102.140625 L 121.019531 25.582031 C 121.019531 22.84375 119.453125 20.347656 116.984375 19.160156 L 93.503906 7.871094 C 92.484375 7.378906 91.390625 7.152344 90.308594 7.167969 Z M 85.925781 118.921875 C 85.75 118.773438 85.570312 118.636719 85.402344 118.472656 C 85.570312 118.640625 85.746094 118.789062 85.925781 118.921875 Z M 85.925781 8.800781 C 85.746094 8.933594 85.570312 9.082031 85.402344 9.25 C 85.570312 9.085938 85.75 8.945312 85.925781 8.800781 Z M 85.925781 8.800781 "
     id="path14" />
  <metadata
     id="metadata195">
    <rdf:RDF>
      <cc:Work
         rdf:about="">
        <dc:creator>
          <cc:Agent>
            <dc:title>mechtifs@github.com</dc:title>
          </cc:Agent>
        </dc:creator>
        <dc:title>Adwaita Icon Template</dc:title>
        <cc:license
           rdf:resource="http://creativecommons.org/licenses/by-sa/4.0/" />
      </cc:Work>
      <cc:License
         rdf:about="http://creativecommons.org/licenses/by-sa/4.0/">
        <cc:permits
           rdf:resource="http://creativecommons.org/ns#Reproduction" />
        <cc:permits
           rdf:resource="http://creativecommons.org/ns#Distribution" />
        <cc:requires
           rdf:resource="http://creativecommons.org/ns#Notice" />
        <cc:requires
           rdf:resource="http://creativecommons.org/ns#Attribution" />
        <cc:permits
           rdf:resource="http://creativecommons.org/ns#DerivativeWorks" />
        <cc:requires
           rdf:resource="http://creativecommons.org/ns#ShareAlike" />
      </cc:License>
    </rdf:RDF>
  </metadata>
</svg>
