<?xml version="1.0" encoding="UTF-8" standalone="no"?>
<svg
   width="128"
   height="128"
   viewBox="0 0 128 128"
   version="1.1"
   id="svg29"
   sodipodi:docname="weixin.svg"
   inkscape:version="1.2.1 (9c6d41e410, 2022-07-14)"
   xmlns:inkscape="http://www.inkscape.org/namespaces/inkscape"
   xmlns:sodipodi="http://sodipodi.sourceforge.net/DTD/sodipodi-0.dtd"
   xmlns="http://www.w3.org/2000/svg"
   xmlns:svg="http://www.w3.org/2000/svg"
   xmlns:rdf="http://www.w3.org/1999/02/22-rdf-syntax-ns#"
   xmlns:cc="http://creativecommons.org/ns#"
   xmlns:dc="http://purl.org/dc/elements/1.1/">
  <title
     id="title208">Adwaita Icon Template</title>
  <sodipodi:namedview
     id="namedview31"
     pagecolor="#505050"
     bordercolor="#eeeeee"
     borderopacity="1"
     inkscape:showpageshadow="0"
     inkscape:pageopacity="0"
     inkscape:pagecheckerboard="0"
     inkscape:deskcolor="#505050"
     showgrid="false"
     inkscape:zoom="1.84375"
     inkscape:cx="63.728814"
     inkscape:cy="64"
     inkscape:window-width="1792"
     inkscape:window-height="1051"
     inkscape:window-x="0"
     inkscape:window-y="0"
     inkscape:window-maximized="1"
     inkscape:current-layer="svg29" />
  <defs
     id="defs15">
    <linearGradient
       id="linear-pattern-0"
       gradientUnits="userSpaceOnUse"
       x1="48"
       y1="44"
       x2="464"
       y2="44"
       gradientTransform="matrix(0.25, 0, 0, 0.25, 0, 53)">
      <stop
         offset="0"
         stop-color="rgb(14.901961%, 63.529414%, 41.176471%)"
         stop-opacity="1"
         id="stop2" />
      <stop
         offset="0.0416667"
         stop-color="rgb(34.117648%, 89.019608%, 53.725493%)"
         stop-opacity="1"
         id="stop4" />
      <stop
         offset="0.0833333"
         stop-color="rgb(14.901961%, 63.529414%, 41.176471%)"
         stop-opacity="1"
         id="stop6" />
      <stop
         offset="0.916667"
         stop-color="rgb(14.901961%, 63.529414%, 41.176471%)"
         stop-opacity="1"
         id="stop8" />
      <stop
         offset="0.958333"
         stop-color="rgb(34.117648%, 89.019608%, 53.725493%)"
         stop-opacity="1"
         id="stop10" />
      <stop
         offset="1"
         stop-color="rgb(14.901961%, 63.529414%, 41.176471%)"
         stop-opacity="1"
         id="stop12" />
    </linearGradient>
  </defs>
  <path
     fill-rule="nonzero"
     fill="url(#linear-pattern-0)"
     d="M 20 32 L 108 32 C 112.417969 32 116 35.582031 116 40 L 116 108 C 116 112.417969 112.417969 116 108 116 L 20 116 C 15.582031 116 12 112.417969 12 108 L 12 40 C 12 35.582031 15.582031 32 20 32 Z M 20 32 "
     id="path17" />
  <path
     fill-rule="nonzero"
     fill="rgb(20%, 81.960785%, 47.843137%)"
     fill-opacity="1"
     d="M 20 12 L 108 12 C 112.417969 12 116 15.582031 116 20 L 116 104 C 116 108.417969 112.417969 112 108 112 L 20 112 C 15.582031 112 12 108.417969 12 104 L 12 20 C 12 15.582031 15.582031 12 20 12 Z M 20 12 "
     id="path19" />
  <path
     fill-rule="nonzero"
     fill="rgb(18.039216%, 76.078433%, 49.411765%)"
     fill-opacity="1"
     d="M 53.5 32.40625 C 38.40625 32.40625 26.164062 42.609375 26.164062 55.1875 C 26.351562 62.246094 29.992188 68.765625 35.90625 72.621094 L 35.242188 77.472656 L 34.917969 77.785156 L 34.910156 79.914062 L 34.933594 79.90625 C 34.933594 80.101562 35.03125 80.289062 35.191406 80.398438 C 35.355469 80.507812 35.5625 80.53125 35.746094 80.457031 L 44.4375 76.6875 C 47.691406 77.933594 51.199219 78.371094 54.65625 77.957031 L 54.65625 75.910156 L 54.140625 75.714844 C 53.964844 74.742188 53.871094 73.753906 53.855469 72.769531 C 53.855469 61.117188 65.152344 51.640625 78.992188 51.640625 L 80.46875 51.640625 L 80.46875 49.59375 L 79.835938 49.164062 C 76.714844 39.582031 66.109375 32.40625 53.5 32.40625 Z M 43.628906 44.53125 C 44.597656 44.488281 45.542969 44.84375 46.242188 45.511719 C 46.941406 46.183594 47.339844 47.109375 47.335938 48.078125 C 47.328125 50.03125 45.742188 51.613281 43.789062 51.613281 L 43.789062 51.628906 C 42.042969 51.628906 40.554688 50.359375 40.28125 48.632812 C 40.007812 46.910156 41.03125 45.242188 42.691406 44.703125 C 42.996094 44.605469 43.3125 44.546875 43.628906 44.535156 Z M 62.300781 44.53125 C 63.269531 44.488281 64.214844 44.84375 64.914062 45.511719 C 65.613281 46.183594 66.011719 47.109375 66.007812 48.078125 C 65.992188 50.003906 64.449219 51.570312 62.519531 51.613281 L 62.464844 51.628906 C 60.714844 51.628906 59.226562 50.359375 58.953125 48.632812 C 58.679688 46.910156 59.703125 45.242188 61.367188 44.703125 C 61.667969 44.605469 61.984375 44.546875 62.304688 44.535156 Z M 62.300781 44.53125 "
     id="path21" />
  <path
     fill-rule="nonzero"
     fill="rgb(18.039216%, 76.078433%, 49.411765%)"
     fill-opacity="1"
     d="M 79.019531 54.007812 C 66.425781 54.007812 56.207031 62.402344 56.207031 72.765625 C 56.207031 83.132812 66.425781 91.527344 79.019531 91.527344 C 81.8125 91.527344 84.585938 91.09375 87.242188 90.242188 L 93.289062 93.570312 C 93.472656 93.667969 93.699219 93.660156 93.875 93.550781 C 94.054688 93.441406 94.160156 93.242188 94.15625 93.03125 L 94.164062 93.050781 L 94.160156 90.945312 L 93.949219 90.910156 L 93.570312 87.195312 C 98.558594 84.066406 101.660156 78.65625 101.835938 72.765625 C 101.835938 62.417969 91.617188 54.003906 79.023438 54.003906 Z M 70.570312 63.867188 C 71.378906 63.601562 72.265625 63.742188 72.957031 64.242188 C 73.644531 64.746094 74.050781 65.542969 74.050781 66.394531 C 74.050781 67.867188 72.863281 69.054688 71.390625 69.054688 C 70.085938 69.054688 68.972656 68.105469 68.765625 66.8125 C 68.5625 65.519531 69.328125 64.269531 70.570312 63.867188 Z M 85.960938 63.867188 C 86.769531 63.601562 87.660156 63.742188 88.347656 64.242188 C 89.039062 64.742188 89.445312 65.542969 89.445312 66.394531 C 89.445312 67.847656 88.28125 69.03125 86.828125 69.054688 L 86.785156 69.054688 C 85.476562 69.054688 84.363281 68.105469 84.15625 66.8125 C 83.953125 65.519531 84.71875 64.269531 85.960938 63.867188 Z M 85.960938 63.867188 "
     id="path23" />
  <path
     fill-rule="nonzero"
     fill="rgb(96.078432%, 96.078432%, 96.078432%)"
     fill-opacity="1"
     d="M 53.503906 30.355469 C 38.40625 30.355469 26.164062 40.558594 26.164062 53.140625 C 26.351562 60.199219 29.992188 66.714844 35.910156 70.570312 L 34.917969 77.785156 C 34.890625 78 34.976562 78.210938 35.148438 78.339844 C 35.320312 78.46875 35.550781 78.496094 35.746094 78.40625 L 44.441406 74.636719 C 47.691406 75.886719 51.199219 76.324219 54.65625 75.910156 C 54.136719 74.226562 53.867188 72.480469 53.859375 70.71875 C 53.859375 59.070312 65.152344 49.59375 78.992188 49.59375 C 79.496094 49.59375 79.996094 49.59375 80.46875 49.59375 C 78.503906 38.800781 67.179688 30.355469 53.503906 30.355469 Z M 43.789062 49.578125 C 41.828125 49.578125 40.242188 47.988281 40.242188 46.027344 C 40.242188 44.070312 41.828125 42.480469 43.789062 42.480469 C 45.75 42.480469 47.335938 44.070312 47.335938 46.027344 C 47.328125 47.984375 45.742188 49.5625 43.789062 49.5625 Z M 62.460938 49.578125 C 60.503906 49.578125 58.914062 47.988281 58.914062 46.027344 C 58.914062 44.070312 60.503906 42.480469 62.460938 42.480469 C 64.421875 42.480469 66.011719 44.070312 66.011719 46.027344 C 65.996094 47.957031 64.449219 49.523438 62.523438 49.5625 Z M 62.460938 49.578125 "
     id="path25" />
  <path
     fill-rule="nonzero"
     fill="rgb(96.078432%, 96.078432%, 96.078432%)"
     fill-opacity="1"
     d="M 101.835938 70.71875 C 101.835938 60.371094 91.617188 51.957031 79.019531 51.957031 C 66.425781 51.957031 56.207031 60.355469 56.207031 70.71875 C 56.207031 81.082031 66.425781 89.480469 79.019531 89.480469 C 81.8125 89.476562 84.582031 89.042969 87.242188 88.195312 L 93.289062 91.523438 C 93.480469 91.625 93.714844 91.617188 93.898438 91.496094 C 94.082031 91.375 94.183594 91.164062 94.160156 90.945312 L 93.570312 85.148438 C 98.558594 82.019531 101.660156 76.605469 101.835938 70.71875 Z M 71.390625 67.007812 C 69.921875 67.007812 68.730469 65.816406 68.730469 64.347656 C 68.730469 62.878906 69.921875 61.6875 71.390625 61.6875 C 72.863281 61.6875 74.054688 62.878906 74.054688 64.347656 C 74.054688 65.816406 72.863281 67.007812 71.390625 67.007812 Z M 86.785156 67.007812 C 85.3125 67.007812 84.121094 65.816406 84.121094 64.347656 C 84.121094 62.878906 85.3125 61.6875 86.785156 61.6875 C 88.253906 61.6875 89.445312 62.878906 89.445312 64.347656 C 89.445312 65.800781 88.28125 66.984375 86.828125 67.007812 Z M 86.785156 67.007812 "
     id="path27" />
  <metadata
     id="metadata206">
    <rdf:RDF>
      <cc:Work
         rdf:about="">
        <dc:creator>
          <cc:Agent>
            <dc:title>mechtifs@github.com</dc:title>
          </cc:Agent>
        </dc:creator>
        <dc:title>Adwaita Icon Template</dc:title>
        <cc:license
           rdf:resource="http://creativecommons.org/licenses/by-sa/4.0/" />
      </cc:Work>
      <cc:License
         rdf:about="http://creativecommons.org/licenses/by-sa/4.0/">
        <cc:permits
           rdf:resource="http://creativecommons.org/ns#Reproduction" />
        <cc:permits
           rdf:resource="http://creativecommons.org/ns#Distribution" />
        <cc:requires
           rdf:resource="http://creativecommons.org/ns#Notice" />
        <cc:requires
           rdf:resource="http://creativecommons.org/ns#Attribution" />
        <cc:permits
           rdf:resource="http://creativecommons.org/ns#DerivativeWorks" />
        <cc:requires
           rdf:resource="http://creativecommons.org/ns#ShareAlike" />
      </cc:License>
    </rdf:RDF>
  </metadata>
</svg>
